<svg viewBox="0 0 48 48" xmlns="http://www.w3.org/2000/svg"><g fill-rule="nonzero" fill="none"><rect fill="#000" width="48" height="48" rx="8"/><path d="M31.168 28.883h10.488V19H31.168v9.883zm8.406-1.936c-.024.01-.047.02-.07.032-.053.027-.108.053-.16.076-.055.027-.113.05-.164.075a6.308 6.308 0 0 1-.343.134l-.061.022c-.06.021-.126.042-.193.063l-.176.05a3.953 3.953 0 0 1-.258.063 6.123 6.123 0 0 1-.706.105l-.039.004a7.253 7.253 0 0 1-.613.024l-.086-.002a4.082 4.082 0 0 1-.54-.038 4.44 4.44 0 0 1-.332-.05 5.263 5.263 0 0 1-.38-.09c-.072-.024-.141-.044-.207-.067a3.828 3.828 0 0 1-1.022-.526c-.044-.032-.085-.066-.125-.097a2.551 2.551 0 0 1-.12-.1c-.057-.047-.107-.095-.15-.138l-.031-.028a4.142 4.142 0 0 1-.302-.34 4.659 4.659 0 0 1-.125-.172c-.031-.047-.062-.09-.092-.139a3.717 3.717 0 0 1-.362-.768 2.604 2.604 0 0 1-.06-.202 1.663 1.663 0 0 1-.038-.157c-.004-.026-.01-.05-.016-.077a2.378 2.378 0 0 1-.03-.197l-.005-.038a2.959 2.959 0 0 1-.012-.56 3.754 3.754 0 0 1 .236-1.102c.079-.205.174-.396.285-.575.018-.03.036-.061.057-.091.027-.043.057-.086.087-.129.041-.056.084-.112.127-.165.04-.05.082-.097.125-.146a4.447 4.447 0 0 1 .29-.285 3.726 3.726 0 0 1 .62-.442 3.822 3.822 0 0 1 .555-.266 4.41 4.41 0 0 1 .815-.23l.09-.015.07-.012.056-.008.05-.007c.061-.008.122-.014.185-.02l.128-.01c.076-.004.154-.008.233-.01l.11-.001c.094 0 .192.003.291.009a6.21 6.21 0 0 1 .41.04l.059.008.14.023.167.032.157.035.096.022c.05.013.098.025.146.039l.12.032.036.01.12.036c.053.015.105.034.155.05.045.014.09.03.13.044l.148.052c.086.03.16.058.224.082l.224.087v1.325l-.137-.075c-.051-.028-.114-.064-.187-.102-.043-.02-.088-.044-.136-.069-.058-.027-.12-.058-.184-.087-.079-.036-.16-.073-.246-.108-.063-.024-.128-.05-.195-.074l-.116-.042a6.432 6.432 0 0 0-.307-.092 4.028 4.028 0 0 0-.462-.096 4.808 4.808 0 0 0-.244-.03c-.044-.005-.09-.007-.135-.01a3.884 3.884 0 0 0-.204-.008l-.095-.001a3.261 3.261 0 0 0-.598.054c-.046.009-.094.018-.142.03a3.248 3.248 0 0 0-.291.08c-.048.017-.094.032-.138.05-.045.02-.091.036-.135.057-.288.13-.565.317-.812.563l-.048.05a2.42 2.42 0 0 0-.306.414c-.019.036-.04.07-.057.104-.023.047-.045.092-.065.138-.015.035-.03.068-.041.1a2.65 2.65 0 0 0-.093.3 3.01 3.01 0 0 0-.042.216c-.016.11-.022.21-.025.287l-.002.085a2.67 2.67 0 0 0 .011.255 2.515 2.515 0 0 0 .18.73c.018.04.036.08.057.119.023.047.048.095.076.142.019.032.037.066.058.096.023.033.045.067.07.098.025.036.052.072.08.105.05.06.106.12.166.181l.016.015.014.012.022.023.045.04a4.205 4.205 0 0 0 .22.171c.032.022.065.043.095.065l.096.055a2.578 2.578 0 0 0 .288.143l.055.022.085.032a3.254 3.254 0 0 0 .939.194 3.704 3.704 0 0 0 .883-.038c.028-.003.056-.009.085-.014.237-.04.507-.108.799-.214.155-.056.314-.121.48-.2.095-.044.19-.095.288-.146a5.43 5.43 0 0 0 .27-.158l.093-.056.048-.028v1.348zM24.61 26.38c-.072.007-.132.008-.175.01-.041 0-.066.002-.066.002h-1.26V24.45h1.218c.044 0 .09.002.133.005.05.004.098.005.143.01.08.008.154.02.225.032.14.026.267.063.38.113a.98.98 0 0 1 .346.229.765.765 0 0 1 .221.54l.002.045s0 .025-.004.064a.85.85 0 0 1-.242.545 1.12 1.12 0 0 1-.43.25c-.175.06-.355.084-.491.097zm-.891-3.042h-.61v-1.842h.84c.056 0 .122.002.193.008.166.011.362.04.535.117.088.039.171.09.24.16a.654.654 0 0 1 .13.173c.062.124.079.256.084.336l.001.077s0 .042-.006.105a.908.908 0 0 1-.065.277.756.756 0 0 1-.168.255c-.102.1-.233.17-.368.22l-.102.031a2.46 2.46 0 0 1-.472.075l-.137.007h-.095zm-4.634 5.545h10.488V19H19.084v9.883zm2.751-8.497h2.307c1.242 0 1.79.65 1.79.65s.504.435.504 1.19c0 .75-.342 1.059-.438 1.155-.205.205-.47.33-.47.33s.59.124 1.052.587c.543.543.5 1.253.5 1.253s.043.68-.544 1.266c-.72.722-2.025.687-2.025.687h-2.676v-7.118zm-9.31 5.994c-.073.007-.134.008-.175.01-.042 0-.067.002-.067.002h-1.26V24.45h1.219c.045 0 .09.002.132.005.05.004.097.005.146.01.076.008.152.02.224.032.139.026.265.063.378.113.086.037.164.08.234.13.04.031.079.064.113.098a.76.76 0 0 1 .196.353c.02.077.024.15.026.187v.046s0 .025-.003.064a.861.861 0 0 1-.242.545 1.118 1.118 0 0 1-.43.25 2.15 2.15 0 0 1-.491.097zm-.892-3.042h-.61v-1.842h.842c.054 0 .12.002.193.008.164.011.361.04.533.117.089.039.172.09.241.16a.674.674 0 0 1 .13.173c.062.124.079.256.083.336.002.047.001.077.001.077s0 .042-.005.105a.94.94 0 0 1-.065.277.765.765 0 0 1-.169.255c-.102.1-.232.17-.367.22l-.102.031a2.457 2.457 0 0 1-.473.075l-.137.007h-.095zM7 28.883h10.487V19H7v9.883zm2.751-8.497h2.307c1.242 0 1.792.65 1.792.65s.502.435.502 1.19c0 .75-.343 1.059-.437 1.155-.207.205-.473.33-.473.33s.591.124 1.053.587c.544.543.501 1.253.501 1.253s.043.68-.545 1.266c-.72.722-2.024.687-2.024.687H9.75v-7.118z" fill="#FFF"/></g></svg>