<svg viewBox="0 0 48 48" xmlns="http://www.w3.org/2000/svg"><g fill="none" fill-rule="evenodd"><rect fill="#bb1919" height="48" rx="8" width="48"/><g fill="#fff"><path d="M14.46 24.915h1.111v8.174h-1.006L9.1 26.8v6.29H8v-8.174h.948l5.512 6.343zm2.58 0h4.634v1.042H18.21v2.492h3.347v1.048H18.21v2.54h3.575v1.04H17.04zm16.682 0h1.164l-3.306 8.21h-.251l-2.674-6.647-2.698 6.646h-.251l-3.295-8.209h1.176l2.253 5.635 2.265-5.635h1.111l2.276 5.635zm4.101 4.746l-.889-.539c-.558-.34-.955-.674-1.19-1.003s-.355-.71-.355-1.138c0-.644.224-1.167.67-1.568.447-.402 1.027-.603 1.741-.603a3.3 3.3 0 0 1 1.878.573v1.329c-.589-.566-1.223-.849-1.901-.849-.383 0-.697.089-.942.266-.246.178-.37.405-.37.682 0 .246.09.476.27.69.18.215.47.44.872.673l.895.527c.999.593 1.498 1.35 1.498 2.27 0 .656-.22 1.188-.658 1.598s-1.01.614-1.712.614a3.6 3.6 0 0 1-2.206-.743v-1.486c.632.8 1.364 1.2 2.195 1.2.366 0 .671-.103.915-.308a.964.964 0 0 0 .366-.77c0-.499-.359-.97-1.077-1.415zM28.995 22h7.661V14.78h-7.66zm6.14-1.415l-.05.024-.117.056c-.041.02-.083.037-.12.054a4.607 4.607 0 0 1-.251.098l-.045.016c-.044.016-.092.03-.141.046l-.128.036c-.06.017-.122.033-.189.046a4.472 4.472 0 0 1-.516.076l-.028.004a5.298 5.298 0 0 1-.447.018l-.063-.002a2.981 2.981 0 0 1-.394-.028 3.243 3.243 0 0 1-.521-.102c-.052-.017-.103-.032-.15-.049a2.944 2.944 0 0 1-.479-.212 3.317 3.317 0 0 1-.268-.172c-.032-.023-.062-.048-.091-.07a1.863 1.863 0 0 1-.089-.073c-.041-.035-.077-.07-.11-.102l-.021-.02a3.025 3.025 0 0 1-.312-.373c-.023-.035-.046-.067-.068-.102a2.715 2.715 0 0 1-.308-.709 1.214 1.214 0 0 1-.027-.115l-.012-.056a1.737 1.737 0 0 1-.022-.143l-.004-.028a2.161 2.161 0 0 1-.008-.41 2.742 2.742 0 0 1 .172-.805c.057-.15.127-.289.208-.42.013-.021.026-.044.042-.066a1.83 1.83 0 0 1 .156-.214c.03-.037.06-.071.091-.107l.094-.098a3.248 3.248 0 0 1 .258-.225c.022-.017.046-.035.071-.051l.085-.06a2.792 2.792 0 0 1 .562-.291 3.222 3.222 0 0 1 .595-.168l.066-.011.051-.01.041-.005.037-.005.135-.015.094-.007c.055-.003.112-.006.17-.007l.08-.001c.069 0 .14.002.213.006.041.003.081.005.122.01.06.005.12.012.178.02l.042.006.103.017.121.023.115.025c.025.005.047.011.07.017l.107.028.087.023.027.008.087.026c.039.011.077.025.114.037.032.01.065.02.095.031l.108.038.163.06.163.064v.968l-.1-.055c-.037-.02-.083-.047-.136-.074l-.1-.05c-.041-.02-.087-.043-.134-.064-.057-.026-.117-.054-.18-.079l-.142-.055-.084-.03a4.698 4.698 0 0 0-.224-.067 2.942 2.942 0 0 0-.516-.093c-.032-.003-.066-.004-.1-.006a2.837 2.837 0 0 0-.148-.006l-.07-.001a2.382 2.382 0 0 0-.436.04c-.034.006-.07.012-.104.02-.034.01-.07.017-.104.027-.036.01-.073.02-.109.033-.034.012-.068.023-.1.037-.033.013-.067.026-.099.041-.21.095-.413.231-.593.41l-.035.038a1.768 1.768 0 0 0-.223.303l-.042.075-.048.1-.03.074a1.935 1.935 0 0 0-.068.219 2.2 2.2 0 0 0-.03.157 2.043 2.043 0 0 0-.018.21l-.002.062a1.95 1.95 0 0 0 .14.72c.013.028.026.058.041.087.017.034.035.069.056.104.014.023.027.047.042.07.017.024.033.049.05.071.02.026.04.053.06.077.036.044.077.088.121.132l.012.011.01.009.016.017.033.029a3.071 3.071 0 0 0 .161.125l.07.047.069.04a1.883 1.883 0 0 0 .21.104l.04.017.062.023a2.377 2.377 0 0 0 .686.142 2.705 2.705 0 0 0 .646-.028c.02-.002.04-.006.061-.01a3.855 3.855 0 0 0 .935-.303c.07-.032.138-.069.21-.106.066-.036.13-.074.197-.116l.068-.04.035-.021zm-10.93-.414c-.053.006-.097.007-.128.008l-.048.001h-.92v-1.418h.89c.031 0 .065.001.096.003.037.003.072.004.105.008.058.006.113.014.164.023.103.02.195.046.278.082.062.028.12.059.17.096.03.022.057.046.082.071.014.013.024.027.036.042a.558.558 0 0 1 .126.352l.001.034s0 .019-.003.047a.62.62 0 0 1-.176.398.818.818 0 0 1-.314.182 1.58 1.58 0 0 1-.36.071zm-.65-2.221h-.446v-1.345h.614c.04 0 .088 0 .14.005.121.008.265.03.39.085a.576.576 0 0 1 .176.117c.042.04.072.082.095.127a.646.646 0 0 1 .062.302s0 .03-.004.076a.663.663 0 0 1-.048.203.552.552 0 0 1-.122.185.746.746 0 0 1-.27.16c-.024.01-.049.017-.074.024a1.796 1.796 0 0 1-.344.055l-.1.005h-.07zM20.17 22h7.66V14.78h-7.66zm2.009-6.206h1.685c.907 0 1.308.475 1.308.475s.367.317.367.869c0 .548-.25.773-.32.843-.15.15-.343.241-.343.241s.43.091.769.428c.396.398.365.916.365.916s.031.496-.397.924c-.527.528-1.48.503-1.48.503H22.18zm-6.8 4.377c-.053.006-.098.007-.128.008l-.048.001h-.92v-1.418h.89c.032 0 .065.001.096.003.037.003.07.004.106.008.056.006.111.014.164.023.101.02.194.046.276.082a.795.795 0 0 1 .253.167.555.555 0 0 1 .143.258c.015.056.018.11.02.136v.034s0 .019-.003.047a.629.629 0 0 1-.177.398.816.816 0 0 1-.314.182 1.57 1.57 0 0 1-.358.071zm-.652-2.221h-.445v-1.345h.615c.04 0 .088 0 .14.005.121.008.265.03.39.085a.588.588 0 0 1 .177.117c.04.04.071.082.094.127.046.09.058.187.061.245v.057s0 .03-.003.076a.687.687 0 0 1-.047.203.559.559 0 0 1-.124.185.742.742 0 0 1-.268.16c-.025.01-.05.017-.075.024a1.794 1.794 0 0 1-.345.055l-.1.005h-.07zM11.344 22h7.66V14.78h-7.66zm2.01-6.206h1.684c.907 0 1.309.475 1.309.475s.366.317.366.869c0 .548-.25.773-.319.843-.15.15-.345.241-.345.241s.432.091.769.428c.397.398.366.916.366.916s.031.496-.398.924c-.526.528-1.479.503-1.479.503h-1.954z"/></g></g></svg>