<svg viewBox="0 0 1000 1000" xmlns="http://www.w3.org/2000/svg"><g fill="none" fill-rule="evenodd"><path d="m.5.5v999h999.00004v-999zm157.68432 14.97003h22.95404l23.95205 13.81604h104.79021l12.97403-13.81604h22.95404l17.27791 9.98002h116.45436l7.98402-9.98002h496.00696v968.06197h-968.06191v-834.3297l19.58579-33.93207v-89.82018h85.20442l36.92607-8.98202z" fill="#2a205c"/><g fill-rule="nonzero"><g fill="#2a205c"><path d="m345.341046 15.3573313h143.18214v134.7467897h-143.18214zm90.210076 18.7500387c-.65563-.1311258-1.267519-.2185352-1.966771-.3496494l-.743109-.0874793c-1.09256-.174819-2.228976-.3059447-3.321652-.3933542-.786732-.0437396-1.529724-.1311142-2.316456-.1748306-1.354881-.0873629-2.666023-.0873629-3.977281-.0873629h-1.485984c-1.092677 0-2.141614.087363-3.19055.1311258-.56815.0437397-1.18004.087363-1.748306.1311142-.830355.087363-1.704566.1748306-2.491181.3059448l-.699369.087363-.786732.0874792-.961457.1748189c-.393424.0437396-.830471.1311258-1.223779.2185353-.568266.0873629-1.136416.2185353-1.660943.3059447-3.409015.699299-6.555942 1.660838-9.440547 2.7972074-1.485984.6118895-2.928345 1.223779-4.283227 1.8793732-1.136299.5681848-2.272715 1.1363695-3.321652 1.748259-1.005314.6118895-1.966771 1.1800743-2.928345 1.8356685-.524527.3496495-1.048937.699299-1.573463 1.0926532-.437048.3059447-.917835.6556058-1.354882.9615505-.874094.699299-1.748189 1.398598-2.57866 2.1416133-.742992.6992989-1.529724 1.3548931-2.228977 2.054192-.568266.6118896-1.180155 1.223779-1.748305 1.8793733-.56815.6118895-1.136416 1.2674837-1.704566 1.9230895-.56815.7430037-1.180039 1.4860074-1.748189 2.2727274-.393424.5681848-.786732 1.1800743-1.180156 1.748259-.262205.437059-.52441.8304132-.786732 1.223779-1.485984 2.447558-2.797126 5.0699348-3.889802 7.8671422-1.311258 3.496518-2.316455 7.2115597-2.840982 11.1888414-.131102 1.2674837-.262205 2.5349674-.349568 3.8461558-.044205.9615506-.087247 1.9667943-.087247 3.0157427 0 .78672 0 1.5297238.044205 2.272739.044205.7867085.087247 1.5734285.218582 2.3164322l.044205.52448c.131103.9178343.262322 1.8356685.437047 2.709798.044205.3496495.131219.699299.218582 1.0489484.131103.699299.305945 1.4423143.524527 2.1416132.218465.961539.48067 1.8356685.786615 2.7535027.393424 1.0926648.743108 2.1416132 1.223779 3.1905733.699369 1.6608379 1.442361 3.2342663 2.229093 4.7202853.480786.8741295 1.005197 1.748259 1.485984 2.5786722.393424.6118895.830471 1.2674837 1.267518 1.8793732.56815.8304247 1.1363 1.57344 1.704566 2.3164437.61189.78672 1.223779 1.5297238 1.835669 2.2290227.742992.8741292 1.529723 1.6608492 2.272715 2.4038532l.393308.393354c.61189.61189 1.311258 1.267496 2.05425 1.879373.524411.480776 1.048937.917835 1.660827 1.39861.568149.437059 1.136416.87413 1.748305 1.311188.699253.52448 1.442245 1.04896 2.272716 1.529724.874094.568185 1.748189 1.13637 2.709763 1.66085 1.879408 1.048948 3.977282 2.054192 6.249997 3.015742.874095.305945 1.748306.655595 2.709763.961539.874211.305945 1.835669.61189 2.797243.87413 1.617203.480764 3.365392.917834 5.20106 1.267484 1.442361.26224 2.972085.524468 4.545432.699299 1.573463.17483 3.190666.349649 4.895116.393354.786732.043739 1.617203.087363 2.447558.087363.393424 0 .786731.043739 1.180155.043739 3.015708 0 5.812951-.131126 8.391611-.349649l.480787-.04374c1.048937-.087363 2.054134-.174819 3.015708-.305945 1.442361-.174819 2.840866-.393354 4.195863-.655594.830355-.131114 1.660827-.305945 2.447558-.480763 1.267403-.26224 2.403819-.524481 3.540118-.830425.830472-.218535 1.617203-.480776 2.403935-.699299.917834-.26224 1.791929-.568185 2.6224-.830425l.830355-.305945c.393424-.131114.961574-.349649 1.617203-.611889.830355-.305945 1.879292-.743004 3.059448-1.223779.742992-.305945 1.485984-.655594 2.272715-1.005244.699253-.349649 1.442245-.69931 2.185237-1.04896.305945-.131114.611889-.305945.917834-.437059v-18.400389c-.174726.1311142-.437047.26224-.655513.3933542l-1.223779.7430153c-1.267518.7867084-2.491297 1.4860073-3.715076 2.185318-1.311142.6992989-2.6224 1.3985978-3.933542 2.0104873-2.272716 1.04896-4.414329 1.9667943-6.555942 2.709798-3.977282 1.4423142-7.692359 2.3601482-10.926648 2.9283332-.393308.04374-.742992.131114-1.136416.174819-.874095.131126-1.74819.26224-2.578661.349649-1.267402.131126-2.447558.218536-3.540234.26224-.699253 0-1.354882.04374-1.966771.04374-1.267403 0-2.6224-.04374-3.977282-.131114-1.617087-.131114-3.23429-.305945-4.895116-.568185-2.6224-.437059-5.332163-1.136369-7.910824-2.0979084-.393307-.1311142-.786731-.26224-1.180039-.437059-.218582-.0873628-.480787-.1748305-.742992-.3059446-.437164-.1748306-.830471-.3496495-1.267519-.5681848-.917834-.3933542-1.791928-.8741295-2.666139-1.3548932-.437048-.26224-.830355-.52448-1.267403-.78672-.437163-.26224-.917834-.5681848-1.311258-.8741295-.56815-.3496495-1.092676-.7430037-1.573463-1.1363695-.52441-.3933542-1.048937-.8304132-1.485984-1.1800626l-.56815-.5681848-.305945-.26224-.174842-.1748306-.262205-.2185236c-.786732-.8304248-1.573464-1.6608496-2.272716-2.4912743-.349684-.437059-.743108-.9178343-1.049053-1.398598-.349568-.4370705-.655513-.8741294-.961458-1.3548931-.305944-.4370706-.568266-.8741295-.830471-1.3112-.349684-.6118896-.699252-1.2674838-1.005197-1.923078-.262322-.5681848-.524527-1.0926648-.786732-1.6608379-.349684-.9178342-.699369-1.8356685-1.005313-2.709798-.218466-.6993106-.393308-1.3986095-.56815-2.0542037-.480787-1.923078-.742992-3.671337-.874095-5.157356-.044205-.5681847-.087246-1.092653-.131102-1.6171331 0-.699299-.044205-1.3548932-.044205-1.8793732 0-.3059448.044205-.699299.044205-1.1363695.043041-1.0489484.131102-2.4038532.349568-3.933577.131219-.9178342.305945-1.8793732.568266-2.9283216.174842-.6993106.349568-1.3549048.56815-2.0979085.174842-.6555942.437047-1.3111884.699252-1.9667942.174842-.4807637.349685-.9178343.568266-1.398598.262205-.6118894.56815-1.223779.874095-1.8793731.262205-.4370706.524527-.9178343.786732-1.3986096.611889-1.0489484 1.311142-2.0979084 2.054134-3.1031521.305944-.3933542.568266-.7430037.874211-1.1363696.393307-.4370589.830355-.9178342 1.223779-1.3985979.218465-.2185352.437047-.4807752.655512-.6992989 3.409132-3.3653922 7.167948-5.9003712 11.10149-7.6486186.61189-.3059447 1.223779-.5681848 1.835669-.78672.655629-.26224 1.267518-.4807753 1.879408-.699299.699252-.2185353 1.398505-.4370706 2.054134-.6118895.655629-.1748305 1.311258-.3496495 1.923148-.4807753.655512-.1748189 1.311142-.3059447 1.966771-.437059.699252-.1311257 1.398621-.2185352 2.097873-.3059447.699253-.0873629 1.442361-.1748305 2.097874-.2185352 1.354881-.1311142 2.66614-.174819 3.977281-.174819h1.267519c.961574 0 1.879408.0437397 2.797242.087363.61189.0437396 1.223779.0873629 1.835669.1748189 1.1363.0874792 2.272716.2185353 3.321652.3933658.961574.1311142 1.879408.3059448 2.753503.4807637 1.311142.26224 2.491298.5681848 3.583974.8304248.699253.1748189 1.354882.3933542 1.923032.5681847.917834.26224 1.660826.4807637 2.272715.699299 1.005314.3496494 1.573464.5681847 1.573464.5681847.917834.3059448 1.791928.6555942 2.666023 1.0052437 1.136416.4807753 2.272832.961539 3.321769 1.486019.917834.3933542 1.748189.78672 2.534921 1.1800743.655629.3059447 1.267518.6555942 1.879408.961539 1.005197.52448 1.835668.9615389 2.534921 1.354893l1.879408 1.0052554v-18.05074s-1.136416-.4370706-3.103187-1.1800742c-.830355-.3496495-1.879292-.699299-3.015708-1.1363695-.611889-.2185237-1.311142-.437059-2.010511-.699299-.56815-.1748305-1.180039-.3933542-1.791928-.6118895-.699369-.2185353-1.398622-.437059-2.141614-.6555942-.524526-.1748306-1.048936-.3496495-1.617203-.4807753l-.48067-.1311142c-.568266-.1748305-1.092677-.3059447-1.660943-.4807753-.611889-.174819-1.311142-.3496495-1.966771-.4807637-.437047-.1311258-.874094-.2185352-1.311142-.3496494-.699369-.1311258-1.442361-.3059448-2.185353-.4370706-.699252-.174819-1.485984-.3059447-2.228976-.437059l-.001279.0000581zm-200.267126 55.5420698v26.4860712h17.176611s.349651 0 .917834-.043707c.568183 0 1.398604-.043706 2.403851-.131119 1.879375-.174825 4.326933-.524476 6.687078-1.3111914 2.185319-.7430086 4.283226-1.8356682 5.856656-3.4528046.655595-.6118894 1.136366-1.2237789 1.57343-1.8793747 1.354898-2.141613 1.660842-4.283226 1.748255-5.5070048.043707-.5244767.043707-.8304214.043707-.8304214v-.6555958c0-.5244767-.087413-1.5297236-.349652-2.578677-.305944-1.2674852-.917834-2.709796-2.010494-4.064694-.218531-.2622383-.437063-.4807702-.655595-.7430086-.480771-.4807702-1.005247-.9178341-1.57343-1.3111916-.917834-.6993022-2.010494-1.3111916-3.190567-1.791962-1.529723-.6555957-3.234272-1.1800724-5.157353-1.5297235-.961541-.1748255-2.010494-.349651-3.059448-.4370639-.655595-.0874127-1.311191-.1311191-1.966787-.1748255-.611889 0-1.223779-.0437064-1.835668-.0437064zm0-40.2623167v25.131173h8.34792s.524477 0 1.267486-.0437064c.568183 0 1.267485-.0437063 1.879374-.0874127 1.70455-.1311192 4.064694-.3933575 6.468546-1.005247.437064-.1748255.917834-.3059447 1.354898-.4807702 1.879375-.6555958 3.62763-1.6171364 5.026234-2.9720344 1.09266-1.0926597 1.835669-2.2727322 2.316439-3.4528046.568183-1.4423108.786715-2.8409152.874128-3.8024558.087412-.8741277.087412-1.3986044.087412-1.3986044s0-.4370639-.043706-1.0926597c-.043706-1.0926597-.262238-2.8409152-1.136366-4.5891707-.393357-.786715-1.005247-1.57343-1.748256-2.360145-.96154-.9178341-2.097906-1.6171363-3.277979-2.1853193-2.360145-1.005247-5.026234-1.4423108-7.298966-1.57343-1.005247-.0874128-1.879375-.0874128-2.66609-.0874128z"/><path d="m180.349466 15.3573313h143.18214v134.7467897h-143.18214zm37.54384 18.881153v97.0281887h36.538527s17.832158.524468 27.66613-9.309468c7.998303-8.041973 7.430037-17.3077248 7.430037-17.3077248s.568266-9.6591176-6.861888-17.089201c-6.293737-6.2937138-14.335663-7.998268-14.335663-7.998268s3.627598-1.7045543 6.42484-4.5017617c1.311142-1.3111885 5.944053-5.5070054 5.944053-15.7342962 0-10.3147118-6.818148-16.2150714-6.818148-16.2150714s-7.517516-8.8723976-24.475579-8.8723976zm-147.5921649 55.4109555v26.4860712h17.1766104s.3496511 0 .9178342-.043707c.6118894 0 1.3986044-.043706 2.4038513-.131119 1.8793747-.174825 4.3269324-.524476 6.6870774-1.3111914 2.1853194-.7430086 4.283226-1.8356682 5.9003623-3.4528046.6118894-.6118894 1.0926597-1.2237789 1.5297236-1.8793747 1.354898-2.141613 1.6608427-4.283226 1.7482555-5.5070048.0437064-.5244767.0437064-.8304214.0437064-.8304214v-.6555958c0-.5244767-.0874128-1.5297236-.3496511-2.578677-.3496511-1.2674852-.9178342-2.709796-2.0104938-4.064694-.218532-.2622383-.437064-.4807702-.6555959-.7430086-.4807702-.4807702-1.0052469-.9178341-1.57343-1.3111916-.917834-.6993022-2.0104938-1.3111916-3.1468599-1.791962-1.57343-.6555957-3.277979-1.1800724-5.2010601-1.5297235-.9615405-.1748255-2.0104938-.349651-3.0594472-.4370639-.6555958-.0874127-1.3111916-.1311191-1.9667874-.1748255-.6118894 0-1.2237789-.0437064-1.8356683-.0437064zm0-40.2623167v25.131173h8.3479201s.5244767 0 1.2674852-.0437064c.568183 0 1.2674853-.0437063 1.8793747-.0874127 1.7045492-.1311192 4.064694-.3933575 6.424839-1.005247.4807703-.1748255.9615406-.3059447 1.3986044-.4807702 1.8793747-.6555958 3.6276302-1.6171364 5.0262347-2.9720344 1.0926596-1.0926597 1.8356682-2.2727322 2.3164385-3.4528046.568183-1.4423108.786715-2.8409152.8741278-3.8024558.0874127-.8741277.0874127-1.3986044.0874127-1.3986044s0-.4370639-.0437063-1.0926597c-.0437064-1.0926597-.2622384-2.8409152-1.1363661-4.5891707-.437064-.786715-1.005247-1.57343-1.7482555-2.360145-.9615406-.9178341-2.0979067-1.6171363-3.2779791-2.1853193-2.360145-1.005247-5.069941-1.4423108-7.2989668-1.57343-1.005247-.0874128-1.8793747-.0874128-2.6660897-.0874128z"/><path d="m15.3578856 15.3573313h143.1821404v134.7467897h-143.1821404zm37.5437242 18.881153v97.0281887h36.5386435s17.832158.524468 27.6661297-9.309468c7.998186-8.041973 7.430037-17.3077248 7.430037-17.3077248s.568149-9.6591176-6.861887-17.089201c-6.2937374-6.2937138-14.3794034-7.998268-14.3794034-7.998268s3.671337-1.7045543 6.4685793-4.5017617c1.311142-1.3111885 5.9440531-5.5070054 5.9440531-15.7342962 0-10.3147118-6.818264-16.2150714-6.818264-16.2150714s-7.5173997-8.8723976-24.4755795-8.8723976z"/></g><path d="m826.564263 412.604683c-28.31598-64.016838-74.766423-118.245435-132.796702-156.131168l.436975 226.047168c54.971454-.043698 103.475679-27.747913 132.359727-69.916" fill="#f3611f"/><path d="m694.222014 633.989327v225.610192c57.811793-37.885732 104.043748-91.93954 132.31603-155.73789-28.927744-42.168087-77.344575-69.828605-132.31603-69.872302" fill="#ef3623"/><path d="m519.67672 727.2529s0 .043698.043698.043698c80.490795 2.053782 146.386625-62.137845 146.386625-142.716035v-344.467393c-44.134475-23.509255-93.731138-38.10422-146.430323-41.381532z" fill="#378baa"/><path d="m519.702939 728.423993s-.043697 0-.043697.043698v189.166477c52.699185-3.277312 102.295847-17.872277 146.430322-41.381532l.043697-5.156305c0-80.534493-65.895829-144.769818-146.430322-142.672338" fill="#53c49b"/><path d="m345.135796 430.297801h.043698c80.884072-.043698 146.430322-65.589948 146.430322-146.47402v-85.734495c-52.26221.786555-101.858872 12.672275-146.47402 33.472285z" fill="#ef249c"/><path d="m345.135796 884.808607c44.615148 20.80001 94.21181 32.68573 146.47402 33.472285v-341.495962c0-80.884073-65.54625-146.47402-146.430322-146.47402h-.043698z" fill="#d51378"/><path d="m136.89099 558.187274c0 133.321073 72.494153 249.687515 180.20849 311.956453v-189.428663c-23.858835-34.914302-37.842035-77.08239-37.842035-122.52779s13.9832-87.613487 37.842035-122.52779v-189.428662c-107.714337 62.268937-180.20849 178.63538-180.20849 311.956452" fill="#89cf25"/></g></g></svg>