<svg viewBox="0 0 1000 1000" xmlns="http://www.w3.org/2000/svg"><g fill="none" fill-rule="evenodd"><path d="M.5.5v999h999V.5zm157.684 14.97h22.954l23.952 13.816h104.79l12.975-13.816h22.954l17.278 9.98H479.54l7.984-9.98h496.007v968.062H15.47v-834.33l19.586-33.932V25.45h85.204l36.926-8.982z" fill="#2a205c"/><g fill-rule="nonzero"><g fill="#2a205c"><path d="M345.341 15.357h143.182v134.747H345.341zm90.21 18.75c-.656-.13-1.267-.218-1.967-.35l-.743-.087a42.973 42.973 0 0 0-3.321-.393c-.787-.044-1.53-.131-2.317-.175-1.355-.087-2.666-.087-3.977-.087h-1.486c-1.093 0-2.142.087-3.19.13-.569.045-1.18.088-1.749.132-.83.087-1.705.175-2.491.306l-.7.087-.786.088-.962.175c-.393.043-.83.13-1.224.218-.568.087-1.136.219-1.66.306a56.95 56.95 0 0 0-9.441 2.797c-1.486.612-2.928 1.224-4.283 1.88-1.137.568-2.273 1.136-3.322 1.748-1.005.612-1.967 1.18-2.928 1.836-.525.35-1.05.699-1.574 1.092-.437.306-.918.656-1.355.962-.874.699-1.748 1.398-2.578 2.141-.743.7-1.53 1.355-2.23 2.055-.567.611-1.18 1.223-1.748 1.879a75.911 75.911 0 0 0-1.704 1.923c-.568.743-1.18 1.486-1.748 2.273-.394.568-.787 1.18-1.18 1.748-.263.437-.525.83-.787 1.224a50.674 50.674 0 0 0-3.89 7.867c-1.311 3.496-2.316 7.211-2.84 11.189-.132 1.267-.263 2.535-.35 3.846a64.93 64.93 0 0 0-.088 3.016c0 .786 0 1.53.044 2.272.045.787.088 1.574.219 2.317l.044.524c.131.918.263 1.836.437 2.71.044.35.132.7.219 1.049.131.7.306 1.442.524 2.142.219.961.481 1.835.787 2.753.393 1.093.743 2.142 1.224 3.19.7 1.662 1.442 3.235 2.229 4.721.48.874 1.005 1.748 1.486 2.579.393.612.83 1.267 1.267 1.88a53.11 53.11 0 0 0 3.54 4.545c.744.874 1.53 1.66 2.273 2.403l.394.394a29.193 29.193 0 0 0 2.054 1.88c.524.48 1.049.917 1.66 1.398.569.437 1.137.874 1.749 1.31.7.525 1.442 1.05 2.273 1.53.874.569 1.748 1.137 2.71 1.661 1.879 1.05 3.977 2.055 6.25 3.016.874.306 1.748.656 2.71.962.873.306 1.835.612 2.797.874 1.617.48 3.365.918 5.2 1.267 1.443.263 2.973.525 4.546.7 1.573.175 3.19.35 4.895.393a44.17 44.17 0 0 0 2.448.087c.393 0 .786.044 1.18.044 3.016 0 5.813-.131 8.391-.35l.481-.043a58.482 58.482 0 0 0 3.016-.306 60.21 60.21 0 0 0 4.196-.656c.83-.13 1.66-.306 2.447-.48a60.777 60.777 0 0 0 3.54-.831c.83-.219 1.618-.48 2.404-.7.918-.262 1.792-.567 2.623-.83l.83-.306c.394-.13.962-.35 1.617-.612.83-.305 1.88-.743 3.06-1.223.743-.306 1.486-.656 2.273-1.006.699-.35 1.442-.699 2.185-1.049.306-.13.612-.305.918-.437v-18.4c-.175.131-.437.262-.656.393l-1.224.743c-1.267.787-2.491 1.486-3.715 2.186-1.31.699-2.622 1.398-3.933 2.01-2.273 1.05-4.415 1.967-6.556 2.71a65.29 65.29 0 0 1-10.927 2.928c-.393.044-.743.131-1.136.175-.874.131-1.749.262-2.579.35a56.487 56.487 0 0 1-3.54.262c-.7 0-1.355.044-1.967.044-1.267 0-2.622-.044-3.977-.131a64.67 64.67 0 0 1-4.895-.569 43.183 43.183 0 0 1-7.911-2.097c-.394-.132-.787-.263-1.18-.437-.219-.088-.481-.175-.743-.306-.437-.175-.83-.35-1.268-.569-.918-.393-1.792-.874-2.666-1.355-.437-.262-.83-.524-1.267-.786a13.666 13.666 0 0 1-1.312-.874 14.514 14.514 0 0 1-1.573-1.137c-.524-.393-1.049-.83-1.486-1.18l-.568-.568-.306-.262-.175-.175-.262-.219c-.787-.83-1.574-1.66-2.273-2.49-.35-.438-.743-.919-1.049-1.4-.35-.437-.655-.874-.961-1.354a21.735 21.735 0 0 1-.83-1.312c-.35-.611-.7-1.267-1.006-1.923-.262-.568-.525-1.092-.787-1.66-.35-.918-.7-1.836-1.005-2.71-.219-.7-.393-1.399-.568-2.054a33.451 33.451 0 0 1-.874-5.158 275.49 275.49 0 0 0-.131-1.617c0-.7-.045-1.355-.045-1.88 0-.305.045-.699.045-1.136.043-1.049.13-2.404.35-3.933.13-.918.305-1.88.567-2.929.175-.699.35-1.354.569-2.097.174-.656.437-1.312.699-1.967.175-.481.35-.918.568-1.399.262-.612.568-1.224.874-1.88.262-.436.525-.917.787-1.398a34.617 34.617 0 0 1 2.054-3.103c.306-.393.568-.743.874-1.136.394-.437.83-.918 1.224-1.399.218-.219.437-.48.656-.7 3.409-3.365 7.167-5.9 11.101-7.648a16.56 16.56 0 0 1 1.836-.787c.655-.262 1.267-.48 1.88-.699.698-.218 1.398-.437 2.053-.612.656-.175 1.311-.35 1.923-.48a31.703 31.703 0 0 1 1.967-.438c.7-.13 1.399-.218 2.098-.306.7-.087 1.442-.174 2.098-.218a40.954 40.954 0 0 1 3.977-.175h1.268c.961 0 1.88.044 2.797.087.612.044 1.224.088 1.836.175 1.136.088 2.272.219 3.321.394.962.13 1.88.306 2.754.48 1.31.263 2.491.569 3.584.83.699.176 1.355.394 1.923.569.918.262 1.66.48 2.272.7 1.006.349 1.574.567 1.574.567.918.306 1.792.656 2.666 1.006 1.136.48 2.273.961 3.322 1.486.918.393 1.748.786 2.535 1.18.655.306 1.267.655 1.88.961 1.004.525 1.835.962 2.534 1.355l1.88 1.005v-18.05s-1.137-.437-3.104-1.18c-.83-.35-1.88-.7-3.015-1.137-.612-.218-1.312-.437-2.011-.699a43.881 43.881 0 0 1-1.792-.612c-.7-.218-1.399-.437-2.142-.655-.524-.175-1.048-.35-1.617-.481l-.48-.131c-.569-.175-1.093-.306-1.661-.481a25.866 25.866 0 0 0-1.967-.48c-.437-.132-.874-.22-1.311-.35-.7-.132-1.443-.307-2.186-.438-.699-.174-1.486-.306-2.229-.437zM235.284 89.65v26.487h17.177s.35 0 .917-.044c.569 0 1.399-.044 2.404-.131 1.88-.175 4.327-.525 6.687-1.312 2.186-.743 4.284-1.835 5.857-3.452a10.263 10.263 0 0 0 1.573-1.88c1.355-2.141 1.661-4.283 1.749-5.507.043-.524.043-.83.043-.83v-.656c0-.524-.087-1.53-.35-2.578a10.36 10.36 0 0 0-2.01-4.065c-.218-.262-.437-.48-.655-.743a11.38 11.38 0 0 0-1.574-1.311c-.918-.7-2.01-1.311-3.19-1.792a23.845 23.845 0 0 0-5.158-1.53c-.961-.175-2.01-.35-3.06-.437a29.86 29.86 0 0 0-1.966-.175c-.612 0-1.224-.044-1.836-.044zm0-40.262v25.131h8.348s.524 0 1.267-.043c.569 0 1.268-.044 1.88-.088 1.704-.13 4.064-.393 6.468-1.005.437-.175.918-.306 1.355-.48 1.88-.656 3.628-1.618 5.026-2.973a10.43 10.43 0 0 0 2.317-3.453c.568-1.442.787-2.84.874-3.802.087-.874.087-1.399.087-1.399s0-.437-.043-1.092c-.044-1.093-.263-2.841-1.137-4.59-.393-.786-1.005-1.573-1.748-2.36-.961-.918-2.098-1.617-3.278-2.185-2.36-1.005-5.026-1.442-7.299-1.573-1.005-.088-1.88-.088-2.666-.088z"/><path d="M180.35 15.357h143.182v134.747H180.349zm37.543 18.881v97.029h36.539s17.832.524 27.666-9.31c7.998-8.042 7.43-17.308 7.43-17.308s.568-9.659-6.862-17.089c-6.294-6.293-14.336-7.998-14.336-7.998s3.628-1.705 6.425-4.502c1.311-1.31 5.944-5.507 5.944-15.734 0-10.315-6.818-16.215-6.818-16.215s-7.517-8.873-24.475-8.873zM70.301 89.65v26.487h17.177s.35 0 .918-.044c.611 0 1.398-.044 2.403-.131 1.88-.175 4.327-.525 6.688-1.312 2.185-.743 4.283-1.835 5.9-3.452a12.02 12.02 0 0 0 1.53-1.88c1.354-2.141 1.66-4.283 1.748-5.507.044-.524.044-.83.044-.83v-.656c0-.524-.088-1.53-.35-2.578-.35-1.268-.918-2.71-2.01-4.065-.22-.262-.438-.48-.656-.743a11.38 11.38 0 0 0-1.574-1.311c-.917-.7-2.01-1.311-3.146-1.792a25.025 25.025 0 0 0-5.202-1.53c-.961-.175-2.01-.35-3.059-.437-.656-.087-1.311-.131-1.967-.175-.612 0-1.224-.044-1.835-.044zm0-40.262v25.131h8.348s.525 0 1.268-.043c.568 0 1.267-.044 1.879-.088 1.704-.13 4.065-.393 6.425-1.005.48-.175.961-.306 1.398-.48 1.88-.656 3.628-1.618 5.027-2.973a10.43 10.43 0 0 0 2.316-3.453c.568-1.442.787-2.84.874-3.802.088-.874.088-1.399.088-1.399s0-.437-.044-1.092c-.044-1.093-.262-2.841-1.136-4.59a11.718 11.718 0 0 0-1.749-2.36c-.961-.918-2.098-1.617-3.278-2.185-2.36-1.005-5.07-1.442-7.299-1.573-1.005-.088-1.88-.088-2.666-.088z"/><path d="M15.358 15.357H158.54v134.747H15.358zm37.544 18.881v97.029H89.44s17.832.524 27.666-9.31c7.999-8.042 7.43-17.308 7.43-17.308s.569-9.659-6.861-17.089c-6.294-6.293-14.38-7.998-14.38-7.998s3.671-1.705 6.469-4.502c1.31-1.31 5.944-5.507 5.944-15.734 0-10.315-6.819-16.215-6.819-16.215s-7.517-8.873-24.475-8.873z"/></g><path d="M826.564 412.605c-28.316-64.017-74.766-118.246-132.796-156.131l.437 226.047c54.971-.044 103.475-27.748 132.36-69.916" fill="#f3611f"/><path d="M694.222 633.99V859.6c57.812-37.886 104.044-91.94 132.316-155.738-28.928-42.168-77.345-69.829-132.316-69.873" fill="#ef3623"/><path d="M519.677 727.253s0 .044.043.044c80.491 2.053 146.387-62.138 146.387-142.716V240.113c-44.134-23.51-93.731-38.104-146.43-41.381z" fill="#378baa"/><path d="M519.703 728.424s-.044 0-.044.044v189.166c52.7-3.277 102.296-17.872 146.43-41.381l.044-5.157c0-80.534-65.896-144.77-146.43-142.672" fill="#53c49b"/><path d="M345.136 430.298h.043c80.885-.044 146.43-65.59 146.43-146.474v-85.735c-52.261.787-101.858 12.673-146.473 33.473z" fill="#ef249c"/><path d="M345.136 884.809c44.615 20.8 94.212 32.685 146.474 33.472V576.785c0-80.884-65.546-146.474-146.43-146.474h-.044z" fill="#d51378"/><path d="M136.891 558.187c0 133.321 72.494 249.688 180.208 311.957V680.715c-23.858-34.914-37.842-77.082-37.842-122.528s13.984-87.613 37.842-122.528V246.231C209.385 308.5 136.891 424.866 136.891 558.187" fill="#89cf25"/></g></g></svg>