<svg viewBox="0 0 2511 999" xmlns="http://www.w3.org/2000/svg"><g fill="none" fill-rule="evenodd"><g fill-rule="nonzero"><path d="M0 0h999v999H0z" fill="#26275d"/><g fill="#fff"><path d="M346.211 16.758h142.94v134.518H346.21zm90.057 18.718c-.654-.13-1.265-.218-1.963-.349l-.742-.087a42.905 42.905 0 0 0-3.316-.393c-.786-.043-1.527-.13-2.313-.174-1.352-.087-2.661-.087-3.97-.087h-1.484c-1.09 0-2.138.087-3.185.13-.567.044-1.178.088-1.745.131-.83.088-1.702.175-2.487.306l-.698.087-.786.087-.96.175c-.392.044-.829.13-1.221.218-.567.087-1.135.218-1.658.306a56.852 56.852 0 0 0-9.425 2.792c-1.483.61-2.923 1.222-4.276 1.876-1.134.567-2.269 1.135-3.316 1.745-1.003.611-1.963 1.179-2.923 1.833-.524.35-1.047.698-1.57 1.09-.437.306-.917.655-1.353.96-.873.699-1.746 1.397-2.575 2.139-.741.698-1.527 1.352-2.225 2.05-.567.611-1.178 1.222-1.745 1.877-.567.61-1.135 1.265-1.702 1.92-.567.741-1.178 1.483-1.745 2.268-.393.567-.786 1.178-1.178 1.746-.262.436-.524.829-.786 1.221a50.584 50.584 0 0 0-3.883 7.854c-1.309 3.49-2.312 7.2-2.836 11.17-.13 1.265-.262 2.53-.349 3.84-.044.96-.087 1.963-.087 3.01 0 .785 0 1.527.043 2.269.044.785.088 1.57.218 2.312l.044.524c.131.916.262 1.833.436 2.705.044.35.131.698.219 1.047.13.698.305 1.44.523 2.138.218.96.48 1.833.786 2.75.392 1.09.741 2.137 1.221 3.184a59.01 59.01 0 0 0 2.225 4.713c.48.872 1.004 1.745 1.484 2.574.393.61.829 1.265 1.265 1.876.568.829 1.135 1.57 1.702 2.313.61.785 1.222 1.527 1.833 2.225.741.872 1.527 1.658 2.268 2.4l.393.392c.61.611 1.309 1.266 2.05 1.876.524.48 1.048.917 1.659 1.397.567.436 1.134.872 1.745 1.309.698.523 1.44 1.047 2.269 1.527.873.567 1.745 1.134 2.705 1.658 1.876 1.047 3.97 2.05 6.24 3.01.872.306 1.745.655 2.705.96.872.306 1.832.611 2.792.873 1.615.48 3.36.916 5.192 1.265 1.44.262 2.967.524 4.538.698 1.57.175 3.185.35 4.887.393.785.044 1.614.087 2.443.087.393 0 .786.044 1.178.044 3.011 0 5.803-.131 8.378-.35l.48-.043a58.442 58.442 0 0 0 3.01-.305 60.107 60.107 0 0 0 4.189-.655c.829-.13 1.658-.305 2.443-.48 1.266-.261 2.4-.523 3.535-.829.829-.218 1.614-.48 2.4-.698.916-.262 1.788-.567 2.617-.829l.83-.305c.392-.131.96-.35 1.614-.611.829-.305 1.876-.742 3.054-1.222.742-.305 1.483-.654 2.269-1.003.698-.35 1.44-.698 2.181-1.047.306-.131.611-.306.917-.437v-18.369c-.175.131-.437.262-.655.393l-1.222.742c-1.265.785-2.487 1.483-3.708 2.181-1.31.698-2.618 1.396-3.927 2.007-2.269 1.047-4.407 1.964-6.545 2.705a65.179 65.179 0 0 1-10.908 2.924c-.393.043-.742.13-1.134.174-.873.131-1.746.262-2.575.35-1.265.13-2.443.218-3.534.261-.698 0-1.352.044-1.963.044-1.266 0-2.618-.044-3.97-.131a64.563 64.563 0 0 1-4.888-.567 43.111 43.111 0 0 1-7.897-2.095c-.393-.13-.785-.261-1.178-.436-.218-.087-.48-.175-.742-.305-.436-.175-.829-.35-1.265-.568-.916-.392-1.79-.872-2.662-1.352-.436-.262-.829-.524-1.265-.786a13.645 13.645 0 0 1-1.31-.872c-.566-.35-1.09-.742-1.57-1.135-.523-.392-1.047-.829-1.483-1.178l-.568-.567-.305-.262-.174-.174-.262-.218c-.786-.83-1.571-1.658-2.27-2.487-.348-.437-.74-.917-1.046-1.397-.35-.436-.655-.872-.96-1.352a21.713 21.713 0 0 1-.83-1.31c-.348-.61-.697-1.265-1.003-1.92-.262-.566-.523-1.09-.785-1.657-.35-.916-.698-1.833-1.004-2.705-.218-.698-.392-1.396-.567-2.051a33.399 33.399 0 0 1-.873-5.149 247.82 247.82 0 0 0-.13-1.614c0-.698-.044-1.353-.044-1.876 0-.306.044-.698.044-1.135.043-1.047.13-2.4.349-3.926.13-.917.305-1.877.567-2.924.174-.698.349-1.352.567-2.094.175-.655.436-1.31.698-1.964.175-.48.35-.916.567-1.396.262-.61.568-1.222.873-1.876.262-.436.524-.916.785-1.396a34.555 34.555 0 0 1 2.051-3.098c.306-.393.567-.742.873-1.135.392-.436.829-.916 1.221-1.396.219-.218.437-.48.655-.698 3.403-3.36 7.156-5.89 11.082-7.635.611-.306 1.222-.568 1.833-.786.655-.262 1.265-.48 1.876-.698a51.966 51.966 0 0 1 2.05-.61c.655-.175 1.31-.35 1.92-.48a31.668 31.668 0 0 1 1.964-.437c.698-.131 1.396-.218 2.095-.306.698-.087 1.44-.174 2.094-.218a40.882 40.882 0 0 1 3.97-.174h1.266c.96 0 1.876.043 2.792.087.611.044 1.222.087 1.833.175 1.134.087 2.269.218 3.316.392.96.131 1.876.306 2.749.48 1.309.262 2.487.567 3.577.83.699.174 1.353.392 1.92.566.916.262 1.658.48 2.27.699 1.003.349 1.57.567 1.57.567.916.305 1.789.654 2.661 1.003 1.135.48 2.27.96 3.316 1.484a46.98 46.98 0 0 1 2.531 1.178c.655.305 1.265.654 1.876.96 1.004.523 1.833.96 2.53 1.352l1.877 1.004v-18.02s-1.134-.436-3.098-1.178c-.829-.35-1.876-.698-3.01-1.135-.611-.218-1.31-.436-2.007-.698a43.787 43.787 0 0 1-1.79-.61c-.697-.219-1.396-.437-2.137-.655a17.435 17.435 0 0 0-1.615-.48l-.48-.13c-.567-.175-1.09-.306-1.658-.48-.61-.175-1.309-.35-1.963-.48-.436-.132-.873-.219-1.31-.35-.697-.13-1.439-.305-2.18-.436-.699-.175-1.484-.306-2.226-.437zM236.342 90.924v26.441h17.147s.349 0 .916-.043c.567 0 1.396-.044 2.4-.131 1.876-.175 4.32-.524 6.676-1.31 2.181-.741 4.276-1.832 5.846-3.446a10.246 10.246 0 0 0 1.571-1.876c1.353-2.138 1.658-4.276 1.745-5.498.044-.524.044-.83.044-.83v-.654c0-.523-.087-1.527-.349-2.574a10.343 10.343 0 0 0-2.007-4.058c-.218-.261-.436-.48-.655-.741-.48-.48-1.003-.917-1.57-1.31-.917-.697-2.007-1.308-3.185-1.788a23.804 23.804 0 0 0-5.15-1.527c-.959-.175-2.006-.35-3.053-.437a29.81 29.81 0 0 0-1.964-.174c-.61 0-1.221-.044-1.832-.044h-16.58M236.342 50.73V75.82h8.333s.524 0 1.266-.044c.567 0 1.265-.044 1.876-.087 1.701-.131 4.058-.393 6.457-1.004.437-.174.917-.305 1.353-.48 1.876-.654 3.621-1.614 5.018-2.967a10.412 10.412 0 0 0 2.312-3.447c.567-1.44.785-2.836.873-3.796.087-.872.087-1.396.087-1.396s0-.436-.044-1.09c-.043-1.091-.261-2.837-1.134-4.582-.393-.785-1.004-1.57-1.745-2.356-.96-.916-2.095-1.615-3.273-2.182-2.356-1.003-5.017-1.44-7.286-1.57-1.004-.088-1.876-.088-2.662-.088z"/><path d="M181.5 16.758H324.44v134.518H181.5zm37.48 18.85v96.863h36.477s17.802.523 27.619-9.294c7.985-8.028 7.417-17.278 7.417-17.278s.568-9.643-6.85-17.06c-6.283-6.284-14.311-7.985-14.311-7.985s3.621-1.702 6.414-4.494c1.309-1.31 5.934-5.498 5.934-15.708 0-10.297-6.807-16.187-6.807-16.187s-7.505-8.858-24.434-8.858zM71.64 90.924v26.441h17.147s.349 0 .916-.043c.61 0 1.396-.044 2.4-.131 1.876-.175 4.32-.524 6.675-1.31 2.182-.741 4.276-1.832 5.89-3.446.611-.611 1.091-1.222 1.528-1.876 1.352-2.138 1.658-4.276 1.745-5.498.044-.524.044-.83.044-.83v-.654c0-.523-.088-1.527-.35-2.574-.348-1.265-.916-2.705-2.006-4.058-.219-.261-.437-.48-.655-.741-.48-.48-1.003-.917-1.57-1.31-.917-.697-2.008-1.308-3.142-1.788a24.983 24.983 0 0 0-5.192-1.527c-.96-.175-2.007-.35-3.055-.437a29.81 29.81 0 0 0-1.963-.174c-.61 0-1.222-.044-1.833-.044H71.64M71.64 50.73V75.82h8.333s.523 0 1.265-.044c.567 0 1.266-.044 1.876-.087 1.702-.131 4.058-.393 6.414-1.004.48-.174.96-.305 1.397-.48 1.876-.654 3.621-1.614 5.017-2.967a10.412 10.412 0 0 0 2.313-3.447c.567-1.44.785-2.836.872-3.796.088-.872.088-1.396.088-1.396s0-.436-.044-1.09c-.044-1.091-.262-2.837-1.134-4.582a11.698 11.698 0 0 0-1.746-2.356c-.96-.916-2.094-1.615-3.272-2.182-2.356-1.003-5.061-1.44-7.287-1.57-1.003-.088-1.876-.088-2.661-.088z"/><path d="M16.79 16.758h142.938v134.518H16.789zm37.48 18.85v96.863h36.476s17.802.523 27.619-9.294c7.984-8.028 7.417-17.278 7.417-17.278s.567-9.643-6.85-17.06c-6.283-6.284-14.355-7.985-14.355-7.985s3.665-1.702 6.458-4.494c1.309-1.31 5.934-5.498 5.934-15.708 0-10.297-6.807-16.187-6.807-16.187s-7.505-8.858-24.434-8.858z"/></g><path d="M826.33 413.723c-28.274-63.921-74.654-118.068-132.598-155.897l.437 225.708c54.889-.043 103.32-27.706 132.161-69.811" fill="#f3611f"/><path d="M694.186 634.776V860.05c57.725-37.83 103.888-91.802 132.118-155.505-28.885-42.105-77.229-69.724-132.118-69.768" fill="#ef3623"/><path d="M519.902 727.9s0 .044.044.044c80.37 2.05 146.167-62.045 146.167-142.503V241.49c-44.068-23.474-93.59-38.047-146.211-41.32z" fill="#378baa"/><path d="M519.928 729.07s-.043 0-.043.043v188.883c52.62-3.272 102.142-17.845 146.21-41.32l.044-5.148c0-80.414-65.797-144.553-146.21-142.459" fill="#53c49b"/><path d="M345.622 431.39h.044c80.763-.044 146.211-65.492 146.211-146.255v-85.606c-52.184.785-101.706 12.653-146.255 33.422z" fill="#ef249c"/><path d="M345.622 885.22c44.549 20.769 94.071 32.637 146.255 33.422V577.657c0-80.763-65.448-146.254-146.211-146.254h-.044z" fill="#d51378"/><path d="M137.69 559.088c0 133.121 72.385 249.313 179.938 311.489V681.432c-23.823-34.862-37.785-76.967-37.785-122.344s13.962-87.483 37.785-122.345V247.598C210.075 309.774 137.69 425.966 137.69 559.088" fill="#89cf25"/></g><g fill="#000" fill-rule="nonzero"><path d="M1942.174 588.727h133.032V713.93h-133.032zm83.808 17.42c-.567-.114-1.163-.199-1.787-.312l-.71-.085c-1.02-.142-2.07-.256-3.092-.37-.71-.056-1.418-.113-2.128-.141a54.475 54.475 0 0 0-3.688-.113h-1.419c-.993.028-1.986.085-2.95.141-.54.029-1.078.086-1.617.114-.795.085-1.56.17-2.327.255l-.652.085-.71.114-.907.142c-.37.056-.766.142-1.135.198-.511.085-1.05.199-1.56.312a54.719 54.719 0 0 0-8.767 2.61 51.426 51.426 0 0 0-4 1.731c-1.05.51-2.072 1.05-3.036 1.617-.937.568-1.873 1.107-2.752 1.703-.483.34-.993.68-1.476 1.021a33.87 33.87 0 0 0-1.22.908c-.822.652-1.645 1.305-2.411 1.986-.71.624-1.419 1.248-2.043 1.9-.567.568-1.106 1.136-1.646 1.703-.539.596-1.078 1.22-1.56 1.844-.567.681-1.106 1.39-1.617 2.1-.397.539-.766 1.078-1.135 1.645-.255.37-.482.738-.71 1.135a43.586 43.586 0 0 0-3.602 7.292 44.574 44.574 0 0 0-2.639 10.384 48.397 48.397 0 0 0-.369 3.546c-.028.936-.085 1.873-.085 2.837 0 .71 0 1.419.057 2.1.057.737.113 1.447.198 2.156l.029.51c.113.852.255 1.675.425 2.497.057.312.114.653.17.965.17.68.313 1.362.511 2.014.227.88.454 1.703.738 2.554.34.993.71 1.986 1.106 2.95a48.55 48.55 0 0 0 2.128 4.398c.426.823.88 1.617 1.362 2.355.369.624.766 1.192 1.163 1.759.511.766 1.05 1.475 1.59 2.185.567.709 1.162 1.39 1.701 2.042.71.823 1.447 1.56 2.128 2.242l.37.368a29.58 29.58 0 0 0 1.9 1.76c.482.425.993.85 1.532 1.276.51.397 1.05.823 1.617 1.22.653.483 1.362.965 2.128 1.447.794.51 1.617 1.022 2.497 1.532a53.503 53.503 0 0 0 5.844 2.78c.795.313 1.617.625 2.468.909a56.59 56.59 0 0 0 2.61.822c1.533.454 3.15.823 4.824 1.164 1.362.255 2.78.482 4.255.652 1.447.17 2.951.312 4.511.397.766.029 1.532.057 2.327.085h1.078c2.809 0 5.39-.113 7.774-.312l.482-.028c.965-.085 1.872-.199 2.78-.312a71.436 71.436 0 0 0 3.916-.596c.794-.142 1.532-.284 2.27-.426a70.456 70.456 0 0 0 3.29-.794c.766-.199 1.504-.425 2.213-.624.851-.284 1.674-.54 2.469-.823l.737-.255c.397-.142.908-.312 1.504-.568.794-.312 1.759-.68 2.865-1.163.653-.284 1.362-.596 2.1-.936.652-.284 1.333-.624 2.014-.936.284-.142.596-.284.88-.454v-17.052c-.199.114-.397.256-.596.37l-1.192.708a87.433 87.433 0 0 1-3.404 1.986 110.892 110.892 0 0 1-3.66 1.845 65.59 65.59 0 0 1-6.1 2.553 62.252 62.252 0 0 1-10.157 2.724c-.34.056-.71.113-1.05.17-.822.113-1.617.227-2.383.312a50.818 50.818 0 0 1-3.29.227c-.653.028-1.25.057-1.817.057-1.22 0-2.468-.029-3.716-.142a41.932 41.932 0 0 1-4.54-.51 43.496 43.496 0 0 1-7.376-1.93c-.34-.114-.71-.284-1.078-.397-.227-.114-.454-.199-.681-.312a10.75 10.75 0 0 1-1.192-.511 40.592 40.592 0 0 1-2.468-1.277c-.397-.227-.794-.454-1.22-.737-.397-.256-.794-.511-1.192-.795-.51-.34-.993-.68-1.475-1.078a27.47 27.47 0 0 1-1.333-1.078l-.568-.51-.283-.284-.17-.142-.2-.199a30.841 30.841 0 0 1-3.12-3.603 34.293 34.293 0 0 1-.88-1.277l-.766-1.191c-.34-.596-.652-1.22-.964-1.816a22.71 22.71 0 0 1-.681-1.504c-.369-.88-.681-1.759-.965-2.553a32.207 32.207 0 0 1-.51-1.901 32.706 32.706 0 0 1-.823-4.795c-.057-.54-.085-1.021-.114-1.504-.028-.68-.028-1.276-.028-1.73 0-.312 0-.681.028-1.078a33.01 33.01 0 0 1 .312-3.632c.114-.851.284-1.76.511-2.724.17-.652.34-1.276.54-1.957.198-.625.425-1.22.652-1.844l.51-1.277c.256-.568.54-1.163.851-1.73.227-.455.454-.88.71-1.334.567-.965 1.22-1.93 1.929-2.894.255-.34.54-.681.823-1.022.34-.454.737-.88 1.135-1.305.198-.227.397-.454.595-.652 3.15-3.15 6.668-5.476 10.3-7.15a31.512 31.512 0 0 1 1.73-.71 31.074 31.074 0 0 1 1.73-.623 24.439 24.439 0 0 1 1.901-.596c.596-.17 1.192-.312 1.816-.454.596-.142 1.192-.255 1.787-.369a48.071 48.071 0 0 1 1.986-.312 45.727 45.727 0 0 1 1.958-.199 40.425 40.425 0 0 1 3.66-.17h1.192c.88.029 1.73.057 2.581.114a35.55 35.55 0 0 1 1.731.142c1.05.085 2.1.226 3.092.368.88.142 1.731.284 2.525.454 1.22.227 2.327.511 3.348.766.653.17 1.249.37 1.788.511.822.255 1.532.482 2.1.653.935.34 1.446.539 1.446.539.851.283 1.674.624 2.468.936 1.107.425 2.128.908 3.121 1.362.823.369 1.617.766 2.355 1.106.624.312 1.163.596 1.702.88.937.482 1.73.936 2.383 1.276l1.731.937v-16.768s-1.05-.425-2.837-1.106a87.374 87.374 0 0 0-2.809-1.022 47.309 47.309 0 0 0-1.9-.68c-.54-.17-1.079-.37-1.646-.54-.653-.198-1.305-.425-1.986-.652-.482-.142-.993-.284-1.504-.426l-.454-.142-1.532-.425c-.596-.17-1.22-.312-1.844-.483-.397-.085-.794-.17-1.22-.283-.652-.142-1.333-.284-2.014-.426a45.91 45.91 0 0 0-2.1-.397zM1839.944 657.754v24.599h15.973s.312 0 .85-.029c.54 0 1.306-.028 2.214-.113 1.73-.17 4.028-.483 6.241-1.249 1.986-.652 3.944-1.674 5.448-3.177a9.894 9.894 0 0 0 1.418-1.76c1.277-1.985 1.59-4 1.646-5.134.028-.483.028-.767.028-.767s.029-.227 0-.595c0-.483-.057-1.419-.312-2.384a10.186 10.186 0 0 0-1.872-3.773c-.199-.227-.398-.482-.625-.68a9.93 9.93 0 0 0-1.418-1.25c-.88-.652-1.873-1.19-2.98-1.673-1.418-.624-3.035-1.078-4.794-1.419a29.697 29.697 0 0 0-2.837-.397c-.624-.057-1.22-.085-1.844-.142a33.003 33.003 0 0 0-1.702-.057h-15.434M1839.944 620.352v23.322h7.745s.51 0 1.192-.029c.539 0 1.163-.056 1.73-.056 1.589-.142 3.802-.37 6.015-.965.426-.114.851-.255 1.277-.426 1.73-.595 3.376-1.503 4.653-2.752 1.05-1.021 1.702-2.128 2.156-3.234.539-1.334.737-2.61.823-3.518.056-.795.056-1.305.056-1.305s.029-.397 0-.993c-.056-1.022-.283-2.667-1.078-4.256a8.298 8.298 0 0 0-1.645-2.213c-.852-.851-1.901-1.532-3.036-2.014-2.185-.965-4.681-1.334-6.78-1.476-.909-.085-1.76-.085-2.44-.085z"/><path d="M1788.912 588.727h133.033V713.93h-133.033zm34.897 17.533v90.165h33.932s16.54.454 25.676-8.682c7.462-7.433 6.922-16.03 6.922-16.03s.54-8.993-6.355-15.888c-5.873-5.872-13.363-7.433-13.363-7.433s3.377-1.589 5.987-4.17c1.22-1.22 5.532-5.136 5.532-14.64 0-9.561-6.355-15.065-6.355-15.065s-6.98-8.257-22.725-8.257zM1951.275 265.33c.284-4.283.37-7.49.37-7.49.368-7.972.737-16.313 1.446-22.27 1.39-13.62 6.61-34.728 6.61-34.728 3.036-12.824 7.122-22.527 10.697-29.364 2.638-4.994 4.936-8.37 6.298-10.186 11.349-18.243 29.988-30.073 53.962-30.073 35.918 0 64.431 28.4 64.715 63.75.425 10.356-2.043 21.393-8.341 32.826-13.136 23.804-17.335 28.457-18.044 29.507-9.05 14.498-13.448 21.165-16.172 26.215-1.73 3.15-2.468 5.249-5.078 13.363l-.454 1.362 1.418-.284c24.882-5.164 78.22-1.163 91.781 48.288 1.05 3.519 2.383 9.533 3.291 15.86l.17 2.894c2.043 15.406.398 39.522-8.965 65.311-.965 2.128-5.022 10.867-9.816 19.52-4.398 7.916-11.377 19.548-19.236 26.896-.028.029-3.036 3.774-9.22 9.108-6.3 5.418-15.576 12.17-27.407 17.448-55.693 25.137-134.707 7.462-156.042-57.51-10.355-26.555-10.582-51.267-8.228-69.197 1.958-15.122 5.76-25.847 7.263-29.62 2.128-6.866 5.93-14.271 8.427-18.952a220.083 220.083 0 0 1 5.93-10.243c6.695-10.27 12.51-18.214 16.823-24.91 3.916-6.071 5.25-9.192 5.788-11.604 1.078-4.624 1.674-11.008 2.014-15.916"/></g><g fill="#000"><path d="M1370.37 474.517c-2.977 0-20.216 41.84-20.216 41.84s28.467 26.92 29.97 29.921c1.503 2.973 33.655-36.687 33.655-44.132s-40.432-27.629-43.409-27.629M2443.723 703.304c-38.532 41.245-100.88 38.5-139.64 2.406-26.368-24.543-29.572-60.013-3.487-87.953 4.423-4.728 11.341-10.333 19.875-13.333 2.325-.793 4.906-1.444 7.656-1.784l.907-.113-.198-.906c-5.33-24.968 10.944-52.455 20.527-62.703 38.56-41.273 101.108-38.272 139.64-2.406 26.624 24.798 29.488 60.098 3.46 87.954-4.424 4.727-11.314 10.36-19.848 13.333a37.804 37.804 0 0 1-7.599 1.783l-.907.114.198.905c5.416 25.053-11.057 52.512-20.584 62.703"/></g><path d="M2428.711 690.355c12.611-13.528 24.06-42.343 8.02-57.317-10.57-9.87-20.858-13.216-30.975-22.689-8.445-7.884-8.473-18.86-1.984-25.836 6.093-6.552 18.308-14.152 26.328-6.665 10.967 10.267 11.846 29.24 22.614 39.28 7.822 7.317 18.818.567 24.712-5.758 17.94-19.228 16.324-41.661-2.465-59.217-31.258-29.154-80.739-30.686-110.665 1.418-12.611 13.528-23.862 42.541-8.02 57.317 10.769 10.068 26.129 12.99 33.44 25.525 5.895 10.153 4.733 15.598-.283 23.199-5.073 7.742-18.506 13.953-26.526 6.466-10.769-10.068-11.647-29.041-22.615-39.28-7.821-7.288-18.817-.567-24.74 5.758-17.91 19.228-16.097 41.86 2.494 59.217 31.457 29.353 80.739 30.714 110.665-1.418" fill="#ffe400"/><path d="M2232.773 285.45c14.991 3.46 30.408 13.64 37.974 25.75 17.514 28.05-22.813 93.222-63.423 77.567-30.408-11.741-36.133-44.1-25.76-75.212 9.125-27.368 33.497-32.19 51.209-28.106" fill="#000"/><path d="M2230.957 420.605c-5.895 33.947-39.052 92.966-84.791 88.598-23.862-2.269-76.573-26.403-35.453-83.947 6.178-8.679 12.13-14.946 18.619-20.874 5.668-5.133 12.1-10.295 20.461-17.555 32.08-27.935 93.831-39.024 81.164 33.778" fill="#000"/><path d="M2203.425 320.855c-8.502 25.524-1.587 41.066 12.186 46.37 16.55 6.409 43.33-31.424 35.594-43.818-7.737-12.365-39.278-28.077-47.78-2.552" fill="#ffe400"/><path d="M2283.951 599.24c-73.342-14.265-100.151-74.673-89.977-126.97 12.922-66.591 71.925-89.819 124.636-79.552 28.934 6.353 68.184 36.33 56.99 93.93-1.813 9.416-7.85 21.27-15.586 30.403a66.764 66.764 0 0 1-7.255 7.26l-8.445 7.147 1.502 11.004.17 1.503c.822 9.728-1.219 20.874-5.923 29.439-5.441 9.87-9.352 15.853-15.02 19.966-11.279 8.253-25.392 8.933-41.092 5.87" fill="#000"/><path d="M2314.365 412.486c-44.465-8.65-90.233 10.55-100.548 63.64-8.275 42.542 12.753 91.35 73.994 103.262 26.695 5.19 29.274-6.21 34.545-15.74 5.243-9.53 5.697-28.503-4.902-30.204-10.6-1.674-21.368 1.645-32.619-.54-17.258-3.374-35.396-40.3-16.323-36.584 10.74 2.098 30.124 13.67 54.1 18.32 16.55 3.234 31.06-21.1 33.157-31.848 8.671-44.725-20.773-65.91-41.404-70.306" fill="#ffe400"/><path d="M2279.445 444.17c-6.971 10.493-5.327 31.707 8.842 33.522 14.17 1.843 40.469-12.904 29.927-29.268-9.976-15.542-28.198-20.136-38.769-4.255" fill="#462682"/><path d="M1765.696 398.189c-1.616-2.553-6.773-13.245-6.773-13.245-7.085-16.165-10.287-33.834-9.664-51.276 2.494-71.78 60.25-105.87 117.24-103.885 31.088 1.843 76.97 26.489 74.787 88.514-.34 9.983-4.647 23.312-11.194 34.118a67.266 67.266 0 0 1-7.17 9.642l-7.793 8.707 3.656 11.06c.312.936.567 1.759.737 2.44 2.493 9.982 2.182 21.894-1.276 31.537-3.996 11.089-7.028 17.924-12.214 23.17-10.145 10.182-24.513 13.273-41.489 12.677-44.209-1.56-76.204-20.731-94.965-46.965 0 0-2.267-3.942-3.882-6.494" fill="#000" fill-rule="nonzero"/><path d="M1765.696 398.189c-1.616-2.553-6.773-13.245-6.773-13.245-7.085-16.165-10.287-33.834-9.664-51.276 2.494-71.78 60.25-105.87 117.24-103.885 31.088 1.843 76.97 26.489 74.787 88.514-.34 9.983-4.647 23.312-11.194 34.118a67.266 67.266 0 0 1-7.17 9.642l-7.793 8.707 3.656 11.06c.312.936.567 1.759.737 2.44 2.493 9.982 2.182 21.894-1.276 31.537-3.996 11.089-7.028 17.924-12.214 23.17-10.145 10.182-24.513 13.273-41.489 12.677-44.209-1.56-76.204-20.731-94.965-46.965 0 0-2.267-3.942-3.882-6.494z" stroke="#000" stroke-width=".612"/><path d="M1644.146 430.075c-2.948-.71-14.085-4.822-14.085-4.822-16.295-6.721-30.862-17.186-42.537-30.147-48.035-53.403-30.125-118.066 12.242-156.267 23.635-20.278 73.74-34.43 115.228 11.684 6.688 7.43 12.866 20.023 15.615 32.331a67.956 67.956 0 0 1 1.587 11.94l.425 11.656 10.315 5.417c.85.482 1.587.908 2.21 1.277 8.701 5.416 16.778 14.208 20.944 23.539 4.846 10.777 7.396 17.782 7.311 25.156-.226 14.379-8.417 26.602-21.056 37.975-32.873 29.637-69.176 38.06-100.888 32.217 0 0-4.364-1.247-7.311-1.956" fill="#000" fill-rule="nonzero"/><path d="M1644.146 430.075c-2.948-.71-14.085-4.822-14.085-4.822-16.295-6.721-30.862-17.186-42.537-30.147-48.035-53.403-30.125-118.066 12.242-156.267 23.635-20.278 73.74-34.43 115.228 11.684 6.688 7.43 12.866 20.023 15.615 32.331a67.956 67.956 0 0 1 1.587 11.94l.425 11.656 10.315 5.417c.85.482 1.587.908 2.21 1.277 8.701 5.416 16.778 14.208 20.944 23.539 4.846 10.777 7.396 17.782 7.311 25.156-.226 14.379-8.417 26.602-21.056 37.975-32.873 29.637-69.176 38.06-100.888 32.217 0 0-4.364-1.247-7.311-1.956z" stroke="#000" stroke-width=".612"/><path d="M1865.4 249.979c-48.631-1.702-93.917 26.375-95.958 84.401-1.615 46.511 28.878 94.696 95.787 97.05 29.218 1.021 30.04-11.486 34.007-22.49 3.94-11.004 1.276-31.197-10.259-31.197s-22.388 5.304-34.687 4.878c-18.874-.652-44.294-36.755-23.436-36.018 11.732.397 34.233 9.416 60.447 10.324 18.08.624 29.388-27.624 29.785-39.337 1.7-48.893-33.072-66.42-55.687-67.611" fill="#ffe400"/><path d="M1838.273 306.36c-4.223 12.648 13.914 25.553 27.517 25.099 13.603-.426 29.898-5.814 28.453-23.511-2.409-29.779-49.396-21.27-55.97-1.588" fill="#462682"/><path d="M1581.154 557.372c-49.872 23.95-168.261 41.785-219.975-83.6-50.75-123.063 16.775-169.321 61.093-191.856 42.023-21.402 112.836-22.79 137.007 9.88 8.104 10.984 8.67 23.554 7.565 33.066-1.105 9.512-4.222 19.024-6.942 26.612l-10.4 28.48 25.928 3.255c1.899.255 3.712.481 5.044.708 9.805 1.613 22.64 3.878 34.712 9.399 12.723 5.831 24.681 15.259 33.04 30.688 34.968 64.546-23.745 112.56-67.072 133.368" fill="#000"/><path d="M1260.956 531.205c3.655 16.25 10.994 32.897 18.673 42.295 18.73 22.96 34.372 26.612 51.318 20.723.595-.622 2.607-2.576 3.513-4.614 1.984-4.36 3.457-10.588 4.76-18.996 1.39-8.861 2.381-18.034 3.826-26.187 1.077-5.86 2.607-12.91 5.526-19.477-15.132 14.438-37.234 23.95-59.053 20.128-13.063-2.293-22.131-7.615-28.563-13.872m100.849-23.242c12.865-9.427 28.761-7.078 42.25.764 13.601 7.87 27.968 22.535 41.569 36.945 24.426 25.903 14.678 59.592 4.562 80.4-11.136 22.931-28.846 43.965-41.144 55.148-5.724 5.209-14.877 14.381-27.005 23.44-12.666 9.484-29.215 19.393-49.277 24.602-42.278 11.04-93.878-.397-149.304-60.697-114.876-124.988-33.834-230.33 4.448-267.642 24.653-23.978 53.981-25.479 81.808-15.882 26.07 8.974 51.742 27.829 73.901 45.664 29.98 24.12 30.518 54.836 18.192 77.258" fill="#000"/><path d="M1291.599 525.178c35.449 6.228 84.386-43.484 40.153-79.041-44.234-35.586-92.207-66.444-129.356-30.235-37.177 36.208-106.715 128.442-4.647 239.502 102.067 111.088 175.487 30.206 197.278 10.39 21.79-19.818 64.72-76.834 36.497-106.757-28.223-29.896-48.597-48.24-61.972-29.414-13.374 18.854-4.278 74.511-30.915 83.769-26.608 9.229-51.062.566-74.156-27.716-23.094-28.281-36.866-92.347-14.82-97.924 22.046-5.549 6.49 31.198 41.938 37.426M1613.486 253.78c-36.155 32.61-49.245 84.322-10.456 127.518 31.112 34.598 86.506 48.079 136.261 3.208 21.704-19.584 13.63-29.148 8.84-39.82-4.788-10.7-20.74-23.358-29.014-15.326-8.302 8.004-12.41 19.385-21.563 27.644-14.025 12.658-57.377 4.342-41.878-9.65 8.727-7.862 31.168-17.029 50.662-34.597 13.43-12.119 1.955-40.33-5.893-49.072-32.698-36.357-69.873-24.777-86.96-9.905" fill="#ffe400"/><path d="M1618.37 315.229c5.356 12.431 28.987 7.493 39.726-3.491 10.71-10.984 20.202-27.644 6.771-39.252-22.667-19.555-54.827 23.443-46.496 42.743" fill="#462682"/><path d="M2161.649 402.743c31.054-27.047 52.702-19.242 47.007 13.652-5.724 32.922-34.597 72.089-59.9 69.648-18.927-1.816-43.04-13.793-18.899-47.624 10.144-14.22 15.414-21.428 31.792-35.676" fill="#ffe400"/><path d="M1934.085 354.205c2.493-9.139 12.099-24.635 12.099-24.635 13.487-20.634 22.667-31.106 25.5-43.51 3.146-13.736 2.55-19.781 2.55-19.781.454-9.366.766-20.719 1.673-28.155 1.161-12.317 6.092-32.07 6.092-32.07 5.185-22.11 13.713-32.27 13.713-32.27 7.537-12.772 19.466-20.52 35.617-20.52 23.886 0 42.445 18.817 42.445 42.061.283 6.13-1.02 13.254-5.61 21.542-12.496 22.733-16.52 27.16-17.17 28.154-19.212 30.823-18.362 28.126-23.887 45.326-2.323 6.442-3.853 12.062-2.607 17.624 2.069 9.452 9.974 13.141 15.953 13.482 2.408.17 5.582-.256 9.152-1.022 1.161-.255 2.437-.596 3.768-.738 20.996-4.768 57.633.34 66.303 32.525.822 2.782 1.813 6.812 2.55 11.892l.142 3.009c1.672 11.636.963 31.588-7.367 54.634-1.7 3.69-13.657 29.262-23.66 38.656l-.651.596s-3.202 3.86-7.877 7.89c-5.1 4.37-12.552 9.792-21.96 13.992-47.913 21.74-110.22 4.257-125.861-44.7-17.794-44.957-.907-83.982-.907-83.982" fill="#ffe400" fill-rule="nonzero"/><path d="M2072.315 415.129c-12.92 13.481-41.737 28.013-60.636 9.905-18.87-18.079-21.052-59.828-1.105-64.227 19.948-4.428 100.304 14.105 61.741 54.322" fill="#462682"/><path d="M1432.677 299.922c-39.271 20.038-96.11 56.65-51.257 165.72 44.882 109.042 146.32 94.681 191.57 72.884 43.352-20.86 82.595-58.835 57.746-104.813-23.603-43.707-84.38-17.454-98.264-52.761-6.092-15.411 25.529-57.473 10.88-77.34-14.649-19.839-71.403-23.727-110.675-3.69" fill="#ffe400"/><path d="M1475.369 396.547c16.547-19.072 12.779-58.58-7.792-63.943-29.412-7.635-51.37 33.944-43.295 47.539 8.075 13.566 34.54 35.477 51.087 16.404M1550.807 471.423c-5.95 16.49-25.105 39.962-48.17 31.674-23.063-8.315-40.83-43.225-25.415-54.634 15.414-11.41 91.322-26.225 73.585 22.96" fill="#462682"/><g fill="#000" fill-rule="nonzero"><path d="M1687.77 657.734v24.607h15.952s.312 0 .85-.028c.539 0 1.304-.029 2.21-.114 1.729-.17 4.024-.482 6.234-1.249 1.983-.652 3.939-1.674 5.44-3.178a9.895 9.895 0 0 0 1.417-1.76 10.65 10.65 0 0 0 1.643-5.137c.029-.483.029-.766.029-.766s.028-.227 0-.596c0-.483-.057-1.42-.312-2.384a10.197 10.197 0 0 0-1.87-3.775c-.198-.227-.397-.483-.623-.681a9.923 9.923 0 0 0-1.417-1.25c-.878-.652-1.87-1.191-2.975-1.674-1.417-.624-3.032-1.078-4.789-1.419-.906-.17-1.87-.312-2.833-.397-.624-.057-1.219-.085-1.842-.142a32.906 32.906 0 0 0-1.7-.057h-15.414M1687.77 620.319v23.33h7.735s.51 0 1.19-.029c.539 0 1.162-.057 1.729-.057 1.587-.142 3.797-.369 6.007-.965.425-.113.85-.255 1.275-.425 1.728-.596 3.372-1.505 4.647-2.753 1.048-1.022 1.7-2.129 2.153-3.236.538-1.334.737-2.611.822-3.52.056-.794.056-1.305.056-1.305s.029-.397 0-.993c-.056-1.022-.283-2.668-1.076-4.257a8.3 8.3 0 0 0-1.644-2.214c-.85-.852-1.898-1.533-3.031-2.015-2.182-.965-4.676-1.334-6.772-1.476-.907-.085-1.729-.085-2.437-.085z"/><path d="M1636.802 588.682h132.86V713.93h-132.86zm34.852 17.54v90.197h33.888s16.519.454 25.642-8.685c7.452-7.436 6.914-16.036 6.914-16.036s.538-8.997-6.347-15.893c-5.865-5.875-13.345-7.436-13.345-7.436s3.371-1.59 5.978-4.172c1.219-1.22 5.525-5.138 5.525-14.645 0-9.565-6.347-15.071-6.347-15.071s-6.97-8.259-22.695-8.259z"/></g></g></svg>