<svg viewBox="0 0 2511 999" xmlns="http://www.w3.org/2000/svg"><g fill="none" fill-rule="evenodd" transform="translate(-7 -3)"><g fill-rule="nonzero" transform="matrix(1 0 0 -1 .184331 1002.57788)"><path d="m6.815669 999.57788h998.999981v-998.99999h-998.999981z" fill="#26275d"/><g transform="translate(0 41.632075)"><g fill="#fff"><path d="m353.027119 941.18749h142.938678v-134.517687h-142.938678zm90.056603-18.71816c-.654481.130896-1.265331.21816-1.963444.349056l-.741745.087264c-1.090802.174529-2.225236.305425-3.316038.392689-.785377.043632-1.527122.130896-2.3125.174528-1.352594.087265-2.661556.087265-3.970519.087265-.567216 0-.916273 0-1.48349 0-1.090802 0-2.137972-.087265-3.185142-.130897-.567217-.043632-1.178066-.087264-1.745283-.130896-.829009-.087264-1.70165-.174528-2.487028-.305424l-.698113-.087265-.785377-.087264-.959906-.174528c-.392689-.043632-.829009-.130896-1.221698-.21816-.567217-.087265-1.134434-.218161-1.658019-.305425-3.403302-.698113-6.544811-1.658019-9.424528-2.792453-1.483491-.610849-2.923349-1.221698-4.275944-1.876179-1.134433-.567217-2.268867-1.134434-3.316037-1.745283-1.003538-.610849-1.963444-1.178066-2.923349-1.832547-.523585-.349057-1.04717-.698113-1.570755-1.090802-.436321-.305425-.916274-.654481-1.352594-.959906-.872642-.698113-1.745283-1.396226-2.574293-2.137971-.741745-.698114-1.527122-1.352595-2.225236-2.050708-.567217-.610849-1.178066-1.221698-1.745283-1.876179-.567217-.610849-1.134433-1.26533-1.70165-1.919811-.567217-.741746-1.178066-1.483491-1.745283-2.268868-.392689-.567217-.785378-1.178066-1.178066-1.745283-.261793-.436321-.523585-.82901-.785378-1.221698-1.48349-2.443397-2.792453-5.061321-3.883255-7.853774-1.308962-3.490566-2.312499-7.199292-2.836084-11.169811-.130897-1.26533-.261793-2.53066-.349057-3.839623-.043632-.959905-.087264-1.963443-.087264-3.010613 0-.785377 0-1.527122.043632-2.268868.043632-.785377.087264-1.570754.21816-2.3125l.043632-.523585c.130897-.916273.261793-1.832547.436321-2.705188.043632-.349057.130896-.698113.218161-1.04717.130896-.698113.305424-1.439859.523584-2.137972.218161-.959905.479953-1.832547.785378-2.74882.392688-1.090802.741745-2.137972 1.221698-3.185142.698113-1.658019 1.439858-3.228773 2.225236-4.712264.479953-.872642 1.003537-1.745283 1.48349-2.574292.392689-.61085.82901-1.265331 1.26533-1.87618.567217-.829009 1.134434-1.570754 1.701651-2.3125.610849-.785377 1.221698-1.527122 1.832547-2.225235.741746-.872642 1.527123-1.658019 2.268868-2.399765l.392689-.392688c.610849-.610849 1.308962-1.26533 2.050708-1.87618.523584-.479952 1.047169-.916273 1.658018-1.396226.567217-.436321 1.134434-.872641 1.745283-1.308962.698114-.523585 1.439859-1.04717 2.268868-1.527123.872642-.567217 1.745283-1.134434 2.705189-1.658019 1.876179-1.047169 3.970519-2.050707 6.239387-3.010613.872641-.305424 1.745283-.654481 2.705188-.959905.872642-.305425 1.832548-.61085 2.792453-.872642 1.614387-.479953 3.35967-.916274 5.192217-1.26533 1.439859-.261793 2.966981-.523585 4.537736-.698113 1.570755-.174529 3.185141-.349057 4.886792-.392689.785378-.043632 1.614387-.087264 2.443396-.087264.392689 0 .785378-.043632 1.178067-.043632 3.010613 0 5.803065.130896 8.377358.349056l.479953.043632c1.04717.087265 2.050707.174529 3.010613.305425 1.439858.174528 2.836085.392689 4.188679.654481.82901.130896 1.658019.305425 2.443396.479953 1.26533.261792 2.399764.523585 3.534198.829009.82901.218161 1.614387.479953 2.399765.698114.916273.261792 1.788915.567217 2.617924.829009l.829009.305424c.392689.130897.959906.349057 1.614387.61085.82901.305424 1.876179.741745 3.054245 1.221698.741746.305424 1.483491.654481 2.268868 1.003537.698114.349057 1.439859.698114 2.181604 1.04717.305425.130896.610849.305425.916274.436321v18.369103c-.174529-.130896-.436321-.261792-.654481-.392688l-1.221699-.741745c-1.26533-.785378-2.487028-1.483491-3.708726-2.181604-1.308962-.698113-2.617924-1.396227-3.926887-2.007076-2.268868-1.047169-4.406839-1.963443-6.544811-2.705188-3.970519-1.439859-7.679245-2.356132-10.908019-2.923349-.392688-.043632-.741745-.130897-1.134434-.174529-.872641-.130896-1.745283-.261792-2.574292-.349056-1.26533-.130896-2.443396-.218161-3.534198-.261793-.698113 0-1.352594-.043632-1.963443-.043632-1.265331 0-2.617925.043632-3.970519.130896-1.614387.130897-3.228774.305425-4.886793.567217-2.617924.436321-5.323113 1.134434-7.897405 2.09434-.392689.130896-.785378.261792-1.178066.436321-.218161.087264-.479953.174528-.741746.305424-.43632.174529-.829009.349057-1.26533.567217-.916273.392689-1.788915.872642-2.661556 1.352595-.436321.261792-.82901.523585-1.26533.785377-.436321.261792-.916274.567217-1.308963.872641-.567217.349057-1.090802.741746-1.570754 1.134434-.523585.392689-1.04717.82901-1.483491 1.178066l-.567217.567217-.305424.261793-.174529.174528-.261792.218161c-.785378.829009-1.570755 1.658018-2.268868 2.487028-.349057.436321-.741745.916273-1.04717 1.396226-.349057.436321-.654481.872642-.959906 1.352595-.305424.43632-.567217.872641-.829009 1.308962-.349057.610849-.698113 1.26533-1.003538 1.919811-.261792.567217-.523585 1.090802-.785377 1.658019-.349057.916274-.698113 1.832547-1.003538 2.705189-.21816.698113-.392688 1.396226-.567217 2.050707-.479953 1.919811-.741745 3.665094-.872641 5.148585-.043632.567217-.087264 1.090802-.130897 1.614387 0 .698113-.043632 1.352594-.043632 1.876179 0 .305424.043632.698113.043632 1.134434.043633 1.04717.130897 2.399764.349057 3.926887.130896.916273.305425 1.876179.567217 2.923349.174528.698113.349057 1.352594.567217 2.094339.174528.654481.436321 1.308963.698113 1.963444.174529.479952.349057.916273.567217 1.396226.261793.610849.567217 1.221698.872642 1.876179.261792.436321.523585.916274.785377 1.396227.610849 1.047169 1.308962 2.094339 2.050708 3.097877.305424.392689.567217.741745.872641 1.134434.392689.436321.82901.916274 1.221698 1.396226.218161.218161.436321.479953.654481.698114 3.403302 3.359669 7.155661 5.89033 11.082547 7.635613.610849.305424 1.221698.567217 1.832548.785377.654481.261792 1.26533.479953 1.876179.698113.698113.218161 1.396226.436321 2.050707.610849.654481.174529 1.308963.349057 1.919812.479953.654481.174528 1.308962.305425 1.963443.436321.698113.130896 1.396226.21816 2.09434.305424.698113.087265 1.439858.174529 2.094339.218161 1.352594.130896 2.661557.174528 3.970519.174528h1.26533c.959906 0 1.876179-.043632 2.792453-.087264.610849-.043632 1.221698-.087264 1.832547-.174528 1.134434-.087265 2.268868-.218161 3.316038-.392689.959905-.130896 1.876179-.305425 2.748821-.479953 1.308962-.261792 2.487028-.567217 3.57783-.829009.698113-.174529 1.352594-.392689 1.919811-.567217.916274-.261793 1.658019-.479953 2.268868-.698113 1.003538-.349057 1.570755-.567217 1.570755-.567217.916273-.305425 1.788915-.654482 2.661556-1.003538 1.134434-.479953 2.268868-.959906 3.316038-1.483491.916273-.392688 1.745283-.785377 2.53066-1.178066.654481-.305424 1.26533-.654481 1.876179-.959905 1.003538-.523585 1.832548-.959906 2.530661-1.352595l1.876179-1.003537v18.020047s-1.134434.43632-3.097877 1.178066c-.82901.349056-1.87618.698113-3.010614 1.134433-.610849.218161-1.308962.436321-2.007075.698114-.567217.174528-1.178066.392688-1.788915.610849-.698113.21816-1.396226.43632-2.137972.654481-.523585.174528-1.04717.349056-1.614386.479953l-.479953.130896c-.567217.174528-1.090802.305424-1.658019.479953-.610849.174528-1.308962.349056-1.963444.479953-.43632.130896-.872641.21816-1.308962.349056-.698113.130896-1.439858.305425-2.181604.436321-.698113.174528-1.48349.305424-2.225235.436321z"/><path d="m0 43.632075v-26.4410374h17.1474055s.3490566 0 .9162736.043632c.5672169 0 1.3962264.0436321 2.3997641.1308962 1.8761792.1745284 4.3195754.523585 6.6757075 1.3089623 2.1816037.7417453 4.2759433 1.8325472 5.846698 3.4469339.6544811.6108491 1.134434 1.2216981 1.5707547 1.8761793 1.3525943 2.1379716 1.6580189 4.2759433 1.745283 5.4976414.0436321.5235849.0436321.8290094.0436321.8290094v.6544812c0 .5235849-.0872642 1.5271226-.3490566 2.5742924-.3054245 1.2653302-.9162736 2.7051886-2.0070755 4.057783-.2181603.2617924-.4363207.4799528-.6544811.7417452-.4799528.4799529-1.0035377.9162736-1.5707547 1.3089623-.9162736.6981132-2.0070754 1.3089622-3.1851415 1.788915-1.5271226.6544812-3.2287735 1.1780661-5.1485848 1.5271227-.9599057.1745283-2.0070755.3490566-3.0542453.4363207-.6544811.0872642-1.3089622.1308963-1.9634433.1745283-.6108491 0-1.2216981.0436321-1.8325472.0436321-6.0648584 0-16.5801885 0-16.5801885 0" transform="translate(243.157191 823.389614)"/><path d="m0 43.632075v-25.0884431h8.33372633s.5235849 0 1.26533017.0436321c.567217 0 1.2653302.043632 1.8761792.0872641 1.701651.1308962 4.057783.3926887 6.4575471 1.0035377.4363208.1745283.9162736.3054246 1.3525944.4799529 1.8761792.6544811 3.6214622 1.6143867 5.0176886 2.9669811 1.0908019 1.0908018 1.8325471 2.2688679 2.3125 3.4469339.5672169 1.4398585.7853773 2.8360849.8726415 3.7959905.0872641.8726415.0872641 1.3962264.0872641 1.3962264s0 .4363208-.0436321 1.0908019c-.043632 1.0908019-.2617924 2.8360849-1.1344339 4.5813679-.3926887.7853773-1.0035377 1.5707546-1.745283 2.356132-.9599057.9162736-2.0943396 1.6143868-3.2724056 2.1816037-2.3561321 1.0035378-5.0176887 1.4398585-7.2865566 1.5707548-1.0035377.0872641-1.8761792.0872641-2.6615565.0872641z" transform="translate(243.157191 863.583481)"/><path d="m188.316036 941.18749h142.938677v-134.517687h-142.938677zm37.479952-18.849057v-96.863206h36.476415s17.801886-.523585 27.619103 9.293632c7.98467 8.028302 7.417453 17.278302 7.417453 17.278302s.567217 9.642688-6.850236 17.060141c-6.283019 6.283019-14.31132 7.98467-14.31132 7.98467s3.621462 1.701651 6.413915 4.494103c1.308962 1.308963 5.933962 5.497642 5.933962 15.707547 0 10.29717-6.806604 16.1875-6.806604 16.1875s-7.504717 8.857311-24.433962 8.857311z"/><path d="m0 43.632075v-26.4410374h17.1474055s.3490566 0 .9162736.043632c.610849 0 1.3962264.0436321 2.3997641.1308962 1.8761792.1745284 4.3195754.523585 6.6757075 1.3089623 2.1816037.7417453 4.2759433 1.8325472 5.8903301 3.4469339.610849.6108491 1.0908019 1.2216981 1.5271226 1.8761793 1.3525943 2.1379716 1.6580189 4.2759433 1.745283 5.4976414.0436321.5235849.0436321.8290094.0436321.8290094v.6544812c0 .5235849-.0872642 1.5271226-.3490566 2.5742924-.3490566 1.2653302-.9162736 2.7051886-2.0070755 4.057783-.2181603.2617924-.4363207.4799528-.6544811.7417452-.4799528.4799529-1.0035377.9162736-1.5707547 1.3089623-.9162736.6981132-2.0070754 1.3089622-3.1415094 1.788915-1.5707547.6544812-3.2724056 1.1780661-5.1922169 1.5271227-.9599057.1745283-2.0070755.3490566-3.0542453.4363207-.6544811.0872642-1.3089622.1308963-1.9634433.1745283-.6108491 0-1.2216981.0436321-1.8325472.0436321-6.0648584 0-16.5801885 0-16.5801885 0" transform="translate(78.454834 823.389614)"/><path d="m0 43.632075v-25.0884431h8.33372633s.5235849 0 1.26533017.0436321c.567217 0 1.2653302.043632 1.8761792.0872641 1.701651.1308962 4.057783.3926887 6.4139151 1.0035377.4799528.1745283.9599056.3054246 1.3962264.4799529 1.8761792.6544811 3.6214622 1.6143867 5.0176886 2.9669811 1.0908019 1.0908018 1.8325471 2.2688679 2.3125 3.4469339.5672169 1.4398585.7853773 2.8360849.8726415 3.7959905.0872641.8726415.0872641 1.3962264.0872641 1.3962264s0 .4363208-.0436321 1.0908019c-.043632 1.0908019-.2617924 2.8360849-1.1344339 4.5813679-.4363208.7853773-1.0035377 1.5707547-1.745283 2.356132-.9599057.9162736-2.0943396 1.6143868-3.2724056 2.1816037-2.3561321 1.0035378-5.0613207 1.4398585-7.2865566 1.5707548-1.0035377.0872641-1.8761792.0872641-2.6615565.0872641z" transform="translate(78.454834 863.583481)"/><path d="m23.6049526 941.18749h142.9386774v-134.517687h-142.9386774zm37.4799524-18.849057v-96.863206h36.4764147s17.8018863-.523585 27.6191033 9.293632c7.98467 8.028302 7.417453 17.278302 7.417453 17.278302s.567217 9.642688-6.850236 17.060141c-6.283019 6.283019-14.354953 7.98467-14.354953 7.98467s3.665095 1.701651 6.457548 4.494103c1.308962 1.308963 5.933962 5.497642 5.933962 15.707547 0 10.29717-6.806604 16.1875-6.806604 16.1875s-7.504717 8.857311-24.4339619 8.857311z"/></g><path d="m174.5283 87.26415c-28.273585 63.92099-74.6544803 118.068395-132.5978759 155.897404l.4363207-225.708724c54.8891504.0436321 103.3207532 27.7063676 132.1615552 69.81132" fill="#f3611f" transform="translate(658.617446 456.958721)"/><path d="m0 261.79245v-225.2724032c57.7252352 37.829009 103.887971 91.8018862 132.117923 155.5047152-28.884434 42.104952-77.2287726 69.724056-132.117923 69.767688" fill="#ef3623" transform="translate(701.001643 61.37724)"/><path d="m0 43.632075s0-.0436321.04363208-.0436321c80.37028212-2.0507075 146.16745092 62.0448111 146.16745092 142.5023571v343.951647c-44.068395 23.474056-93.5908005 38.04717-146.211083 41.319575z" fill="#378baa" transform="translate(526.717683 186.413677)"/><path d="m43.632075 218.160375s-.0436321 0-.0436321-.043632v-188.8832528c52.6202825 3.2724057 102.1426881 17.8455187 146.2110831 41.3195751l.043632 5.1485848c0 80.4139139-65.797169 144.5530649-146.211083 142.4587249" fill="#53c49b" transform="translate(483.111787 10.716038)"/><path d="m0 0h.04363208c80.76297082.04363208 146.21108292 65.4917446 146.21108292 146.254715v85.606132c-52.1839613-.785378-101.7063664-12.653302-146.254715-33.42217z" fill="#ef249c" transform="translate(352.438086 526.556244)"/><path d="m0 43.632075c44.5483486-20.7688677 94.0707537-32.6367921 146.254715-33.4221695v340.9846665c0 80.76297-65.4481121 146.254715-146.21108292 146.254715h-.04363208z" fill="#d51378" transform="translate(352.438086 29.093868)"/><path d="m0 349.0566c0-133.121461 72.3856124-249.3136766 179.938677-311.4893834v189.1450454c-23.823113 34.862028-37.785377 76.96698-37.785377 122.344338s13.962264 87.48231 37.785377 122.344338v189.145045c-107.5530646-62.175706-179.938677-178.367922-179.938677-311.489383" fill="#89cf25" transform="translate(144.505069 49.80165)"/></g></g><g fill="#000" fill-rule="nonzero" transform="matrix(1 0 0 -1 1795 717)"><path d="m154.173689 125.273223h133.032651v-125.20365117h-133.032651zm83.808584-17.420131c-.567424.113486-1.16322.1986-1.787387.312087l-.70928.085114c-1.021364.141858-2.071099.255344-3.092463.36883-.709281.056743-1.418561.113487-2.127842.141858-1.248333.085115-2.496667.113486-3.688258.113486-.567425 0-.879508 0-1.418561 0-.992993-.028371-1.985986-.085114-2.950607-.141857-.539053-.028372-1.078106-.085115-1.61716-.113487-.794394-.085114-1.560417-.170229-2.32644-.255344l-.652538-.085114-.70928-.113486-.907879-.141858c-.368826-.056743-.766023-.141858-1.134849-.198601-.510682-.085115-1.049735-.198601-1.560417-.312087-3.149206-.652546-6.071441-1.560435-8.766707-2.610183-1.39019-.539059-2.723637-1.10649-4.000342-1.730664-1.049735-.510688-2.071099-1.049748-3.035721-1.617179-.93625-.567431-1.8725-1.10649-2.752008-1.7022927-.482311-.3404586-.992993-.6809172-1.475304-1.0213758-.397197-.2837155-.822765-.5958025-1.219962-.9078896-.822765-.6525457-1.645531-1.3050913-2.411554-1.9860085-.70928-.6241741-1.418561-1.2483482-2.042728-1.9008939-.567424-.567431-1.106477-1.134862-1.64553-1.702293-.539053-.5958026-1.078107-1.2199767-1.560417-1.8441508-.567425-.6809172-1.106478-1.3902059-1.61716-2.0994947-.397197-.5390595-.766023-1.0781189-1.134849-1.6455499-.255341-.3688302-.482311-.7376603-.70928-1.134862-1.39019-2.2697241-2.610153-4.6813058-3.603145-7.2914885-1.248334-3.2059852-2.156213-6.6956858-2.638524-10.3839874-.170227-1.1632336-.283712-2.3548387-.368826-3.5464438-.028371-.9362611-.085113-1.8725223-.085113-2.837155 0-.7092888 0-1.4185775.056742-2.0994947.056743-.7376603.113485-1.4469491.198599-2.1562379l.028371-.5106879c.113485-.8511465.255341-1.6739214.425568-2.4966964.056743-.312087.113485-.6525457.170228-.9646327.170227-.6809172.312083-1.3618344.510682-2.0143801.226969-.879518.453939-1.702293.737651-2.5534395.340455-.9930043.709281-1.9860085 1.106478-2.9506412.652538-1.5320638 1.361818-3.0073844 2.127841-4.3975903.425569-.822775.879508-1.6171784 1.361819-2.3548387.368826-.6241741.766023-1.1916051 1.16322-1.7590361.510682-.7660319 1.049735-1.4753207 1.588788-2.1846094.567425-.7092888 1.16322-1.390206 1.702274-2.0427516.70928-.822775 1.446932-1.5604353 2.127841-2.2413525l.368826-.3688302c.567424-.567431 1.191591-1.1632335 1.900872-1.7590361.48231-.4255732.992992-.8511465 1.532045-1.2767198.510682-.3972017 1.049736-.8227749 1.61716-1.2199766.652538-.4823164 1.361819-.9646327 2.127842-1.4469491.794394-.5106879 1.617159-1.0213758 2.496667-1.5320637 1.759016-.9646327 3.71663-1.9292654 5.844471-2.7804119.794394-.3120871 1.61716-.6241741 2.468296-.9078896.851137-.2837155 1.702274-.567431 2.610153-.822775 1.532045-.4539448 3.149205-.822775 4.823107-1.1632336 1.361819-.2553439 2.78038-.4823163 4.255683-.6525456 1.446932-.1702293 2.950607-.3120871 4.511024-.3972017.766023-.0283716 1.532046-.0567431 2.32644-.0851147h1.078106c2.808751 0 5.390532.1134862 7.773715.3120871l.48231.0283715c.964622.0851147 1.872501.1986009 2.78038.3120871 1.361819.1702293 2.666895.3688301 3.915228.5958025.794395.1418578 1.532046.2837155 2.269698.4255733 1.16322.2553439 2.241326.5106879 3.291061.7944034.766023.1986009 1.503675.4255733 2.212956.6241741.851136.2837155 1.673902.5390595 2.468296.822775l.737651.2553439c.397198.1418578.90788.3120871 1.503675.567431.794394.3120871 1.759016.6809172 2.865493 1.1632336.652538.2837155 1.361819.5958025 2.099471.9362611.652538.2837156 1.333447.6241742 2.014356.9362612.283712.1418578.595796.2837155.879508.4539448v17.0513018c-.198598-.1134862-.397197-.255344-.595796-.3688302l-1.191591-.7092888c-1.16322-.7092887-2.269697-1.3618344-3.404546-1.9860085-1.248334-.6525456-2.468296-1.2767197-3.659888-1.8441507-2.127841-1.0213759-4.142198-1.8441508-6.099812-2.5534396-3.71663-1.3334628-7.121176-2.1846093-10.156897-2.7236688-.340454-.0567431-.70928-.1134862-1.049735-.1702293-.822765-.1134862-1.617159-.2269724-2.383182-.3120871-1.191591-.1134862-2.298069-.1986008-3.291062-.2269724-.652538-.0283715-1.248333-.0567431-1.815758-.0567431-1.219962 0-2.468296.0283716-3.71663.1418578-1.503674.0851146-3.007349.2553439-4.539395.5106879-2.468296.4255732-4.936592 1.0497474-7.376517 1.9292654-.340455.1134862-.709281.2837155-1.078106.3972017-.22697.1134862-.45394.1986009-.68091.3120871-.397197.1418577-.794394.312087-1.191591.5106879-.822765.3972017-1.673902.8227749-2.468296 1.2767197-.397197.2269724-.794394.4539448-1.219963.7376604-.397197.2553439-.794394.5106879-1.191591.7944034-.510682.3404586-.992993.6809172-1.475303 1.0781189-.45394.3404586-.936251.7376603-1.333448 1.0781189l-.567424.5106879-.283712.2837155-.170228.1418577-.198598.1986009c-.766023.7660319-1.475303 1.5320637-2.09947 2.2980956-.368826.4539448-.709281.879518-1.021364 1.3050913-.312084.4255732-.595796.8511465-.879508 1.2767198-.255341.3972017-.510682.7944034-.766023 1.1916051-.340455.5958025-.652538 1.2199766-.964621 1.8157792-.255341.5106879-.482311 1.0213758-.68091 1.5036922-.368826.879518-.680909 1.7590361-.964621 2.5534395-.198599.6525456-.368826 1.3050913-.510682 1.9008939-.45394 1.7874076-.680909 3.404586-.822766 4.794792-.056742.5390594-.085113 1.0213758-.113484 1.5036921-.028372.6809172-.028372 1.2767198-.028372 1.7306646 0 .3120871 0 .6809172.028372 1.0781189.028371.9930043.113484 2.2129809.312083 3.6315585.113485.8511465.283712 1.7590361.510682 2.7236688.170227.6525456.340455 1.2767197.539053 1.957637.198599.6241741.425568 1.2199766.652538 1.8441507.170227.4255733.340455.8511465.510682 1.2767198.255341.567431.539053 1.1632336.851137 1.7306646.226969.4539448.453939.879518.70928 1.3334628.567425.9646327 1.219963 1.9292654 1.929243 2.8938982.255341.3404586.539053.6809172.822766 1.0213758.340454.4539448.737651.879518 1.134848 1.3050913.198599.2269724.397197.4539448.595796.6525456 3.149205 3.1492421 6.667237 5.4757093 10.298753 7.1496307.567424.255344 1.134849.4823164 1.730644.7092888.567425.2269724 1.134849.4255732 1.730645.6241741.624167.2269724 1.276705.4255732 1.900871.5958025.595796.1702294 1.191592.3120871 1.815759.4539449.595795.1418577 1.191591.2553439 1.787386.3688301.652538.1134862 1.333448.2269724 1.985986.3120871.652538.0851146 1.305076.1418577 1.957614.1986008 1.248334.1134862 2.468296.1702293 3.659887.1702293h1.191592c.879507-.0283715 1.730644-.0567431 2.581781-.1134862.567424-.0283715 1.16322-.0851146 1.730644-.1418577 1.049735-.0851147 2.09947-.2269724 3.092463-.3688302.879508-.1418577 1.730644-.2837155 2.525039-.4539448 1.219962-.2269724 2.32644-.5106879 3.347804-.7660319.652538-.1702293 1.248333-.3688301 1.787386-.5106879.822766-.2553439 1.532046-.4823163 2.099471-.6525456.93625-.3404586 1.446932-.5390595 1.446932-.5390595.851137-.2837155 1.673902-.6241741 2.468296-.9362611 1.106478-.4255733 2.127842-.9078896 3.120834-1.3618345.822766-.3688301 1.61716-.7660318 2.354812-1.1064904.624166-.3120871 1.16322-.5958026 1.702273-.8795181.93625-.4823163 1.730644-.9362611 2.383182-1.2767197l1.730645-.9362612v16.7675864s-1.049736.425573-2.837122 1.10649c-.794395.312087-1.759016.652546-2.808751 1.021376-.595796.226973-1.219963.453945-1.900872.680917-.539053.17023-1.078106.36883-1.645531.53906-.652538.198601-1.305076.425573-1.985985.652545-.482311.141858-.992993.283716-1.503675.425574l-.453939.141857c-.510682.141858-1.021364.283716-1.532046.425574-.595796.170229-1.219963.312087-1.844129.482316-.397198.085115-.794395.170229-1.219963.283716-.652538.141857-1.333447.283715-2.014357.425573-.680909.141858-1.390189.283715-2.09947.397202z"/><path d="m0 24.7599432v-24.59813415h15.9729969s.3120834 0 .8511366.02837155c.5390532 0 1.3050761.02837155 2.2129551.1134862 1.7306445.1702293 4.0287133.48231636 6.2416684 1.24834822 1.9859854.65254565 3.9435996 1.67392147 5.4472743 3.17761363.5674244.56743101 1.0497351 1.16323357 1.418561 1.75903612 1.2767049 1.98600853 1.5887883 4.00038863 1.6455307 5.13525063.0283713.4823163.0283713.7660318.0283713.7660318s.0283712.2269724 0 .5958026c0 .4823164-.0567425 1.4185775-.3120835 2.3832102-.3120834 1.1916051-.8795078 2.525068-1.8725005 3.7734162-.1985985.2269724-.3971971.4823164-.6241668.6809172-.4255683.4539448-.9078791.8795181-1.418561 1.2483482-.8795078.6525457-1.8725005 1.1916052-2.9789781 1.6739215-1.418561.6241741-3.0357206 1.0781189-4.7947362 1.4185775-.907879.1702293-1.8725005.3120871-2.837122.3972017-.6241668.0567431-1.2199625.0851147-1.8441293.1418578-.5390532.0283715-1.1348488.0567431-1.7022732.0567431-5.67424401 0-15.4339437 0-15.4339437 0" transform="translate(51.943672 31.485582)"/><path d="m0 23.4541396v-23.32141436h7.74534307s.51068196 0 1.19159124.02837155c.53905318 0 1.16321999.0567431 1.73064439.0567431 1.5887883.14185776 3.8017435.36883016 6.0146987.96463272.4255683.1134862.8511366.25534395 1.2767049.42557325 1.7306444.59580256 3.3761752 1.50369217 4.6528801 2.75204038 1.0497351 1.02137581 1.7022732 2.12786628 2.1562127 3.23435674.5390532 1.33346286.7376517 2.61018262.8227654 3.51807222.0567424.7944034.0567424 1.3050913.0567424 1.3050913s.0283712.3972017 0 .9930043c-.0567424 1.0213758-.2837122 2.6669257-1.0781064 4.2557325-.397197.7660319-.907879 1.5036922-1.6455307 2.212981-.8511366.8511465-1.9008718 1.5320637-3.0357206 2.01438-2.1845839.9646328-4.6812513 1.3334629-6.7807216 1.4753207-.907879.0851146-1.7590156.0851146-2.4399249.0851146z" transform="translate(51.943672 70.1936)"/><path d="m.91235871 125.273223h133.03265029v-125.20365117h-133.03265029zm34.89660059-17.533618v-90.1647866h33.9319792s16.5404212-.4539448 25.6759541 8.6816944c7.4616304 7.4333462 6.9225774 16.0299259 6.9225774 16.0299259s.539053 8.9937815-6.355153 15.8880682c-5.8728425 5.8729109-13.3628446 7.4333462-13.3628446 7.4333462s3.3761751 1.5888068 5.9863274 4.1706179c1.2199625 1.2199766 5.5323879 5.1352506 5.5323879 14.6397199 0 9.5612125-6.3551533 15.0652933-6.3551533 15.0652933s-6.9793201 8.2561208-22.7253472 8.2561208z"/><path d="m47.5964546 249.120739c.2837122 4.284104.3688259 7.490089.3688259 7.490089.3688259 7.972406.7376517 16.313641 1.4469322 22.271667 1.3901898 13.618344 6.6104943 34.726778 6.6104943 34.726778 3.0357205 12.82394 7.1211762 22.52701 10.6959499 29.364554 2.6385235 4.993393 4.9365923 8.369607 6.2984109 10.185387 11.348488 18.242907 29.9883792 30.073843 53.9620602 30.073843 35.917965 0 64.431041-28.399922 64.714753-63.750874.425568-10.355615-2.042728-21.392149-8.341139-32.825883-13.135874-23.803731-17.334815-28.456665-18.044095-29.506413-9.05042-14.497862-13.447959-21.165176-16.171596-26.215312-1.730644-3.149242-2.468296-5.248737-5.078448-13.363l-.45394-1.361835 1.418561.283716c24.88156 5.163622 78.219454 1.163233 91.780897-48.288379 1.049735-3.518072 2.383182-9.532841 3.291061-15.859697l.170228-2.893898c2.042728-15.405751.397197-39.521569-8.965306-65.3113085-.964621-2.1278663-5.021706-10.8663038-9.816442-19.5196266-4.397539-7.9156626-11.376859-19.5479982-19.235687-26.8962297-.028371-.0283716-3.035721-3.7734162-9.220647-9.1072677-6.29841-5.4189661-15.575799-12.1713951-27.406598-17.4485034-55.692705-25.1371936-134.7065527-7.46171777-156.04171019 57.5091325-10.35549531 26.5557711-10.58246507 51.2673914-8.2276538 69.1982114 1.95761418 15.122036 5.75935766 25.846482 7.26303232 29.619898 2.12784147 6.865916 5.92958497 14.27089 8.42625237 18.952196 3.0640917 5.645938 5.929585 10.24213 5.929585 10.24213 6.6956079 10.270501 12.511708 18.214535 16.8241334 24.910221 3.9152284 6.071512 5.2486757 9.192382 5.7877289 11.603964 1.0781064 4.624563 1.673902 11.008161 2.0143566 15.91644" transform="translate(115.679006 199.548438)"/></g><g fill="#000" transform="matrix(1 0 0 -1 1356 737)"><path d="m20.5128038 72.1658291c-2.9770916 0-20.21586957-41.8395309-20.21586957-41.8395309s28.46666617-26.92110557 29.96938867-29.92177559c1.5027224-2.97236181 33.6553115 36.68743719 33.6553115 44.13249579 0 7.4450587-40.4317391 27.6288107-43.4088306 27.6288107" transform="translate(.857525 187.317002)"/><path d="m161.27907 30.4857621c-38.532071-41.2450586-100.8808751-38.49916244-139.6397722-2.4061976-26.36852552 24.5432161-29.57244314 60.0134003-3.4874502 87.9536015 4.4231075 4.727471 11.3413013 10.332496 19.8756305 13.333166 2.3249668.792629 4.9051128 1.443718 7.6553784 1.783417l.9073041.113233-.1984728.905862c-5.3304116 24.967839 10.9443557 52.455109 20.5277553 62.70268 38.5604239 41.273367 101.1077009 38.272697 139.6397719 2.406198 26.623705-24.79799 29.487383-60.098325 3.459097-87.953601-4.423107-4.727471-11.312948-10.3608044-19.847277-13.3331662-2.296614-.7926298-4.87676-1.4437186-7.598672-1.7834171l-.907304-.1132328.198473-.9058627c5.415471-25.0527638-11.057769-52.5117253-20.584462-62.7026801" transform="translate(933.443921 .210134)"/></g><path d="m126.021057 24.4369806c12.610995 13.5280371 24.060079 42.3424726 8.020026 57.3169036-10.570565 9.8695114-20.857737 13.2160698-30.974872 22.6885318-8.4451167 7.884265-8.473456 18.859842-1.983753 25.836566 6.092953 6.551313 18.307199 14.151971 26.327225 6.664756 10.967316-10.266561 11.845834-29.239845 22.614775-39.2795208 7.821651-7.3170515 18.817306-.5672133 24.711883 5.7572148 17.938788 19.228531 16.323446 41.661817-2.46552 59.217068-31.258266 29.154764-80.7387121 30.68624-110.6650301-1.418033-12.6109957-13.528037-23.8617043-42.540997-8.0200265-57.316904 10.7689402-10.0680356 26.1288496-12.9891841 33.4403932-25.5245979 5.8945778-10.153118 4.7326658-15.5983657-.2833932-23.1990238-5.0727376-7.7424615-18.5055735-13.9534471-26.5256-6.4662316-10.7689402 10.068036-11.647459 29.0413208-22.6147743 39.2795208-7.8216513 7.2886908-18.817306.5672133-24.7402231-5.757215-17.91044789-19.2285307-16.09673165-41.8603413 2.4938598-59.2170681 31.456641-29.35328812 80.738712-30.71460003 110.6650302 1.4180332" fill="#ffe400" transform="matrix(1 0 0 -1 2309.690033 717.791791)"/><path d="m56.6786325 105.903186c14.9914983-3.460002 30.4080863-13.6414802 37.9746837-25.7514841 17.5136978-28.0486975-22.8131495-93.2215052-63.4233897-77.56641824-30.40808633 11.74131524-36.13262821 44.10083384-25.76043847 75.21248314 9.12525987 27.3680412 33.49707177 32.1893542 51.20914447 28.1054192" fill="#000" transform="matrix(1 0 0 -1 2183.094142 394.352501)"/><path d="m135.471406 88.900554c-5.894577-33.9477158-39.0515774-92.96625926-84.7912338-88.59871688-23.8617043 2.26885318-76.5728325 26.40377898-35.4524846 83.94756788 6.1779709 8.6783634 12.1292273 14.9460703 18.6189307 20.873449 5.6678633 5.133281 12.1008881 10.294922 20.4609864 17.555252 32.0801059 27.935255 93.8314763 39.024275 81.1638013-33.777552" fill="#000" transform="matrix(1 0 0 -1 2102.485384 512.50517)"/><path d="m3.82602953 47.5660665c-8.50179488-25.5245984-1.58700171-41.06624268 12.18590597-46.369687 16.5501607-6.40951025 43.3308145 31.4236166 35.5941812 43.8172271-7.7366333 12.3652499-39.2782923 28.0770582-47.78008717 2.5524599" fill="#ffe400" transform="matrix(1 0 0 -1 2206.598832 371.420836)"/><path d="m92.4565657 2.20277008c-73.3421505 14.26541442-100.15114363 74.67363052-89.9773291 126.97069592 12.9227282 66.590841 71.9251846 89.818226 124.6363124 79.551665 28.934442-6.352789 68.184395-36.330011 56.990365-93.930522-1.813716-9.41574-7.84999-21.2704982-15.586624-30.4026323-1.728698-2.0136072-4.165879-4.6227883-7.254865-7.2603302l-8.445116-7.1468875 1.501984-11.0039379.170036-1.5031153c.82184-9.727708-1.218591-20.8734493-5.922917-29.4383701-5.441149-9.8695113-9.351975-15.8536116-15.019838-19.965908-11.279048-8.25295346-25.392027-8.93360942-41.0920083-5.87065762" fill="#000" transform="matrix(1 0 0 -1 2198.494463 604.442989)"/><path d="m102.906915 168.856094c-44.4643869 8.650003-90.2323826-10.550167-100.54789371-63.641332-8.27508034-42.5409969 12.75269231-91.3497011 73.99395471-103.26118028 26.695636-5.19000166 29.274514 6.21098559 34.545626 15.74016898 5.242774 9.5291834 5.696203 28.5024681-4.902701 30.204108-10.5989045 1.6732793-21.3678447-1.6449185-32.6185532.5388527-17.2586436 3.3749191-35.395806 40.3005047-16.3234462 36.5852576 10.7406009-2.0986892 30.1246932-13.6698405 54.0997544-18.3209895 16.550161-3.2331158 31.059891 21.1003346 33.157 31.8490266 8.671831 44.7247689-20.772718 65.9101849-41.403741 70.3060879" fill="#ffe400" transform="matrix(1 0 0 -1 2218.457868 584.341619)"/><path d="m4.82602953 34.4871191c-6.9714718-10.493446-5.32779146-31.70722326 8.84186667-33.5223058 14.1696581-1.84344322 40.4685436 12.9041025 29.9263179 29.2682061-9.9754393 15.5416443-28.1976196 20.136072-38.76818457 4.2540997" fill="#462682" transform="matrix(1 0 0 -1 2281.619331 481.656612)"/><path d="m16.5826729 54.1055402c-1.615341 2.5524598-6.7730966 13.2444304-6.7730966 13.2444304-7.08482906 16.165579-10.28717179 33.8342734-9.66370684 51.2760824 2.49385983 71.780842 60.24938634 105.870361 117.23975154 103.885115 31.08823-1.843443 76.969583-26.488861 74.787455-88.513635-.340071-9.982954-4.647648-23.312467-11.19403-34.1178798-1.615341-2.6375418-3.995843-6.097543-7.169847-9.6426261l-7.793312-8.7067241 3.655772-11.0606592c.311733-.935902.566787-1.7583613.736822-2.4390172 2.49386-9.982954 2.182128-21.8944332-1.275269-31.5370593-3.995843-11.0890199-7.02815-17.9239402-12.214245-23.1706631-10.145475-10.18147872-24.513509-13.27279118-41.488759-12.67721722-44.2093334 1.55983657-76.2044214 20.73164602-94.9650488 46.96526092 0 0-2.2671453 3.9421324-3.8824863 6.4945923" fill="#000" fill-rule="nonzero" transform="matrix(1 0 0 -1 1756.11311 455.294171)"/><path d="m16.5826729 54.1055402c-1.615341 2.5524598-6.7730966 13.2444304-6.7730966 13.2444304-7.08482906 16.165579-10.28717179 33.8342734-9.66370684 51.2760824 2.49385983 71.780842 60.24938634 105.870361 117.23975154 103.885115 31.08823-1.843443 76.969583-26.488861 74.787455-88.513635-.340071-9.982954-4.647648-23.312467-11.19403-34.1178798-1.615341-2.6375418-3.995843-6.097543-7.169847-9.6426261l-7.793312-8.7067241 3.655772-11.0606592c.311733-.935902.566787-1.7583613.736822-2.4390172 2.49386-9.982954 2.182128-21.8944332-1.275269-31.5370593-3.995843-11.0890199-7.02815-17.9239402-12.214245-23.1706631-10.145475-10.18147872-24.513509-13.27279118-41.488759-12.67721722-44.2093334 1.55983657-76.2044214 20.73164602-94.9650488 46.96526092 0 0-2.2671453 3.9421324-3.8824863 6.4945923z" stroke="#000" stroke-width=".612001" transform="matrix(1 0 0 -1 1756.11311 455.294171)"/><path d="m85.9250971 3.81855956c-2.9472889.70901662-14.0846401 4.82131302-14.0846401 4.82131302-16.2951069 6.72147752-30.8615154 17.18656292-42.5373137 30.14738672-48.035141 53.4031318-30.12469318 118.0654477 12.2425846 156.2672627 23.6349897 20.277876 73.7389011 34.429848 115.2276601-11.684593 6.688078-7.430495 12.866049-20.02263 15.614963-32.331158.680144-3.034591 1.388626-7.175249 1.587002-11.93984l.425089-11.656233 10.315512-5.416887c.850179-.482132 1.587001-.907542 2.210466-1.27623 8.70017-5.416887 16.776875-14.208693 20.942755-23.5393522 4.846023-10.7770526 7.396561-17.7821368 7.311543-25.1559097-.226714-14.3788571-8.416776-26.6023036-21.056111-37.9749302-32.873607-29.63689472-69.176271-38.06001217-100.8879663-32.21771522 0 0-4.3642547 1.24786926-7.3115436 1.95688588" fill="#000" fill-rule="nonzero" transform="matrix(1 0 0 -1 1565.220525 436.893085)"/><path d="m85.9250971 3.81855956c-2.9472889.70901662-14.0846401 4.82131302-14.0846401 4.82131302-16.2951069 6.72147752-30.8615154 17.18656292-42.5373137 30.14738672-48.035141 53.4031318-30.12469318 118.0654477 12.2425846 156.2672627 23.6349897 20.277876 73.7389011 34.429848 115.2276601-11.684593 6.688078-7.430495 12.866049-20.02263 15.614963-32.331158.680144-3.034591 1.388626-7.175249 1.587002-11.93984l.425089-11.656233 10.315512-5.416887c.850179-.482132 1.587001-.907542 2.210466-1.27623 8.70017-5.416887 16.776875-14.208693 20.942755-23.5393522 4.846023-10.7770526 7.396561-17.7821368 7.311543-25.1559097-.226714-14.3788571-8.416776-26.6023036-21.056111-37.9749302-32.873607-29.63689472-69.176271-38.06001217-100.8879663-32.21771522 0 0-4.3642547 1.24786926-7.3115436 1.95688588z" stroke="#000" stroke-width=".612001" transform="matrix(1 0 0 -1 1565.220525 436.893085)"/><path d="m96.3754468 181.522022c-48.6302667 1.70164-93.91649404-26.375418-95.95692481-84.4013383-1.61534103-46.5114903 28.87776321-94.69625988 95.78688891-97.05019506 29.2178351-1.02098393 30.0396751 11.48606926 34.0071791 22.49000716 3.939165 11.003938 1.27527 31.1967313-10.258832 31.1967313s-22.3880599-5.3034443-34.6873232-4.8780343c-18.8739846.6522953-44.2943513 36.7554216-23.4366145 36.0180443 11.7324769-.3970493 34.233894-9.4157407 60.4477617-10.323282 18.080484-.6239346 29.387871 27.6232879 29.784621 39.3362419 1.700359 48.893786-33.071982 66.420677-55.6867562 67.611825" fill="#ffe400" transform="matrix(1 0 0 -1 1776.023719 434.500654)"/><path d="m.90714841 25.7448753c-4.22255812-12.6488565 13.91460429-25.55295896 27.51747609-25.09918832 13.6028718.42540997 29.8979786 5.81393629 28.4526735 23.51099112-2.4088419 29.7786981-49.39542823 21.2704986-55.97014959 1.5881972" fill="#462682" transform="matrix(1 0 0 -1 1844.365624 335.104509)"/><path d="m238.357767 17.8654971c-49.872078-23.95021055-168.2615893-41.7854737-219.9755335 83.5992569-50.7505063 123.063316 16.7751534 169.321761 61.0932951 191.856474 42.0228924 21.402316 112.8355754 22.789503 137.0065314-9.88017 8.104213-10.984257 8.670941-23.553871 7.565821-33.066011-1.10512-9.512141-4.222125-19.024281-6.94242-26.611345l-10.399461-28.479801 25.927813-3.255644c1.898539-.254789 3.712069-.481269 5.04388-.707748 9.804397-1.613667 22.64079-3.878462 34.7121-9.398901 12.723047-5.831848 24.681011-15.259058 33.040251-30.687976 34.967127-64.5466671-23.74591-112.5603279-67.072277-133.3681349" fill="#000" transform="matrix(1 0 0 -1 1349.796466 578.237234)"/><path d="m136.764563 201.979532c3.655397-16.249906 10.994526-32.896152 18.673693-42.295052 18.730365-22.959363 34.372062-26.611345 51.317234-20.722878.595065.622819 2.60695 2.576205 3.513715 4.614521 1.983548 4.359731 3.457042 10.587918 4.760516 18.995971 1.388484 8.861011 2.380259 18.033432 3.825415 26.186695 1.076784 5.860158 2.60695 12.909334 5.5256 19.47724-15.131642-14.43807-37.23404-23.95021-59.053074-20.128368-13.063084 2.293105-22.130734 7.615374-28.563099 13.871871m100.849275 23.242462c12.864729 9.427211 28.761454 7.077486 42.249584-.764368 13.601476-7.870164 27.968035-22.534714 41.569511-36.944474 24.425983-25.903596 14.678259-59.592427 4.562161-80.400234-11.136208-22.9310525-28.846463-43.9653391-41.144464-55.147766-5.723954-5.2090292-14.876614-14.3814502-27.004597-23.4406315-12.666374-9.4838304-29.214836-19.39230997-49.277013-24.60133921-42.27792-11.0408772-93.878519.39633918-149.3045321 60.69651461-114.8757971 124.9883921-33.8336709 230.3296841 4.448816 267.6421871 24.6526747 23.978521 53.9808571 25.478947 81.8072091 15.881877 26.069495-8.974251 51.742281-27.828672 73.901352-45.663935 29.979919-24.120071 30.518311-54.836357 18.191973-77.257831" fill="#000" transform="matrix(1 0 0 -1 1131.191095 736.184957)"/><path d="m147.819417 187.725146c35.448847-6.228187 84.385823 43.48407 40.15269 79.041357-44.233132 35.585596-92.2066706 66.443433-129.3557012 30.235017-37.177367-36.208415-106.7149116-128.442204-4.6471708-239.5021048 102.067741-111.0882105 175.487373-30.2067076 197.278071-10.3897485 21.790697 19.816959 64.720355 76.8331813 36.497293 106.7567893-28.223062 29.895298-48.596939 48.24014-61.971724 29.414029-13.374784-18.854421-4.278797-74.511766-30.915021-83.7691166-26.607887-9.2290409-51.062206-.5661988-74.156379 27.7154326-23.0941721 28.281632-36.8656663 92.347029-14.819941 97.924088 22.045725 5.548748 6.489037-31.197556 41.937883-37.425743" fill="#ffe400" transform="matrix(1 0 0 -1 1150.779516 715.903101)"/><g transform="matrix(1 0 0 -1 1371 717)"><path d="m34.4483771 159.839274c-36.15485778-32.610418-49.2454098-84.3216294-10.4554408-127.5183714 31.1113118-34.59712787 86.5053137-48.0783713 136.2607457-3.2071169 21.704248 19.5832799 13.628908 29.1478673 8.840373 39.8193358-4.788536 10.69985-20.740875 23.358028-29.014557 15.3260451-8.302017-8.0036013-12.410523-19.3846089-21.562576-27.6436443-14.025591-12.6581781-57.3774194-4.3423795-41.8784326 9.6497321 8.7270347 7.8616935 31.1679806 17.028939 50.6621366 34.5971276 13.430566 12.118928 1.955082 40.330204-5.893582 49.071726-32.6980456 36.356785-69.8729464 24.777107-86.9586669 9.905166" fill="#ffe400" transform="translate(215.037561 300.380706)"/><path d="m2.19255277 7.48133305c5.3552258-12.4311255 28.98622223-7.49273318 39.72500833 3.49093255 10.7104516 10.9836656 20.2025185 27.6436443 6.7719522 39.2517044-22.6676224 19.5548984-54.82731179-23.4431727-46.49696053-42.74263695" fill="#462682" transform="translate(252.177975 391.28972)"/><path d="m42.2909697 83.8384307c31.0546428 27.0476313 52.7022223 19.2427013 47.0069821-13.6515328-5.7235747-32.9226155-34.5964588-72.08917527-59.8991923-69.64836067-18.9274648 1.81642016-43.0401482 13.79344067-18.8991303 47.62426617 10.1437611 14.2191641 15.4139833 21.4280816 31.7913405 35.6756273" fill="#ffe400" transform="translate(755.357582 227.418351)"/><path d="m7.42094783 137.989032c2.49343847 9.138864 12.09884347 24.635198 12.09884347 24.635198 13.4872354 20.633398 22.6676225 31.106196 25.5010753 43.50894 3.1451326 13.736677 2.5501075 19.78195 2.5501075 19.78195.4533525 9.365917.7650323 20.718543 1.6717372 28.154513 1.1617156 12.317599 6.0919235 32.071169 6.0919235 32.071169 5.1852186 22.109239 13.7139116 32.269839 13.7139116 32.269839 7.5369845 12.771704 19.4658208 20.519872 35.6165016 20.519872 23.886007 0 42.445123-18.816978 42.445123-42.06148.283346-6.130418-1.020043-13.254191-5.610236-21.541608-12.495527-22.733633-16.51903-27.161158-17.170724-28.154512-19.21081-30.82238-18.360775-28.126131-23.886007-45.32536-2.3234318-6.442615-3.8534963-12.062165-2.6067771-17.624952 2.0684206-9.451061 9.9737541-13.140664 15.9523391-13.481243 2.408435-.170289 5.581902.255434 9.152053 1.021736 1.161715.255434 2.436769.596013 3.768492.737921 20.995885 4.768103 57.63243-.340579 66.302796-32.525274.821701-2.781393 1.81341-6.811575 2.550107-11.891875l.141673-3.008446c1.671737-11.636442.963374-31.5886822-7.366977-54.634513-1.700072-3.6896035-13.657243-29.2613936-23.659331-38.6556916l-.651694-.5960129s-3.201802-3.8598929-7.876999-7.8900751c-5.100215-4.370761-12.552196-9.79164-21.95926-13.99211158-47.9136865-21.74027882-110.2213138-4.25723476-125.86197327 44.70096498-17.79408363 44.9563991-.9067049 83.9810512-.9067049 83.9810512" fill="#ffe400" fill-rule="nonzero" transform="translate(562.663942 221.805902)"/><path d="m75.8538929 19.2377136c-12.9205448-13.48124345-41.7367599-28.01260476-60.6358901-9.90516625-18.87079571 18.07905695-21.05255437 59.82833915-1.1050466 64.22748175 19.9475078 4.4275242 100.3042298-14.1056378 61.7409367-54.3223155" fill="#462682" transform="translate(632.461275 279.633353)"/><path d="m68.0113003 254.127821c-39.2716559-20.037385-96.1107193-56.649604-51.2571613-165.7199583 44.8818925-109.041973 146.319503-94.68090109 191.569744-72.8838591 43.351828 20.8604503 82.59515 58.8349844 57.745769 104.8131194-23.602662 43.707611-84.380225 17.454663-98.264144 52.76133-6.091923 15.41119 25.52941 57.472669 10.880459 77.339765-14.648951 19.838714-71.403011 23.726988-110.6746667 3.689603" fill="#ffe400" transform="translate(.666064 159.949694)"/><path d="m53.0548586 7.48133305c16.5473644 19.07241175 12.7788722 58.57955035-7.7919952 63.94366615-29.4112401 7.634641-51.3704994-33.9443519-43.2951589-47.5391215 8.0753405-13.5663881 34.5397897-35.4769564 51.0871541-16.40454465" fill="#462682" transform="translate(58.313856 309.971428)"/><path d="m79.7751892 33.5566336c-5.9502509-16.4896893-25.1043919-39.9612436-48.1686978-31.6738266-23.06430582 8.3157986-40.83005492 43.2251236-25.41607165 54.6345128 15.41398325 11.4093891 91.32218395 26.2245661 73.58476945-22.9606862" fill="#462682" transform="translate(107.031373 209.019882)"/><g fill="#000" fill-rule="nonzero"><path d="m0 24.7690361v-24.60681695h15.9523393s.3116798 0 .8500358.02838157c.5383561 0 1.3033883.02838156 2.2100932.11352626 1.7284063.17028939 4.023503.4824866 6.2335962 1.24878886 1.983417.652776 3.9384994 1.67451234 5.4402294 3.17873529.5666906.5676313 1.0483775 1.16364417 1.4167264 1.75965703 1.2750538 1.98670956 1.5867336 4.00180064 1.6434026 5.13706324.0283346.4824866.0283346.7663023.0283346.7663023s.0283345.2270525 0 .5960129c0 .4824866-.0566691 1.4190782-.3116798 2.3840514-.3116799 1.1920258-.8783704 2.5259593-1.8700789 3.7747482-.1983417.2270525-.3966834.4824866-.6233596.6811575-.4250179.4541051-.9067049.8798286-1.4167264 1.2487889-.8783704.652776-1.8700789 1.1920257-2.9751255 1.6745123-1.4167264.6243945-3.0317945 1.0784995-4.7885352 1.4190783-.9067049.1702894-1.8700789.3121972-2.8334528.3973419-.6233596.0567631-1.2183847.0851447-1.8417443.1419078-.5383561.0283816-1.1333812.0567632-1.7000717.0567632-5.63857111 0-15.4139833 0-15.4139833 0" transform="translate(323.770004 31.496696)"/><path d="m0 23.4627716v-23.32964652h7.73532616s.51002151 0 1.19005018.02838156c.53835604 0 1.16171566.05676313 1.72840626.05676313 1.5867335.14190783 3.7968267.36896035 6.0069199.96497322.4250179.11352626.8500359.25543408 1.2750538.42572347 1.7284062.59601287 3.3718088 1.50422295 4.6468626 2.75301181 1.0483775 1.02173635 1.7000717 2.12861738 2.1534241 3.23549842.538356 1.33393356.7366977 2.61110401.8217013 3.51931411.0566691.7946838.0566691 1.305552.0566691 1.305552s.0283345.3973419 0 .9933547c-.0566691 1.0217364-.2833453 2.6678671-1.0767121 4.2572348-.3966834.7663022-.9067049 1.5042229-1.6434026 2.2137621-.8500359.8514469-1.8984134 1.5326045-3.0317945 2.0150911-2.1817587.9649732-4.6751972 1.3339335-6.7719522 1.4758414-.9067049.0851447-1.7284062.0851447-2.4367694.0851447z" transform="translate(323.770004 70.218378)"/><path d="m272.802138 125.317796h132.860602v-125.24784662h-132.860602zm34.851469-17.539807v-90.196614h33.888096s16.51903-.454105 25.642748 8.6847589c7.451981 7.4359701 6.913625 16.0355843 6.913625 16.0355843s.538356 8.9969561-6.346935 15.8936764c-5.865247 5.874984-13.345562 7.4359701-13.345562 7.4359701s3.371808 1.5893676 5.978585 4.1720901c1.218385 1.2204073 5.525233 5.1370632 5.525233 14.6448875 0 9.5645875-6.346934 15.0706111-6.346934 15.0706111s-6.970294 8.2590356-22.695957 8.2590356z"/></g></g></g></svg>