<svg viewBox="0 0 315 137" xmlns="http://www.w3.org/2000/svg"><g fill="none" fill-rule="evenodd"><g fill="#000" fill-rule="nonzero"><path d="M185.92 103.887h30.206v28.429H185.92zm19.03 3.955c-.13-.026-.265-.045-.406-.07l-.162-.02c-.231-.032-.47-.058-.702-.084-.16-.013-.322-.026-.483-.032a12.37 12.37 0 0 0-.837-.026h-.322c-.226.007-.451.02-.67.032-.123.007-.245.02-.368.026l-.528.058-.148.02-.161.025-.206.033c-.084.012-.174.032-.258.045a6.89 6.89 0 0 0-.354.07c-.715.149-1.379.355-1.99.593-.317.123-.62.251-.91.393-.238.116-.47.238-.689.367-.212.13-.425.252-.624.387-.11.077-.226.154-.335.232a7.69 7.69 0 0 0-.277.206c-.187.148-.374.296-.548.45a7.486 7.486 0 0 0-.464.433c-.129.128-.251.257-.373.386a7.168 7.168 0 0 0-.355.419 8.54 8.54 0 0 0-.367.476 7.665 7.665 0 0 0-.419.632 9.897 9.897 0 0 0-.818 1.655c-.283.728-.49 1.52-.599 2.358-.039.264-.064.535-.084.806-.006.212-.019.425-.019.644 0 .16 0 .322.013.476.013.168.026.329.045.49l.006.116a8 8 0 0 0 .097.567l.039.219c.038.155.07.31.116.457a8.573 8.573 0 0 0 .418 1.25c.149.348.31.683.484.999.096.186.2.367.309.534.083.142.174.27.264.4.116.174.238.335.36.496.13.16.265.315.387.464.161.186.329.354.483.509l.084.083c.129.13.27.264.432.4.11.096.225.193.348.29.116.09.238.186.367.277a14.586 14.586 0 0 0 1.05.676 11.328 11.328 0 0 0 1.888.837 12.978 12.978 0 0 0 1.688.45c.308.06.63.111.966.15.328.038.67.07 1.024.09l.528.02h.245c.638 0 1.224-.027 1.765-.072l.11-.006c.219-.02.425-.045.63-.071.31-.039.606-.084.89-.135l.515-.097c.264-.058.51-.116.748-.18.173-.045.34-.097.502-.142.193-.064.38-.122.56-.187l.168-.058c.09-.032.206-.07.341-.129.18-.07.4-.154.651-.264.148-.064.31-.135.477-.212.148-.065.303-.142.457-.213.065-.032.135-.064.2-.103v-3.872c-.045.026-.09.058-.135.084l-.271.161c-.264.161-.515.31-.773.45-.284.15-.56.29-.831.42-.483.232-.94.418-1.385.58-.844.302-1.617.496-2.306.618l-.239.039c-.187.025-.367.051-.54.07-.271.026-.523.046-.748.052-.148.006-.284.013-.413.013-.277 0-.56-.007-.843-.032a9.521 9.521 0 0 1-1.031-.116 9.876 9.876 0 0 1-1.675-.438c-.077-.026-.161-.065-.245-.09-.051-.026-.103-.046-.155-.071a2.44 2.44 0 0 1-.27-.116 9.217 9.217 0 0 1-.56-.29c-.09-.052-.18-.103-.278-.168-.09-.058-.18-.116-.27-.18a4.043 4.043 0 0 1-.335-.245 6.238 6.238 0 0 1-.303-.245l-.129-.116-.064-.064-.039-.032-.045-.045a7.003 7.003 0 0 1-.709-.819c-.07-.096-.135-.193-.2-.29l-.173-.27c-.077-.135-.148-.277-.22-.412a5.157 5.157 0 0 1-.154-.342c-.084-.2-.154-.4-.219-.58a7.313 7.313 0 0 1-.116-.431 7.426 7.426 0 0 1-.187-1.089c-.013-.122-.019-.232-.025-.341-.007-.155-.007-.29-.007-.393 0-.071 0-.155.007-.245a7.495 7.495 0 0 1 .186-1.443c.04-.148.078-.29.123-.445.045-.141.096-.277.148-.418l.116-.29a5.53 5.53 0 0 1 .193-.393c.052-.103.103-.2.161-.303a5.893 5.893 0 0 1 .625-.889c.077-.103.168-.2.258-.296a3.09 3.09 0 0 1 .135-.149 8.058 8.058 0 0 1 2.339-1.623c.128-.058.257-.11.393-.161.128-.052.257-.097.393-.142a7.707 7.707 0 0 1 .844-.238 9.074 9.074 0 0 1 1.3-.2 9.18 9.18 0 0 1 .832-.038h.27c.2.006.393.012.587.025.128.007.264.02.393.033a11.642 11.642 0 0 1 1.275.186c.277.052.528.116.76.174.148.039.284.084.406.116.187.058.348.11.477.148.212.078.328.123.328.123.194.064.38.142.56.212.252.097.484.207.71.31.186.083.367.174.534.25.142.072.264.136.387.2.212.11.393.213.54.29l.394.213v-3.807s-.239-.097-.644-.251c-.18-.071-.4-.149-.638-.232a10.743 10.743 0 0 0-.432-.155c-.122-.039-.245-.084-.373-.122-.149-.046-.297-.097-.451-.149-.11-.032-.226-.064-.342-.096l-.103-.032-.348-.097c-.135-.039-.277-.07-.418-.11-.09-.019-.18-.038-.278-.064l-.457-.097a10.425 10.425 0 0 0-.477-.09zm-42.243 11.718v5.586h3.626s.071 0 .194-.007c.122 0 .296-.006.502-.026.393-.038.915-.11 1.417-.283.451-.148.896-.38 1.237-.722.13-.128.239-.264.322-.399.29-.45.361-.908.374-1.166.007-.11.007-.174.007-.174s.006-.051 0-.135a2.313 2.313 0 0 0-.496-1.398c-.046-.052-.09-.11-.142-.155a2.255 2.255 0 0 0-.322-.283c-.2-.148-.426-.27-.677-.38a5.142 5.142 0 0 0-1.088-.322 6.743 6.743 0 0 0-.645-.09c-.141-.013-.277-.02-.418-.033a7.494 7.494 0 0 0-.387-.013zm0-8.492v5.295h1.758s.116 0 .27-.006c.123 0 .265-.013.394-.013.36-.032.863-.084 1.365-.22.097-.025.194-.057.29-.096a2.824 2.824 0 0 0 1.057-.625c.238-.232.386-.483.49-.734.122-.303.167-.593.186-.799.013-.18.013-.296.013-.296s.007-.09 0-.226a2.52 2.52 0 0 0-.245-.966 1.884 1.884 0 0 0-.373-.503 2.184 2.184 0 0 0-.69-.457c-.496-.219-1.063-.303-1.54-.335-.205-.02-.399-.02-.553-.02z"/><path d="M151.12 103.887h30.206v28.429H151.12zm7.923 3.981v20.473h7.705s3.755.103 5.83-1.971c1.694-1.688 1.572-3.64 1.572-3.64s.122-2.042-1.443-3.608c-1.334-1.333-3.035-1.688-3.035-1.688s.767-.36 1.36-.946c.277-.278 1.256-1.167 1.256-3.325 0-2.17-1.443-3.42-1.443-3.42s-1.585-1.875-5.16-1.875zm28.943-77.412c.064-.973.084-1.701.084-1.701.084-1.81.167-3.704.328-5.057.316-3.092 1.501-7.885 1.501-7.885.69-2.912 1.617-5.115 2.43-6.668.598-1.134 1.12-1.9 1.43-2.313C196.334 2.69 200.567.004 206.01.004c8.156 0 14.63 6.448 14.695 14.475.096 2.352-.464 4.858-1.894 7.454-2.983 5.405-3.937 6.461-4.098 6.7-2.055 3.291-3.053 4.805-3.672 5.952-.393.715-.56 1.192-1.153 3.034l-.103.31.322-.065c5.65-1.172 17.761-.264 20.84 10.965.239.798.542 2.164.748 3.6l.038.658c.464 3.498.09 8.974-2.035 14.83a68.81 68.81 0 0 1-2.23 4.432c-.998 1.797-2.583 4.438-4.367 6.107-.006.006-.69.857-2.094 2.068a25.693 25.693 0 0 1-6.223 3.962c-12.646 5.707-30.587 1.694-35.431-13.058-2.352-6.03-2.403-11.641-1.869-15.713.445-3.433 1.308-5.869 1.65-6.725.483-1.56 1.346-3.24 1.913-4.304.696-1.282 1.346-2.325 1.346-2.325 1.52-2.332 2.841-4.136 3.82-5.656.89-1.38 1.192-2.088 1.315-2.635.244-1.05.38-2.5.457-3.614"/></g><path d="M55.963 78.057c-.676 0-4.593 9.522-4.593 9.522s6.468 6.126 6.81 6.809c.34.676 7.646-8.35 7.646-10.043s-9.186-6.288-9.863-6.288m243.876 52.065c-8.755 9.386-22.921 8.762-31.728.548-5.991-5.585-6.719-13.657-.792-20.016 1.005-1.076 2.577-2.351 4.516-3.034a8.708 8.708 0 0 1 1.74-.406l.205-.026-.045-.206c-1.211-5.682 2.487-11.937 4.664-14.27 8.761-9.392 22.973-8.709 31.728-.547 6.049 5.644 6.7 13.677.786 20.016-1.005 1.076-2.57 2.358-4.51 3.034a8.578 8.578 0 0 1-1.726.406l-.207.026.046.206c1.23 5.701-2.513 11.95-4.677 14.27" fill="#000"/><path d="M296.44 126.953c2.867-3.072 5.47-9.618 1.823-13.02-2.403-2.24-4.741-3.001-7.04-5.153-1.92-1.79-1.927-4.284-.452-5.869 1.385-1.488 4.162-3.214 5.985-1.513 2.493 2.332 2.693 6.641 5.14 8.922 1.779 1.662 4.278.129 5.618-1.308 4.078-4.368 3.71-9.463-.56-13.451-7.106-6.622-18.354-6.97-25.157.322-2.866 3.073-5.424 9.663-1.823 13.02 2.448 2.287 5.94 2.95 7.602 5.798 1.34 2.306 1.076 3.543-.064 5.27-1.154 1.758-4.207 3.169-6.03 1.468-2.448-2.287-2.648-6.597-5.141-8.922-1.778-1.656-4.278-.13-5.624 1.307-4.072 4.368-3.66 9.509.567 13.452 7.15 6.667 18.353 6.976 25.156-.323" fill="#ffe400"/><path d="M251.9 34.98c3.407.785 6.912 3.098 8.632 5.849 3.981 6.371-5.186 21.175-14.418 17.619-6.912-2.667-8.213-10.018-5.855-17.085 2.074-6.216 7.614-7.311 11.64-6.384" fill="#000"/><path d="M251.487 65.68c-1.34 7.711-8.878 21.117-19.275 20.125-5.424-.515-17.407-5.998-8.06-19.069 1.405-1.971 2.758-3.395 4.233-4.741 1.289-1.166 2.751-2.339 4.651-3.988 7.293-6.345 21.33-8.864 18.45 7.673" fill="#000"/><path d="M245.228 43.022c-1.933 5.798-.36 9.328 2.77 10.533 3.762 1.455 9.85-7.138 8.091-9.954-1.758-2.808-8.928-6.377-10.861-.58" fill="#ffe400"/><path d="M263.533 106.257c-16.672-3.24-22.766-16.962-20.453-28.842 2.937-15.126 16.35-20.402 28.332-18.07 6.577 1.443 15.5 8.253 12.955 21.337-.412 2.138-1.784 4.831-3.543 6.906-.393.457-.947 1.05-1.65 1.649l-1.919 1.623.341 2.5.04.341c.186 2.21-.278 4.742-1.347 6.687-1.237 2.242-2.126 3.601-3.415 4.535-2.564 1.875-5.772 2.03-9.34 1.334" fill="#000"/><path d="M270.447 63.836c-10.108-1.965-20.512 2.396-22.857 14.456-1.88 9.663 2.9 20.75 16.82 23.455 6.07 1.18 6.655-1.41 7.854-3.575 1.191-2.165 1.295-6.474-1.115-6.86-2.41-.38-4.857.373-7.415-.123-3.923-.767-8.046-9.154-3.71-8.31 2.441.476 6.848 3.105 12.298 4.161 3.762.734 7.06-4.793 7.537-7.234 1.971-10.16-4.722-14.972-9.412-15.97" fill="#ffe400"/><path d="M262.51 71.033c-1.586 2.383-1.212 7.202 2.009 7.614 3.221.419 9.2-2.931 6.803-6.648-2.268-3.53-6.41-4.574-8.813-.966" fill="#462682"/><path d="M145.723 60.588c-.367-.58-1.54-3.008-1.54-3.008-1.61-3.672-2.338-7.686-2.196-11.648.567-16.305 13.696-24.048 26.65-23.597 7.068.418 17.498 6.017 17.002 20.106-.078 2.267-1.057 5.295-2.545 7.75a15.28 15.28 0 0 1-1.63 2.19l-1.772 1.977.831 2.513c.071.212.13.4.168.554.567 2.268.496 4.973-.29 7.164-.908 2.518-1.598 4.071-2.776 5.263-2.307 2.312-5.573 3.015-9.432 2.88-10.05-.355-17.323-4.71-21.587-10.669 0 0-.516-.895-.883-1.475" fill="#000" fill-rule="nonzero"/><path d="M145.723 60.588c-.367-.58-1.54-3.008-1.54-3.008-1.61-3.672-2.338-7.686-2.196-11.648.567-16.305 13.696-24.048 26.65-23.597 7.068.418 17.498 6.017 17.002 20.106-.078 2.267-1.057 5.295-2.545 7.75a15.28 15.28 0 0 1-1.63 2.19l-1.772 1.977.831 2.513c.071.212.13.4.168.554.567 2.268.496 4.973-.29 7.164-.908 2.518-1.598 4.071-2.776 5.263-2.307 2.312-5.573 3.015-9.432 2.88-10.05-.355-17.323-4.71-21.587-10.669 0 0-.516-.895-.883-1.475z" stroke="#000" stroke-width=".612"/><path d="M118.092 67.83c-.67-.16-3.201-1.094-3.201-1.094-3.705-1.527-7.016-3.904-9.67-6.848-10.92-12.13-6.848-26.819 2.783-35.496 5.373-4.606 16.762-7.821 26.194 2.654 1.52 1.688 2.924 4.548 3.55 7.344.154.69.315 1.63.36 2.712l.097 2.648 2.345 1.23c.193.11.36.206.502.29 1.978 1.23 3.814 3.228 4.76 5.347 1.102 2.448 1.682 4.04 1.663 5.714-.052 3.266-1.914 6.043-4.787 8.626-7.473 6.732-15.725 8.645-22.934 7.318 0 0-.992-.283-1.662-.444" fill="#000" fill-rule="nonzero"/><path d="M118.092 67.83c-.67-.16-3.201-1.094-3.201-1.094-3.705-1.527-7.016-3.904-9.67-6.848-10.92-12.13-6.848-26.819 2.783-35.496 5.373-4.606 16.762-7.821 26.194 2.654 1.52 1.688 2.924 4.548 3.55 7.344.154.69.315 1.63.36 2.712l.097 2.648 2.345 1.23c.193.11.36.206.502.29 1.978 1.23 3.814 3.228 4.76 5.347 1.102 2.448 1.682 4.04 1.663 5.714-.052 3.266-1.914 6.043-4.787 8.626-7.473 6.732-15.725 8.645-22.934 7.318 0 0-.992-.283-1.662-.444z" stroke="#000" stroke-width=".612"/><path d="M168.388 26.922c-11.055-.386-21.35 5.991-21.813 19.172-.367 10.565 6.564 21.51 21.774 22.045 6.642.232 6.829-2.61 7.73-5.109.896-2.5.29-7.086-2.331-7.086s-5.09 1.205-7.885 1.108c-4.29-.148-10.07-8.35-5.328-8.182 2.667.09 7.782 2.14 13.74 2.345 4.111.142 6.681-6.274 6.772-8.935.386-11.106-7.518-15.087-12.66-15.358" fill="#ffe400"/><path d="M162.221 39.73c-.96 2.872 3.164 5.803 6.256 5.7 3.092-.096 6.796-1.32 6.468-5.34-.548-6.764-11.229-4.832-12.724-.36" fill="#462682"/><path d="M103.867 96.79c-11.338 5.45-38.253 9.51-50.01-19.023-11.538-28.004 3.813-38.53 13.889-43.658 9.554-4.87 25.652-5.186 31.148 2.248 1.842 2.5 1.97 5.36 1.72 7.525-.252 2.164-.96 4.329-1.579 6.055l-2.364 6.481 5.895.74c.431.059.843.11 1.146.162 2.23.367 5.147.882 7.892 2.139 2.892 1.327 5.61 3.472 7.511 6.983 7.95 14.688-5.398 25.614-15.248 30.349" fill="#000"/><path d="M31.072 90.836c.83 3.698 2.5 7.486 4.245 9.625 4.258 5.224 7.814 6.055 11.667 4.716.135-.142.592-.587.798-1.05.451-.993.786-2.41 1.083-4.323.315-2.017.54-4.104.87-5.96.244-1.333.592-2.937 1.256-4.431-3.44 3.285-8.465 5.45-13.426 4.58-2.97-.522-5.031-1.733-6.493-3.157m22.927-5.289c2.925-2.145 6.539-1.61 9.605.174 3.092 1.791 6.359 5.128 9.45 8.407 5.554 5.895 3.338 13.56 1.038 18.296-2.532 5.218-6.558 10.004-9.354 12.55-1.301 1.184-3.382 3.272-6.14 5.333-2.879 2.158-6.641 4.413-11.202 5.598-9.612 2.513-21.343-.09-33.944-13.812-26.116-28.441-7.691-52.413 1.012-60.903 5.604-5.457 12.272-5.798 18.598-3.614 5.927 2.042 11.764 6.332 16.801 10.39 6.816 5.49 6.938 12.48 4.136 17.581" fill="#000"/><path d="M38.038 89.465c8.06 1.417 19.185-9.895 9.129-17.987-10.056-8.097-20.963-15.12-29.409-6.88-8.452 8.24-24.26 29.228-1.056 54.5 23.204 25.28 39.896 6.874 44.85 2.365 4.954-4.51 14.714-17.484 8.297-24.293-6.416-6.803-11.048-10.978-14.089-6.694-3.04 4.29-.972 16.956-7.028 19.062-6.05 2.1-11.609.13-16.859-6.306s-8.381-21.015-3.37-22.284c5.013-1.262 1.476 7.1 9.535 8.517M111.011 27.87c-8.22 7.402-11.196 19.14-2.377 28.944 7.074 7.853 19.668 10.913 30.98.728 4.935-4.445 3.099-6.616 2.01-9.038-1.089-2.429-4.716-5.302-6.597-3.479-1.887 1.817-2.821 4.4-4.902 6.275-3.189 2.873-13.045.985-9.521-2.19 1.984-1.785 7.086-3.866 11.518-7.853 3.054-2.751.445-9.155-1.34-11.139-7.434-8.252-15.886-5.624-19.77-2.248" fill="#ffe400"/><path d="M112.122 41.818c1.217 2.821 6.59 1.7 9.032-.793 2.435-2.493 4.593-6.274 1.54-8.91-5.154-4.438-12.466 5.322-10.572 9.703" fill="#462682"/><path d="M235.641 61.682c7.06-6.14 11.982-4.368 10.687 3.099-1.3 7.472-7.865 16.362-13.618 15.808-4.304-.412-9.786-3.13-4.297-10.81 2.306-3.227 3.504-4.863 7.228-8.097" fill="#ffe400"/><path d="M183.902 50.665c.567-2.075 2.751-5.592 2.751-5.592 3.067-4.684 5.154-7.06 5.798-9.876.715-3.118.58-4.49.58-4.49.103-2.126.174-4.703.38-6.39.264-2.797 1.385-7.28 1.385-7.28 1.179-5.019 3.118-7.325 3.118-7.325 1.713-2.899 4.426-4.658 8.098-4.658 5.43 0 9.65 4.272 9.65 9.548.064 1.391-.232 3.008-1.276 4.89-2.84 5.16-3.755 6.164-3.904 6.39-4.367 6.996-4.174 6.384-5.43 10.288-.529 1.462-.876 2.738-.593 4 .47 2.146 2.268 2.983 3.627 3.06.548.039 1.27-.058 2.08-.232.265-.058.555-.135.858-.167 4.773-1.082 13.103.077 15.074 7.383.187.631.412 1.546.58 2.699l.032.683c.38 2.641.22 7.17-1.675 12.4-.386.838-3.105 6.643-5.379 8.775l-.148.135s-.728.876-1.791 1.791a20.798 20.798 0 0 1-4.993 3.176c-10.893 4.935-25.06.966-28.616-10.146-4.045-10.205-.206-19.062-.206-19.062" fill="#ffe400" fill-rule="nonzero"/><path d="M215.33 64.493c-2.937 3.06-9.489 6.359-13.786 2.249-4.29-4.104-4.786-13.58-.251-14.579 4.535-1.005 22.805 3.202 14.037 12.33" fill="#462682"/><path d="M69.903 38.343C60.974 42.892 48.05 51.202 58.249 75.96c10.204 24.75 33.267 21.49 43.555 16.543 9.857-4.735 18.779-13.354 13.13-23.79-5.367-9.921-19.186-3.962-22.342-11.976-1.385-3.498 5.804-13.046 2.474-17.555-3.331-4.503-16.235-5.386-25.163-.838" fill="#ffe400"/><path d="M79.609 60.275c3.762-4.329 2.905-13.296-1.772-14.514-6.687-1.733-11.68 7.705-9.843 10.791 1.836 3.08 7.853 8.053 11.615 3.723M96.76 77.271c-1.352 3.743-5.707 9.07-10.951 7.19-5.244-1.888-9.283-9.812-5.779-12.402 3.505-2.59 20.763-5.952 16.73 5.212" fill="#462682"/><g fill="#000" fill-rule="nonzero"><path d="M127.9 119.56v5.586h3.627s.071 0 .194-.007c.122 0 .296-.006.502-.026.393-.038.915-.11 1.417-.283.451-.148.896-.38 1.237-.722.129-.128.239-.264.322-.399.29-.45.361-.908.374-1.166.006-.11.006-.174.006-.174s.007-.051 0-.135c0-.11-.013-.322-.07-.541-.071-.27-.2-.574-.426-.857-.045-.052-.09-.11-.141-.155a2.255 2.255 0 0 0-.323-.283c-.2-.148-.425-.27-.676-.38a5.142 5.142 0 0 0-1.089-.322 6.743 6.743 0 0 0-.644-.09c-.142-.013-.277-.02-.419-.033a7.494 7.494 0 0 0-.386-.013zm0-8.492v5.295h1.76s.115 0 .27-.006c.122 0 .264-.013.393-.013.36-.032.863-.084 1.365-.22.097-.025.194-.057.29-.096a2.824 2.824 0 0 0 1.057-.625c.238-.232.386-.483.49-.734.122-.303.167-.593.186-.799.013-.18.013-.296.013-.296s.006-.09 0-.226a2.52 2.52 0 0 0-.245-.966 1.884 1.884 0 0 0-.373-.503 2.184 2.184 0 0 0-.69-.457c-.496-.219-1.063-.303-1.54-.335-.206-.02-.392-.02-.553-.02z"/><path d="M116.312 103.887h30.207v28.429h-30.207zm7.924 3.981v20.473h7.705s3.756.103 5.83-1.971c1.694-1.688 1.572-3.64 1.572-3.64s.122-2.042-1.443-3.608c-1.334-1.333-3.034-1.688-3.034-1.688s.766-.36 1.359-.946c.277-.278 1.256-1.167 1.256-3.325 0-2.17-1.443-3.42-1.443-3.42s-1.585-1.875-5.16-1.875z"/></g></g></svg>