<svg viewBox="0 0 315 137" xmlns="http://www.w3.org/2000/svg"><g fill="none" fill-rule="evenodd"><g fill="#000" fill-rule="nonzero"><path d="m185.9193813 103.8867347h30.2070679v28.4290446h-30.2070679zm19.0300018 3.9554573c-.1288422-.0257684-.2641266-.0450947-.4058531-.0708632l-.1610528-.0193263c-.2319161-.0322106-.4702743-.0579791-.7021903-.0837475-.1610529-.0128842-.3221057-.0257685-.4831585-.0322106-.283453-.0193263-.566906-.0257684-.8374747-.0257684h-.3221057c-.2254739.0064421-.4509479.0193263-.6699797.0322105-.1224001.0064422-.2448003.0193264-.3672004.0257685-.1803792.0193263-.3543163.0386527-.5282533.057979l-.1481686.0193263-.1610528.0257685-.2061476.0322106c-.0837475.0128842-.1739371.0322105-.2576846.0450948-.115958.0193263-.2383582.0450947-.3543162.0708632-.7150745.1481686-1.3786122.3543162-1.9906129.5926744-.3156635.1224001-.6184428.2512424-.9083379.3929689-.2383582.115958-.4702743.2383582-.6893061.3672004-.2125898.1288423-.4251795.2512424-.624885.3865268-.1095159.0773054-.2254739.1546107-.3349899.2319161-.0901895.0644211-.1868212.1352843-.2770108.2061476-.1868213.1481686-.3736426.2963372-.5475796.4509479-.1610529.1417265-.3221057.283453-.4638322.4316216-.1288422.1288422-.2512424.2576845-.3736425.3865268-.1224002.1352843-.2448003.2770108-.3543162.4187373-.1288423.1546107-.2512424.3156635-.3672005.4767164-.0901896.1224001-.173937.2448003-.2576845.3736425-.057979.0837475-.1095159.167495-.1610528.2576845-.3156636.5153691-.5926744 1.0629487-.8181484 1.6556231-.2834529.7279587-.4896006 1.5203386-.5991165 2.3578133-.0386527.2641267-.0644211.5346954-.0837474.8052642-.0064422.2125897-.0193264.4251794-.0193264.6442113 0 .1610528 0 .3221056.0128842.4767163.0128843.167495.0257685.3285478.0450948.4896006l.0064421.115958c.0257685.1932634.0579791.3800847.0966317.566906.0128843.0708632.0257685.1481686.0386527.2190318.0386527.1546107.0708633.3092215.1159581.4573901.0515369.1997055.1030738.3865267.1674949.5797901.0773053.225474.1610528.4509479.2512424.6699798.1481686.3478741.3092214.682864.4831585.9985275.0966317.1868213.1997055.3672004.3092214.5346954.0837475.1417265.173937.2705687.2641266.399411.1159581.173937.2383582.3349898.3607584.4960427.1288422.1610528.2641266.3156635.3865267.4638321.1610529.1868213.3285478.3543162.4831585.5089269l.0837475.0837475c.1288422.1288423.2705687.2641266.4316216.399411.1095159.0966317.2254739.1932634.3478741.2898951.115958.0901896.2383581.1868213.3672004.2770109.1481686.1095159.3092214.2190318.4831585.3285477.1803791.115958.3672004.231916.5669059.3478741.399411.2190319.8439168.4380637 1.3270753.6313271.1803792.0708632.3672004.1417265.5604638.2061476s.3865268.1288423.5926744.1868213c.3478741.1030738.7150746.1868213 1.0951592.2641266.3092215.057979.6313271.109516.966317.1481686.3285477.0386527.6699797.0708633 1.0242959.0901896.1739371.0064421.3478741.0128842.5282533.0193263h.2448003c.6377692 0 1.2240015-.0257684 1.765139-.0708632l.1095159-.0064421c.2190318-.0193264.4251794-.0450948.6313271-.0708633.3092214-.0386526.6055586-.0837474.8890116-.1352843.1803791-.0322106.3478741-.0644212.515369-.0966317.2641266-.057979.5089269-.115958.7472851-.1803792.1739371-.0450948.341432-.0966317.5024848-.1417265.1932634-.0644211.3800847-.1224001.5604638-.1868213l.167495-.057979c.0901896-.0322105.2061476-.0708632.341432-.1288422.1803791-.0708633.399411-.1546107.6506534-.2641267.1481686-.064421.3092214-.1352843.4767164-.2125897.1481686-.0644211.3027793-.1417265.45739-.2125897.0644211-.0322106.1352843-.0644212.1997055-.1030738v-3.8717099c-.0450948.0257684-.0901896.057979-.1352844.0837474l-.2705687.1610529c-.2641267.1610528-.5153691.3092214-.7730536.4509479-.283453.1481686-.5604638.289895-.8310326.4187373-.4831585.2319161-.9405485.4187374-1.3850543.5797902-.8439168.3027793-1.6169703.4960427-2.3062764.6184428-.0773054.0128843-.1610529.0257685-.2383582.0386527-.1868213.0257685-.3672005.0515369-.5411375.0708632-.2705687.0257685-.5218112.0450948-.7472851.051537-.1481686.0064421-.283453.0128842-.4122952.0128842-.2770109 0-.5604639-.0064421-.8439168-.0322106-.341432-.0193263-.682864-.057979-1.0307381-.115958-.5604639-.0966317-1.1209277-.2383582-1.6749494-.4380637-.0773054-.0257685-.1610528-.0644211-.2448003-.0901896-.0515369-.0257684-.1030738-.0450948-.1546107-.0708632-.0901896-.0322106-.1803792-.0708633-.2705688-.1159581-.1868212-.0901895-.3800846-.1868212-.5604638-.2898951-.0901896-.0515369-.1803792-.1030738-.2770108-.1674949-.0901896-.057979-.1803792-.115958-.2705688-.1803792-.115958-.0773053-.2254739-.1546107-.3349899-.2448002-.1030738-.0773054-.2125897-.167495-.3027793-.2448003l-.1288422-.1159581-.0644212-.0644211-.0386526-.0322106-.0450948-.0450948c-.1739371-.173937-.3349899-.3478741-.4767164-.5218111-.0837475-.1030738-.1610528-.1997055-.2319161-.2963372-.0708632-.0966317-.1352843-.1932634-.1997055-.2898951l-.173937-.2705687c-.0773054-.1352844-.1481686-.2770109-.2190319-.4122953-.057979-.115958-.1095159-.231916-.1546107-.341432-.0837474-.1997055-.1546107-.399411-.2190318-.5797901-.0450948-.1481686-.0837475-.2963372-.1159581-.4316216-.1030738-.4058531-.1546107-.7730536-.1868212-1.0887171-.0128843-.1224001-.0193264-.2319161-.0257685-.341432-.0064421-.1546107-.0064421-.2898951-.0064421-.3929689 0-.0708632 0-.1546107.0064421-.2448003.0064421-.2254739.0257685-.5024848.0708633-.8245904.0257684-.1932634.0644211-.399411.115958-.6184429.0386527-.1481686.0773054-.2898951.1224001-.4445058.0450948-.1417265.0966317-.2770108.1481686-.4187373l.1159581-.2898951c.057979-.1288423.1224001-.2641266.1932634-.3929689.0515369-.1030738.1030738-.1997055.1610528-.3027793.1288423-.2190319.2770108-.4380637.4380637-.6570955.057979-.0773054.1224001-.1546108.1868213-.2319161.0773053-.1030738.1674949-.1997055.2576845-.2963372.0450948-.0515369.0901896-.1030738.1352843-.1481686.7150746-.7150746 1.5138966-1.2433278 2.3384871-1.6234125.1288422-.057979.2576845-.1095159.3929689-.1610528.1288422-.0515369.2576845-.0966317.3929689-.1417265.1417264-.0515369.289895-.0966317.4316215-.1352844.1352844-.0386526.2705688-.0708632.4122953-.1030738.1352843-.0322105.2705687-.057979.4058531-.0837474.1481686-.0257685.3027793-.051537.4509479-.0708633s.2963372-.0322106.4445058-.0450948c.283453-.0257684.5604638-.0386527.8310326-.0386527h.2705687c.1997055.0064422.3929689.0128843.5862323.0257685.1288422.0064421.2641266.0193263.3929689.0322106.2383582.0193263.4767163.0515369.7021903.0837474.1997055.0322106.3929689.0644212.5733481.1030738.2770108.0515369.5282532.1159581.7601693.1739371.1481686.0386527.283453.0837475.4058531.115958.1868213.057979.3478741.1095159.4767164.1481686.2125897.0773054.3285477.1224002.3285477.1224002.1932634.0644211.3800847.1417265.5604639.2125897.2512424.0966317.4831584.2061476.7086324.3092214.1868213.0837475.3672004.1739371.5346954.2512424.1417265.0708633.2641266.1352844.3865268.1997055.2125897.1095159.3929688.2125898.5411374.2898951l.3929689.2125897v-3.8072887s-.2383581-.0966317-.6442113-.2512424c-.1803791-.0708633-.399411-.1481686-.6377692-.2319161-.1352843-.0515369-.2770108-.1030738-.4316215-.1546107-.1224002-.0386527-.2448003-.0837475-.3736426-.1224002-.1481686-.0450948-.2963372-.0966317-.4509479-.1481686-.1095159-.0322105-.2254739-.0644211-.341432-.0966317l-.1030738-.0322105-.3478741-.0966317c-.1352844-.0386527-.2770108-.0708633-.4187373-.109516-.0901896-.0193263-.1803792-.0386526-.2770109-.0644211-.1481686-.0322105-.3027793-.0644211-.45739-.0966317-.1546107-.0322105-.3156636-.0644211-.4767164-.0901896zm-42.2428671 11.718139v5.585312h3.6269096s.0708633 0 .1932634-.0064421c.1224002 0 .2963372-.0064422.5024848-.0257685.392969-.0386527.91478-.109516 1.4172649-.283453.4509479-.1481686.8954537-.3800846 1.2368857-.7215166.1288422-.1288423.2383582-.2641267.3221056-.399411.2898951-.450948.3607584-.908338.3736426-1.1660225.0064421-.1095159.0064421-.173937.0064421-.173937s.0064421-.051537 0-.1352844c0-.109516-.0128842-.3221057-.0708633-.5411375-.0708632-.2705687-.1997055-.573348-.4251794-.856801-.0450948-.051537-.0901896-.109516-.1417265-.1546107-.0966317-.1030739-.2061476-.1997055-.3221056-.283453-.1997055-.1481686-.4251795-.2705688-.676422-.3800847-.3221056-.1417265-.689306-.2448003-1.088717-.3221056-.2061476-.0386527-.4251795-.0708633-.6442113-.0901896-.1417265-.0128842-.2770109-.0193264-.4187374-.0322106-.1224001-.006442-.2576845-.0128842-.3865267-.0128842zm0-8.492637v5.2954169h1.7586968s.115958 0 .2705688-.0064421c.1224001 0 .2641266-.0128843.3929689-.0128843.3607583-.0322105.8632431-.0837474 1.365728-.2190318.0966316-.0257685.1932633-.057979.289895-.0966317.392969-.1352844.7666115-.341432 1.0565066-.624885.2383581-.231916.3865267-.4831584.4896005-.7344008.1224002-.3027793.167495-.5926744.1868213-.798822.0128842-.1803792.0128842-.2963372.0128842-.2963372s.0064422-.0901896 0-.225474c-.0128842-.231916-.064421-.6055586-.2448002-.966317-.0901896-.173937-.2061477-.341432-.3736426-.5024848-.1932634-.1932634-.4316216-.347874-.689306-.45739-.4960428-.2190318-1.0629487-.3027793-1.539665-.3349899-.2061477-.0193263-.3994111-.0193263-.5540218-.0193263z"/><path d="m151.1190869 103.8867347h30.2070679v28.4290446h-30.2070679zm7.923799 3.9812258v20.4730351h7.7047671s3.7557519.1030738 5.8301123-1.9712866c1.6942757-1.6878336 1.5718756-3.6397938 1.5718756-3.6397938s.1224001-2.0421498-1.4430333-3.6075833c-1.3335174-1.3335174-3.0342353-1.6878336-3.0342353-1.6878336s.7666115-.3607583 1.3592859-.9469906c.2770108-.2770109 1.256212-1.1660225 1.256212-3.3241303 0-2.1709921-1.4430333-3.420762-1.4430333-3.420762s-1.5847598-1.8746549-5.1601325-1.8746549zm28.9431901-77.4122955c.0644211-.9727591.0837475-1.7007178.0837475-1.7007178.0837474-1.8102338.1674949-3.704215.3285477-5.0570587.3156636-3.0922143 1.5010124-7.8851463 1.5010124-7.8851463.6893061-2.9118351 1.6169703-5.1150378 2.4286766-6.667587.5991165-1.1338119 1.1209276-1.9004233 1.430149-2.3127186 2.5768452-4.1422786 6.8093135-6.8286398 12.252899-6.8286398 8.155715 0 14.6300386 6.4485552 14.6944597 14.475428.0966317 2.3513712-.4638321 4.8573532-1.8939812 7.4535247-2.9826983 5.4049328-3.936131 6.4614393-4.0971839 6.6997975-2.055034 3.2919198-3.0535615 4.8058163-3.6720044 5.9525124-.3929689.7150746-.5604638 1.1917909-1.1531382 3.0342353l-.1030738.3092214.3221056-.0644212c5.6497331-1.1724645 17.7609056-.2641266 20.8402356 10.9644764.2383582.798822.5411375 2.1645499.7472851 3.6011411l.0386527.6570956c.4638321 3.4980673.0901896 8.9738634-2.0357077 14.8297441-.2190319.4831585-1.140254 2.4673293-2.2289711 4.4321737-.9985275 1.7973496-2.5832873 4.4386159-4.3677526 6.1071232-.0064422.006442-.6893061.856801-2.0936868 2.0679182-1.430149 1.2304436-3.53672 2.7636665-6.2230811 3.9618995-12.6458678 5.7077122-30.5871525 1.6942758-35.4316215-13.058163-2.3513713-6.0298178-2.4029082-11.6408982-1.8682128-15.7123136.4445058-3.4336463 1.307749-5.868765 1.649181-6.725566.4831584-1.5589913 1.3464016-3.2403828 1.9133075-4.3033315.6957482-1.2819805 1.3464016-2.3256028 1.3464016-2.3256028 1.5203387-2.3320449 2.8409718-4.1358365 3.820173-5.6561752.8890116-1.3786122 1.1917909-2.0872446 1.3141911-2.6348242.2448003-1.0500644.3800846-2.4995399.45739-3.6140254"/></g><path d="m55.963216 78.057083c-.6764219 0-4.5932266 9.521443-4.5932266 9.521443s6.4678815 6.1264495 6.8093135 6.8093135c.341432.6764218 7.6467881-8.3489785 7.6467881-10.0432542s-9.1864531-6.2875023-9.862875-6.2875023m243.875335 52.065157c-8.7548316 9.3861586-22.9210381 8.7612737-31.7274065.5475796-5.9911651-5.585312-6.7191239-13.6572796-.79238-20.0156451 1.0049697-1.0758329 2.5768453-2.3513712 4.5159213-3.0342352.5282533-.1803792 1.1144855-.3285478 1.7393705-.4058531l.2061476-.0257685-.0450948-.2061476c-1.2111172-5.6819437 2.4866556-11.9372354 4.6640898-14.2692803 8.7612737-9.3926007 22.972575-8.7097368 31.7274066-.5475796 6.0491441 5.643291 6.6997975 13.6766059.7859377 20.0156451-1.0049696 1.0758329-2.570403 2.3578134-4.5094791 3.0342352-.5218111.1803792-1.1080434.3285478-1.7264862.4058531l-.2061477.0257685.0450948.2061476c1.2304436 5.70127-2.512424 11.9501196-4.676974 14.2692803" fill="#000"/><path d="m296.440272 126.953428c2.8667403-3.0728879 5.4693539-9.6180747 1.823118-13.0195104-2.4029082-2.2418553-4.7413952-3.0020246-7.0412295-5.1536904-1.9197497-1.7909074-1.9261918-4.2840051-.4509479-5.8687649 1.3850543-1.4881281 4.161605-3.2146144 5.9847229-1.5138966 2.4930978 2.3320449 2.6928033 6.6418185 5.1408062 8.9223265 1.7780232 1.6620652 4.277563.1288423 5.6175225-1.3077489 4.0778576-4.3677526 3.7106571-9.463464-.5604638-13.4511319-7.1056506-6.6224922-18.3535799-6.9703663-25.1564512.3221056-2.8667403 3.0728879-5.4242592 9.6631695-1.823118 13.0195104 2.4480029 2.2869501 5.9396282 2.9504877 7.6016933 5.7979017 1.3399595 2.3062764 1.0758329 3.5431621-.0644211 5.2696484-1.1531382 1.7586969-4.2066998 3.1695196-6.0298178 1.4688018-2.4480029-2.2869501-2.6477084-6.5967237-5.1408062-8.9223265-1.7780231-1.6556231-4.277563-.1288423-5.6239646 1.3077489-4.0714154 4.3677526-3.6591202 9.5085588.566906 13.451132 7.1507454 6.6675869 18.3535799 6.9768083 25.1564512-.3221057" fill="#ffe400"/><path d="m251.899438 34.979316c3.4078778.7859378 6.9123872 3.0986564 8.6324314 5.8494386 3.9812259 6.3712498-5.1859009 21.1752254-14.4174489 17.619179-6.9123872-2.6670347-8.213694-10.0174857-5.8558807-17.0844836 2.0743604-6.2166391 7.6145776-7.3117983 11.6408982-6.384134" fill="#000"/><path d="m251.486628 65.679785c-1.3399595 7.7112093-8.8772317 21.1172464-19.2748021 20.125161-5.4242591-.515369-17.4065893-5.9976072-8.0590834-19.0686545 1.4043807-1.9712865 2.7572244-3.3949935 4.2324683-4.7413951 1.2884226-1.1660225 2.7507822-2.3384871 4.6512056-3.987668 7.2924719-6.3454813 21.3298361-8.8643475 18.4502116 7.6725566" fill="#000"/><path d="m245.22805 43.02165c-1.9326339 5.7979017-.3607583 9.3281796 2.7701086 10.5328548 3.762194 1.4559175 9.8499908-7.1378613 8.0912939-9.9530646-1.7586968-2.8087613-8.9287686-6.3776919-10.8614025-.5797902" fill="#ffe400"/><path d="m263.533315 106.256787c-16.6721884-3.2403828-22.7664273-16.9620835-20.4537088-28.8413399 2.9376036-15.1260813 16.3500828-20.4021719 28.332413-18.070127 6.5773974 1.4430333 15.4997239 8.2523468 12.9550892 21.3362783-.4122952 2.1387815-1.7844653 4.8315847-3.5431621 6.9059451-.3929689.45739-.9469906 1.0500644-1.6491809 1.649181l-1.9197497 1.6234124.341432 2.4995399.0386527.341432c.1868212 2.2096447-.2770109 4.7413951-1.3464017 6.6869133-1.2368857 2.2418553-2.1258973 3.6011411-3.4143199 4.5352475-2.5639609 1.8746549-5.7721332 2.0292656-9.3410638 1.3335174" fill="#000"/><path d="m270.44699 63.835537c-10.1076753-1.9648445-20.5116878 2.396466-22.856617 14.4561016-1.881097 9.6631695 2.898951 20.750046 16.8203571 23.4557334 6.0684705 1.1789067 6.6547027-1.4108227 7.8529358-3.5753727 1.1917909-2.16455 1.2948647-6.4743236-1.1144856-6.8608504-2.4093502-.3800846-4.8573532.3736426-7.414872-.1224001-3.9232469-.7666114-8.0461992-9.1542426-3.7106571-8.3103258 2.4415608.4767164 6.8479661 3.1050985 12.2979937 4.161605 3.762194.7344009 7.0605558-4.792932 7.5372722-7.2344929 1.9712866-10.1592122-4.7220688-14.9714706-9.4119271-15.9699981" fill="#ffe400"/><path d="m262.509083 71.032537c-1.5847598 2.3835818-1.2111172 7.2022823 2.0099393 7.6145776 3.2210565.4187373 9.1993373-2.9311615 6.8028713-6.6482606-2.2676238-3.530278-6.4099024-4.5739003-8.8128106-.966317" fill="#462682"/><path d="m145.723173 60.588004c-.3672004-.5797902-1.539665-3.0084668-1.539665-3.0084668-1.6105283-3.6720044-2.338487-7.6854408-2.1967605-11.6473403.5669059-16.304988 13.6959322-24.0484078 26.6510214-23.5974599 7.066998.4187374 17.4967789 6.0169335 17.0007362 20.1058347-.0773053 2.2676238-1.0565065 5.2954169-2.5446346 7.7498619-.3672004.5991165-.9083379 1.3850543-1.6298546 2.1903184l-1.7715811 1.9777287.8310326 2.5124241c.0708633.2125897.1288423.399411.167495.5540217.5669059 2.2676238.4960427 4.9733113-.2898951 7.1636297-.908338 2.5188662-1.597644 4.0714154-2.7765507 5.2632063-2.3062765 2.3127186-5.5724278 3.0149089-9.4312535 2.8796245-10.0496962-.3543162-17.3228418-4.7091846-21.5875206-10.6681391 0 0-.515369-.8954537-.8825695-1.4752439" fill="#000" fill-rule="nonzero"/><path d="m145.723173 60.588004c-.3672004-.5797902-1.539665-3.0084668-1.539665-3.0084668-1.6105283-3.6720044-2.338487-7.6854408-2.1967605-11.6473403.5669059-16.304988 13.6959322-24.0484078 26.6510214-23.5974599 7.066998.4187374 17.4967789 6.0169335 17.0007362 20.1058347-.0773053 2.2676238-1.0565065 5.2954169-2.5446346 7.7498619-.3672004.5991165-.9083379 1.3850543-1.6298546 2.1903184l-1.7715811 1.9777287.8310326 2.5124241c.0708633.2125897.1288423.399411.167495.5540217.5669059 2.2676238.4960427 4.9733113-.2898951 7.1636297-.908338 2.5188662-1.597644 4.0714154-2.7765507 5.2632063-2.3062765 2.3127186-5.5724278 3.0149089-9.4312535 2.8796245-10.0496962-.3543162-17.3228418-4.7091846-21.5875206-10.6681391 0 0-.515369-.8954537-.8825695-1.4752439z" stroke="#000" stroke-width=".612001"/><path d="m118.092306 67.830871c-.6699798-.1610528-3.2017302-1.0951592-3.2017302-1.0951592-3.7042149-1.5267808-7.015461-3.9039205-9.6696116-6.8479661-10.9193815-12.1304988-6.847966-26.8185164 2.7829928-35.4960427 5.3727223-4.6061108 16.7623781-7.8207251 26.1936315 2.6541506 1.5203387 1.6878336 2.9247193 4.5481318 3.5496043 7.3440088.1546107.6893061.3156635 1.6298546.3607583 2.7121296l.0966317 2.6477084 2.3449291 1.2304436c.1932634.1095159.3607583.2061476.5024848.2898951 1.9777287 1.2304436 3.8137309 3.2274986 4.7607215 5.3469538 1.1016014 2.4480029 1.6813915 4.0392048 1.6620652 5.7141542-.0515369 3.2661513-1.9133076 6.042702-4.78649 8.6259893-7.472851 6.7320081-15.7251978 8.6453157-22.9339222 7.3182404 0 0-.9920854-.283453-1.6620652-.4445058" fill="#000" fill-rule="nonzero"/><path d="m118.092306 67.830871c-.6699798-.1610528-3.2017302-1.0951592-3.2017302-1.0951592-3.7042149-1.5267808-7.015461-3.9039205-9.6696116-6.8479661-10.9193815-12.1304988-6.847966-26.8185164 2.7829928-35.4960427 5.3727223-4.6061108 16.7623781-7.8207251 26.1936315 2.6541506 1.5203387 1.6878336 2.9247193 4.5481318 3.5496043 7.3440088.1546107.6893061.3156635 1.6298546.3607583 2.7121296l.0966317 2.6477084 2.3449291 1.2304436c.1932634.1095159.3607583.2061476.5024848.2898951 1.9777287 1.2304436 3.8137309 3.2274986 4.7607215 5.3469538 1.1016014 2.4480029 1.6813915 4.0392048 1.6620652 5.7141542-.0515369 3.2661513-1.9133076 6.042702-4.78649 8.6259893-7.472851 6.7320081-15.7251978 8.6453157-22.9339222 7.3182404 0 0-.9920854-.283453-1.6620652-.4445058z" stroke="#000" stroke-width=".612001"/><path d="m168.387815 26.922165c-11.0546659-.3865268-21.3491625 5.9911651-21.8129946 19.1717283-.3672005 10.5650653 6.5645131 21.5102153 21.7743419 22.0449107 6.6418185.231916 6.8286398-2.6090558 7.7305356-5.1085956.8954537-2.4995399.2898951-7.0863243-2.3320449-7.0863243s-5.0892693 1.2046751-7.8851463 1.1080434c-4.2904473-.1481686-10.0690226-8.3489784-5.3276274-8.1814835 2.6670347.0901896 7.7820725 2.1387815 13.741027 2.3449291 4.1100681.1417265 6.6804712-6.274618 6.7706607-8.9352107.3865268-11.1062028-7.5179458-15.0874287-12.658752-15.3579974" fill="#ffe400"/><path d="m162.221424 39.729086c-.9598748 2.8731824 3.1630775 5.8043438 6.2552917 5.70127 3.0922143-.0966317 6.7964292-1.3206332 6.4678815-5.3405117-.5475796-6.7642186-11.228603-4.8315847-12.7231732-.3607583" fill="#462682"/><path d="m103.866832 96.790682c-11.3381189 5.4500276-38.253267 9.5085588-50.0101232-19.0235597-11.5378244-28.0038652 3.8137309-38.5302778 13.8891956-43.6581998 9.5536536-4.8702374 25.652494-5.185901 31.1476164 2.2482974 1.8424443 2.4995399 1.9712865 5.3598381 1.7200441 7.524388-.2512424 2.16455-.9598748 4.3291-1.5783176 6.0555863l-2.3642555 6.4807656 5.8945334.740843c.4316215.057979.8439168.1095159 1.1466961.1610528 2.2289711.3672005 5.1472483.8825695 7.8915884 2.1387816 2.8925088 1.3270752 5.6110804 3.4722989 7.5115038 6.9832505 7.9495674 14.6880176-5.3984907 25.6138412-15.2484815 30.3487943" fill="#000"/><path d="m31.0716 90.836366c.8310326 3.6977729 2.4995398 7.4857353 4.2453525 9.6245168 4.2582367 5.2245537 7.814283 6.0555862 11.6666666 4.7156267.1352844-.1417264.5926744-.5862322.798822-1.0500644.4509479-.9920854.7859378-2.4093502 1.082275-4.3226578.3156635-2.0163814.5411375-4.103626.8696853-5.9589545.2448003-1.3335174.5926744-2.9376036 1.256212-4.4321738-3.4400883 3.2854777-8.4649365 5.4500276-13.4253635 4.5803424-2.9698141-.5218112-5.0312902-1.7329284-6.4936499-3.1566354m22.9274802-5.2889748c2.9247193-2.1452236 6.5387447-1.6105282 9.6051905.1739371 3.0922142 1.7909074 6.3583655 5.1279219 9.4505797 8.4069574 5.5531014 5.8945334 3.3370146 13.5606479 1.0371802 18.295601-2.5317504 5.2181115-6.558071 10.0046015-9.3539481 12.5492361-1.3013068 1.1853488-3.3821093 3.2725934-6.1393337 5.3340696-2.8796245 2.1581078-6.6418185 4.4128474-11.2028345 5.5981962-9.6116326 2.512424-21.3427203-.0901896-33.9434934-13.8118903-26.1163261-28.4419289-7.6918829-52.4130314 1.0114118-60.9037363 5.6046383-5.4564697 12.2722253-5.7979017 18.5983802-3.6140254 5.926744 2.0421498 11.7632984 6.3325971 16.8010307 10.3911283 6.8157556 5.4886802 6.9381557 12.4783728 4.1358366 17.5805263" fill="#000"/><path d="m38.038165 89.464775c8.0590834 1.4172649 19.1846125-9.8950856 9.1284741-17.9863795-10.0561384-8.097736-20.9626357-15.1196392-29.4082458-6.8801767-8.4520523 8.2394625-24.2609976 29.2278667-1.0565066 54.500276 23.2044911 25.2788514 39.8960059 6.8737346 44.8499908 2.3642555 4.9539848-4.5094791 14.713786-17.4838947 8.2974415-24.2932082-6.4163446-6.8028713-11.0482238-10.9773605-14.0889011-6.6933554-3.0406774 4.2904473-.9727591 16.9556415-7.0283453 19.0622124-6.0491441 2.1001288-11.6086876.1288423-16.8590097-6.3068286s-8.3811891-21.0141726-3.3692251-22.2832689c5.0119639-1.2626541 1.4752438 7.0992085 9.5343272 8.5164734" fill="#ffe400"/><path d="m111.0112 27.869866c-8.2201362 7.4019878-11.1963924 19.1395177-2.3771397 28.9444137 7.0734401 7.8529358 19.667771 10.9129394 30.9801214.7279588 4.9346586-4.445058 3.0986564-6.6160501 2.0099393-9.0382846-1.0887171-2.4286766-4.7156267-5.301859-6.5967237-3.478741-1.8875391 1.8166759-2.8216455 4.3999632-4.902448 6.2746181-3.188846 2.8731824-13.0452789.9856433-9.521443-2.1903184 1.9841708-1.7844653 7.0863243-3.8652678 11.518498-7.8529358 3.0535616-2.7507822.4445058-9.1542426-1.3399595-11.1384134-7.4341984-8.2523467-15.8862507-5.6239646-19.7708448-2.2482974" fill="#ffe400"/><path d="m112.121756 41.817685c1.2175594 2.8216455 6.5902816 1.7007178 9.0318424-.7923799 2.4351187-2.4930977 4.5932266-6.2746181 1.539665-8.9094423-5.1536904-4.4386158-12.4654886 5.3211854-10.5715074 9.7018222" fill="#462682"/><path d="m235.640962 61.681876c7.0605558-6.1393337 11.9823302-4.3677526 10.6874655 3.0986564-1.3013069 7.472851-7.86582 16.362967-13.618627 15.8089453-4.3033314-.4122953-9.7855696-3.130867-4.2968893-10.8098657 2.3062765-3.2274986 3.5045095-4.8637953 7.2280508-8.097736" fill="#ffe400"/><path d="m183.902291 50.664574c.566906-2.0743604 2.7507822-5.5917541 2.7507822-5.5917541 3.0664458-4.6834161 5.1536905-7.0605558 5.7979018-9.8757592.7150745-3.1179827.5797901-4.4901528.5797901-4.4901528.1030738-2.1258973.1739371-4.7027425.3800847-6.3905761.2641266-2.795877 1.3850543-7.2795877 1.3850543-7.2795877 1.1789067-5.018406 3.1179827-7.3246824 3.1179827-7.3246824 1.713602-2.8989509 4.4257316-4.6576477 8.097736-4.6576477 5.4307013 0 9.6502853 4.2711209 9.6502853 9.5472114.0644211 1.3914964-.2319161 3.0084668-1.2755384 4.8895638-2.8409718 5.1601325-3.7557519 6.1651021-3.9039205 6.3905761-4.3677526 6.9961347-4.1744892 6.384134-5.4307012 10.2880545-.5282533 1.4623596-.8761274 2.737898-.5926744 4.0005521.4702742 2.1452237 2.2676238 2.9826983 3.6269096 3.0600037.5475796.0386527 1.2690963-.057979 2.0808025-.2319161.2641266-.057979.5540217-.1352843.856801-.1674949 4.7736058-1.082275 13.1032579.0773053 15.0745445 7.3826615.1868212.6313271.4122952 1.5461071.5797901 2.6992453l.0322106.682864c.3800847 2.6412663.2190318 7.1700718-1.6749494 12.4010675-.3865268.8374747-3.1050985 6.6418185-5.3791643 8.774158l-.1481686.1352843s-.7279588.8761274-1.7909075 1.7909074c-1.1595803.9920854-2.853856 2.222529-4.9926375 3.1759617-10.8936131 4.9346586-25.0598196.966317-28.615866-10.1463279-4.045647-10.204307-.2061476-19.0622124-.2061476-19.0622124" fill="#ffe400" fill-rule="nonzero"/><path d="m215.330204 64.493214c-2.9376035 3.0600037-9.4892325 6.3583655-13.7861218 2.2482974-4.2904473-4.103626-4.78649-13.5799742-.2512424-14.5785017 4.5352475-1.0049696 22.80508 3.2017302 14.0373642 12.3302043" fill="#462682"/><path d="m69.902724 38.343389c-8.9287686 4.5481318-21.8516473 12.8584575-11.6537824 37.6154978 10.204307 24.7505982 33.2670715 21.490889 43.555126 16.5433462 9.8564329-4.734953 18.7787594-13.3545003 13.1290263-23.7907233-5.3662802-9.920854-19.1846125-3.9618995-22.3412479-11.9758881-1.3850543-3.4980673 5.8043438-13.0452788 2.4737714-17.5547579-3.3305724-4.503037-16.2341248-5.3856065-25.1628934-.8374747" fill="#ffe400"/><path d="m79.608991 60.275498c3.762194-4.3290999 2.905393-13.2965212-1.7715811-14.5140806-6.6869133-1.7329284-11.6795508 7.7047672-9.8435486 10.7905393 1.8360022 3.07933 7.8529357 8.0526412 11.6151297 3.7235413m17.151482 16.995582c-1.3528437 3.7428677-5.7077121 9.0704951-10.9515921 7.1893981-5.24388-1.8875391-9.2830848-9.8113381-5.7785754-12.4010675 3.5045095-2.5897294 20.7629302-5.9525124 16.7301675 5.2116694" fill="#462682"/><g fill="#000" fill-rule="nonzero"><path d="m127.900359 119.560331v5.585312h3.6269096s.0708633 0 .1932634-.0064421c.1224002 0 .2963372-.0064422.5024848-.0257685.392969-.0386527.91478-.109516 1.4172649-.283453.4509479-.1481686.8954537-.3800846 1.2368857-.7215166.1288422-.1288423.2383582-.2641267.3221056-.399411.2898951-.450948.3607584-.908338.3736426-1.1660225.0064421-.1095159.0064421-.173937.0064421-.173937s.0064421-.051537 0-.1352844c0-.109516-.0128842-.3221057-.0708633-.5411375-.0708632-.2705687-.1997055-.573348-.4251794-.856801-.0450948-.051537-.0901896-.109516-.1417265-.1546107-.0966317-.1030739-.2061476-.1997055-.3221056-.283453-.1997055-.1481686-.4251795-.2705688-.676422-.3800847-.3221056-.1417265-.689306-.2448003-1.088717-.3221056-.2061476-.0386527-.4251795-.0708633-.6442113-.0901896-.1417265-.0128842-.2770109-.0193264-.4187374-.0322106-.1224001-.006442-.2576845-.0128842-.3865267-.0128842zm0-8.492637v5.2954169h1.7586968s.115958 0 .2705688-.0064421c.1224001 0 .2641266-.0128842.3929689-.0128842.3607583-.0322106.8632431-.0837475 1.365728-.2190319.0966316-.0257685.1932633-.057979.289895-.0966317.392969-.1352844.7666115-.341432 1.0565066-.624885.2383581-.231916.3865267-.4831584.4896005-.7344008.1224002-.3027793.167495-.5926744.1868213-.798822.0128842-.1803792.0128842-.2963372.0128842-.2963372s.0064422-.0901896 0-.225474c-.0128842-.231916-.064421-.6055586-.2448002-.966317-.0901896-.173937-.2061477-.341432-.3736426-.5024848-.1932634-.1932634-.4316216-.347874-.689306-.45739-.4960428-.2190318-1.0629487-.3027793-1.539665-.3349899-.2061477-.0193263-.392969-.0193263-.5540218-.0193263z"/><path d="m116.3123504 103.8867347h30.2070678v28.4290446h-30.2070678zm7.9237989 3.9812258v20.4730351h7.7047672s3.7557519.1030738 5.8301123-1.9712866c1.6942757-1.6878336 1.5718755-3.6397938 1.5718755-3.6397938s.1224002-2.0421498-1.4430333-3.6075833c-1.3335174-1.3335174-3.0342352-1.6878336-3.0342352-1.6878336s.7666114-.3607583 1.3592858-.9469906c.2770109-.2770109 1.2562121-1.1660225 1.2562121-3.3241303 0-2.1709921-1.4430333-3.420762-1.4430333-3.420762s-1.5847598-1.8746549-5.1601325-1.8746549z"/></g></g></svg>