<svg viewBox="0 0 48 48" xmlns="http://www.w3.org/2000/svg"><g fill="none" fill-rule="evenodd"><rect fill="#bb1919" height="48" rx="8" width="48"/><g fill="#fff" transform="translate(8 14)"><path d="m6.45968184.81531998h1.11172061v8.17407205h-1.00639971l-5.46498446-6.28999818v6.28999818h-1.10001828v-8.17407205h.9478881l5.51179374 6.34265863zm2.5798428 0h4.63411956v1.04150668h-3.4638873v2.49259462h3.3468641v1.04735784h-3.3468641v2.53940391h3.5750594v1.04150667h-4.74529166zm16.68217956 0h1.164381l-3.305906 8.20917901h-.2515999l-2.6739807-6.64691899-2.6973852 6.64691899h-.2515999l-3.2942037-8.20917901h1.1760833l2.2526971 5.63466813 2.2643993-5.63466813h1.1117206l2.2761017 5.63466813zm4.1016639 4.74529165-.8893765-.53830682c-.5578135-.33936904-.9547133-.67385707-1.1907113-1.00347413s-.3539952-.70896354-.3539952-1.13805083c0-.64363094.223317-1.16632944.6699579-1.56811117.4466409-.40178174 1.0268752-.6026696 1.7407204-.6026696.6826389 0 1.3087069.19113602 1.8782227.57341379v1.32821357c-.5890198-.56561507-1.2228892-.84841836-1.9016273-.84841836-.3822778 0-.696287.08874172-.9420369.26622783-.24575.17748611-.3686232.40470392-.3686232.68166027 0 .24574999.0897169.47589336.2691534.69043701.1794365.21454364.4700413.43883591.871823.67288352l.8952277.5266045c.9986031.59292062 1.4978972 1.34966322 1.4978972 2.2702505 0 .65533332-.2194163 1.18778366-.6582556 1.59736698s-1.0093218.61437191-1.7114646.61437191c-.8074643 0-1.5427529-.24769667-2.2058878-.74309745v-1.48619492c.6319286.79966268 1.3633164 1.19948802 2.1941854 1.19948802.3666746 0 .6719071-.10239429.9157067-.30718596.2437996-.20479166.3656976-.46126499.3656976-.76942768 0-.49930157-.3588676-.97129052-1.0766136-1.41598098z" transform="translate(0 10.1)"/><path d="m20.9954047 7.9999362h7.6606329v-7.2186862h-7.6606329zm6.1398906-1.41464473c-.0174163.00829392-.0341954.01552452-.0509746.02381844-.0392929.01935247-.0787982.03891761-.1166044.05550545-.040992.01956514-.0828337.03700363-.1206398.05444213-.0630811.0270084-.1180912.04870019-.1646055.06656401-.0352575.01361053-.0643555.02466909-.0855949.03168702l-.0446027.01594984c-.0443904.01531185-.0921791.0306237-.1412422.04572289-.040992.01212188-.0847452.02424376-.128286.03636564-.0594704.01637517-.1221267.03253768-.1886061.04614821-.0422664.00956991-.0855948.01743849-.1312596.02594508-.0707272.01297254-.1469767.02360577-.2253502.03381366-.0520366.00637994-.1051351.01233455-.1592956.01658784l-.0278236.00318997c-.1378439.01169655-.2867322.01807649-.447727.01807649-.0206022 0-.0422664-.00170132-.063081-.00170132-.0443904-.00085066-.0887808-.00191398-.132534-.00467862-.0898427-.00446595-.1769243-.01169655-.2612448-.0233931-.0832585-.00871925-.1650303-.02147912-.2431913-.03572765-.0972766-.01935248-.1898804-.04189492-.278024-.06635135-.0516118-.01701316-.102374-.03232501-.1501627-.04891285-.0499126-.01658783-.0970641-.03445166-.1433661-.05252815-.1225514-.04912551-.2344831-.10314231-.3349456-.15992375-.0513993-.02977304-.0998252-.0582701-.1452776-.08783047-.0435408-.0276464-.0838957-.05593078-.1231886-.08421517-.0318591-.02275511-.0618067-.04763687-.0911171-.07060464-.0316467-.0240311-.0611695-.04933818-.088356-.07273128-.0412044-.03445166-.0773114-.06975398-.1095954-.10122834l-.022089-.0204158c-.0397177-.04040627-.0807097-.08272652-.1214894-.13078871-.0327087-.03700363-.0660546-.07655924-.0987633-.11760351-.0305848-.03998094-.0613819-.08166319-.0915419-.12504676-.0229386-.034239-.04524-.06635135-.0673289-.101441-.0267617-.04402157-.0530986-.08995712-.0787983-.13716865-.0435408-.07974922-.0838957-.16460238-.1206399-.25243285-.0242129-.05529279-.0448151-.11292489-.0647802-.17162031-.0161419-.04784953-.0303724-.09569905-.0433284-.14737655-.0114693-.03679097-.0197527-.07507059-.028036-.11505153-.0036107-.01892715-.0076462-.03679097-.0116817-.05635611-.009133-.04699887-.0165668-.09463573-.0218766-.14333592l-.0038231-.02785906c-.0048851-.04232025-.0082834-.08378984-.0106197-.12462144-.0029735-.04104426-.0033983-.08059987-.0033983-.12249479 0-.05550545.0025487-.10973492.0053098-.16226307.0038231-.07039197.0112569-.1386573.0199651-.20564664.0282484-.21181391.0804974-.41214394.152499-.59928876.057134-.14971586.1270117-.28901115.2077215-.42001253.0135932-.02190445.0263369-.04444689.0418416-.06613868.0197527-.03147436.0414169-.06294871.0637183-.09399774.0297352-.04125693.0611695-.0816632.0926039-.12079348.029098-.0365783.0598951-.0708173.0913295-.10633228.0310095-.033601.0622314-.06571335.0940906-.09825103.0378061-.03742897.0770991-.07358195.1176663-.10994759.044178-.03891761.0906923-.07677191.1401802-.11483887.022089-.0168005.0460895-.03487699.0707272-.05146482.0267617-.0204158.0550101-.04040627.0849577-.05954608.0499126-.03317567.1021616-.06507536.1569593-.09740038.0560721-.03232501.1149053-.0635867.1758624-.09314708.0730636-.03530232.1493131-.06932865.2293857-.10059034.1554725-.06039674.3234763-.11207423.5057105-.15035385.0288856-.00616727.0586208-.01212188.0892056-.0174385.0214518-.00425329.0443903-.00765592.0658421-.01148388l.0509746-.00893191.0412045-.00595461.0365318-.00467862c.0448152-.00595461.089418-.01063323.1350827-.01467386.0310096-.00255197.0626563-.00489128.0938782-.00765592.0552225-.00255198.1119318-.00574195.169703-.0065926.0314343-.000638.0482134-.00148866.080285-.00148866.0690281 0 .1408173.00233931.2130313.0065926.0414169.00276464.0815594.00489129.1223391.00914458.0601075.00595461.1197903.01212188.1777739.02020314l.0418416.0059546c.0354699.00574195.0698777.01190922.1030112.01701317.0403549.00786859.0815594.01552451.1214895.02318044.0384433.00850658.0779486.0168005.1146928.02530708.0248501.00510395.0475763.01127122.0705149.01637517.0356822.00914458.0715768.01828916.1064095.02828439.029098.00786859.0586208.01594984.0877188.02360577l.0261244.00765592c.0293104.00871925.0588332.01701317.0875064.02594508.0388682.01127122.0768867.02509442.1136309.03657831.0327087.00999523.0647802.02126645.0951526.03168702.0384434.01339787.0741256.02615774.1078962.03806696.0624439.02232978.1159673.04295824.1631188.05997141.1034359.03934294.1635435.06379937.1635435.06379937v.96741113l-.1000377-.05486746c-.0373813-.0197778-.0832585-.04636088-.1361446-.0737946-.0314344-.01552452-.0641431-.03232502-.0994005-.05040151-.0422664-.0204158-.0875064-.04274558-.1344455-.0635867-.0575588-.02637041-.1172416-.05380414-.1798979-.07889856-.0460895-.01807649-.0936658-.0372163-.1420917-.0546548 0 0-.0305847-.01148388-.0847453-.03019836-.0316467-.01042057-.0720016-.02360577-.1193655-.0378543-.0314343-.00978257-.066267-.01956514-.1047103-.02913504-.0567092-.01573718-.1225514-.03083637-.1922167-.04508489-.0456648-.00893192-.0947278-.0174385-.1452776-.02551975-.0562845-.00829392-.1159673-.01637517-.1781987-.02232978-.032284-.00318997-.0660546-.00425329-.0991881-.0065926-.0488507-.0036153-.0985509-.00489129-.1488883-.00595461-.0229386-.00085066-.0454524-.00085066-.0690281-.00085066-.0679662 0-.1393306.00276464-.2106951.00914458-.0369565.00340263-.0745503.00701793-.1123565.01275987-.0375937.00467862-.0764619.01042056-.1140556.0174385-.0337707.0065926-.0688158.01297253-.1036484.02147912-.0339831.00850658-.0698777.01637517-.1038607.02615774-.0361071.0102079-.073276.02084113-.1087459.03275034-.0346202.01233455-.0681785.02381844-.10025.0372163-.0335583.01339787-.0669042.02594508-.0991881.04125693-.2098454.09527373-.4126819.23137905-.5927921.41086795-.0114693.01233455-.0240006.02530709-.0352574.03700364-.023151.02488175-.0448152.05125216-.066267.07677191-.0159296.01935247-.031222.03955561-.0456648.05869542-.0422664.05529279-.0790106.11079824-.1112945.16715435-.0138056.02594508-.0286732.05082683-.0418417.07570859-.0165667.03381367-.0329211.06677667-.0475763.10059034-.0106197.02530708-.0212394.04933818-.0299475.07315661-.0135933.03615298-.0265493.07124263-.0373814.10611962-.0114693.03976828-.0218766.07592126-.0305848.11249956-.0133808.05593078-.0229386.10973492-.0307971.15779711-.0116817.08123787-.0157172.15333116-.0180535.20947461-.0006372.02318043-.0014868.04359623-.0014868.06231072 0 .02679573.0008496.06082206.0029735.10101567.0008496.02594507.0025488.05422946.0055223.08527849.0072214.07974921.0212394.17417228.0465143.27582595.0093453.03657831.0189031.07358194.0312219.10994758.0152924.04763687.0331335.0978257.0539482.14716389.0127436.02892238.0256996.05827009.040992.08719247.017204.03402633.0352575.06911599.0556473.10399297.0138056.02318044.0269741.04763687.0424788.07017931.0163544.0240311.0327087.04891285.0505498.0714553.0186907.02615774.038231.05231548.0588332.07655924.0365318.04402157.0775239.08804314.1212771.13249003l.0118941.0108459.0099825.00871924.016142.0168005.0324963.02913505c.0227261.01977781.0499126.04253291.0770991.06294871.0273988.02126646.0558596.04189492.084108.06231072.0233634.01594985.0469392.03104903.0694529.04678621.024213.01424852.0473639.02785906.0696653.04061893.0471515.02615774.094303.05146483.1427289.07315661.0218766.01042057.0443904.02062847.0679661.03083637.0129561.00531661.0265493.01063323.0397178.0161625.0203898.00850659.0412044.01573718.0622314.02339311.1399678.05167749.2820595.0876178.4239388.11186156.0885684.01424853.1760748.0240311.261882.02977304.072214.00574194.1440033.00744326.2145181.00744326.0314344 0 .0658422-.00148865.1038608-.00318997.0575588-.00191398.1208523-.00574194.1890308-.01403586.0437532-.00404063.0900551-.01042056.1378438-.01765116.0199651-.00233931.0407797-.0065926.0615943-.01042056.1731013-.02934771.3704154-.07847323.5836592-.15630846.1132061-.0408316.2298105-.08846846.3513-.14631323.0692405-.03211235.1382686-.06890332.2098454-.10633228.0656298-.03551499.1299852-.07400727.1971018-.11547686l.0679661-.0408316c.0112569-.00637994.0235758-.01318521.0352574-.02062847zm-10.9304411-.41405792c-.0526738.00531662-.096427.00637994-.1278613.00744326-.0297352.000638-.0482135.00127599-.0482135.00127599h-.9200915v-1.41826002s.5626321.00063799.8899315.00063799c.0316468 0 .0654174.00085066.0968518.0029773.0363194.00276464.0713644.00404063.1047103.00765593.0577712.00595461.1125689.01403586.1641807.0233931.1021616.01871448.1945531.04551022.2771744.08208853.0622315.02722106.1200027.05848275.1703401.09548639.0303724.02232978.0575588.04636088.0826213.07145529.0133809.01212189.0240006.02615775.0356823.04125693.0575588.06996665.0904799.14801454.1078962.21627987.0146552.05656878.0174163.10973492.0178411.13653065.0012744.02211712.0012744.03381367.0012744.03381367s0 .01828915-.0029735.04657354c-.0031859.0648627-.0216642.18161555-.0934535.2947531-.0227261.03466432-.050125.06911598-.0828337.10314232-.0853825.08485316-.1985885.14333592-.314131.18267886-.1276489.04359624-.2591209.06146006-.3589461.0708173zm-.6507758-2.22170677h-.4453905v-1.34489075h.6138191c.0409921 0 .0885684.00127599.1410297.00531662.1208523.00850658.2642184.02977304.3903805.08527849.0643555.02870972.1253126.06656401.1750128.11654018.0420541.0408316.072214.08251386.0949402.12696075.0458772.09080778.0579836.18693216.0618067.24520225.0006372.03466433.0006372.05656878.0006372.05656878s0 .03041103-.0044603.07634658c-.0040355.05210282-.0152924.12568476-.0473639.20266934-.0254873.06273605-.0639306.12717341-.1229762.18586883-.0745503.07315661-.1697029.12440878-.2686786.16056175-.0244254.00871925-.0497003.01573718-.074338.02318044-.1267993.03530232-.2540234.04784953-.3447157.0546548-.0327087.00148865-.0696653.00361529-.1000377.00510395-.0397177.00063799-.0696653.00063799-.0696653.00063799zm-3.3840763 4.05040942h7.6597834v-7.2186862h-7.6597834zm2.0090365-6.20640284h1.6851353c.9071355 0 1.3077109.47530531 1.3077109.47530531s.3672296.31729554.3672296.86873478c0 .54824926-.2493508.77324838-.3198657.84342769-.1495255.14971585-.3436537.24116162-.3436537.24116162s.4311601.09080777.7692916.42830645c.3961152.39704475.3648932.91573364.3648932.91573364s.031222.49614644-.3971771.92424023c-.5263127.52783346-1.4789006.50210105-1.4789006.50210105h-1.9546635zm-6.80022416 4.37770019c-.05267375.00531662-.09748892.00637994-.12786129.00744326-.03037236.000638-.04842587.00127599-.04842587.00127599h-.92030394v-1.41826002s.56326934.00063799.89014397.00063799c.0329211 0 .0654174.00085066.09663935.0029773.03674419.00276464.07093965.00404063.10619708.00765593.05607206.00595461.11129455.01403586.16375591.0233931.10152441.01871448.19370348.04551022.27653721.08208853.06265628.02722106.11936552.05848275.17034012.09548639.02952279.02232978.05755882.04636088.08262133.07145529.01338083.01212189.02442533.02615775.03525743.04125693.05777122.06996665.09026753.14801454.10768385.21627987.0144428.05656878.01784111.10973492.01911547.13653065.00063719.02211712 0 .03381367 0 .03381367s0 .01828915-.00233633.04657354c-.00424789.0648627-.0218766.18161555-.09430301.2947531-.0218766.03466432-.04927545.06911598-.08240894.10314232-.08580725.08485316-.19795137.14333592-.31413098.18267886-.12701171.04359624-.2586961.06146006-.35852136.0708173zm-.65141292-2.22170677h-.44517818v-1.34489075h.61488112c.03971771 0 .0875064.00127599.14060494.00531662.1204275.00850658.26400596.02977304.38974331.08527849.06456782.02870972.12552495.06656401.17607476.11654018.04099208.0408316.07157684.08251386.09409062.12696075.04630193.09080778.058196.18693216.06138192.24520225.00148676.03466433.00084957.05656878.00084957.05656878s0 .03041103-.00403549.07634658c-.00446027.05210282-.01529238.12568476-.04693911.20266934-.02612448.06273605-.06435543.12717341-.1238258.18586883-.07455035.07315661-.16906576.12440878-.26825384.16056175-.02485011.00871925-.05033741.01573718-.07433796.02318044-.12658692.03530232-.25423582.04784953-.34535292.0546548-.03292109.00148865-.06945289.00361529-.10003765.00510395-.03929292.00063799-.06966529.00063799-.06966529.00063799zm-3.38365152 4.05040942h7.6597833v-7.2186862h-7.6597833zm2.00946124-6.20640284h1.68513535c.90649832 0 1.30856048.47530531 1.30856048.47530531s.36659234.31729554.36659234.86873478c0 .54824926-.25020034.77324838-.31944084.84342769-.15058746.14971585-.34514052.24116162-.34514052.24116162s.43158495.09080777.76907929.42830645c.39738949.39704475.36595515.91573364.36595515.91573364s.03143434.49614644-.39781428.92424023c-.52588796.52783346-1.4789006.50210105-1.4789006.50210105h-1.95402637z"/></g></g></svg>