<svg id="Layer_1" xmlns="http://www.w3.org/2000/svg" viewBox="-176 81 246.5 140"><style>.st0{fill:#fff}</style><g id="Desktop_-_white"><path class="st0" d="M-176 119.3h2.4v62.2h-2.4zm17.9 12c0-2 0-2.8-.1-4.1h2.3v3.5h.1c.8-2.1 2.4-4 4.7-4 .5 0 1.2.1 1.6.2v2.4c-.5-.1-1.1-.2-1.7-.2-3.6 0-4.6 4.1-4.6 7.4v9.1h-2.3v-14.3zm22.7 11.4c-1.1 2.2-3.7 3.4-5.9 3.4-5.2 0-6.1-3.5-6.1-5.2 0-6.2 6.6-6.5 11.4-6.5h.4v-.9c0-3.1-1.1-4.7-4.2-4.7-1.9 0-3.7.4-5.4 1.5V128c1.4-.7 3.8-1.3 5.4-1.3 4.6 0 6.5 2.1 6.5 6.9v8.1c0 1.5 0 2.6.2 3.9h-2.2l-.1-2.9zm-.2-6.4h-.7c-3.9 0-8.6.4-8.6 4.5 0 2.4 1.7 3.3 3.8 3.3 5.4 0 5.5-4.7 5.5-6.7v-1.1zm22.3 9.3h-2.3v-2.9h-.1c-1.2 2.4-3.1 3.4-5.8 3.4-5.1 0-7.6-4.2-7.6-9.7 0-5.6 2.2-9.7 7.6-9.7 3.6 0 5.4 2.6 5.8 3.5h.1v-11.7h2.3v27.1zm-7.7-1.5c4 0 5.5-4.3 5.5-7.7 0-3.4-1.5-7.7-5.5-7.7-4.3 0-5.5 4.1-5.5 7.7 0 3.6 1.1 7.7 5.5 7.7zm15.5-21.8h-2.3v-3h2.3v3zm-2.3 4.9h2.3v18.5h-2.3v-18.5zm14.5-.4c6 0 8.6 4.6 8.6 9.7 0 5-2.6 9.7-8.6 9.7s-8.6-4.6-8.6-9.7 2.6-9.7 8.6-9.7zm0 17.3c4 0 6.1-3.4 6.1-7.7 0-4.3-2.1-7.7-6.1-7.7s-6.1 3.4-6.1 7.7c0 4.3 2.1 7.7 6.1 7.7zm-54.4 16.8c-.9-.4-1.8-.7-3.3-.7-3 0-4.9 2.4-4.9 5.9 0 3.4 1.6 6.1 5 6.1 1.4 0 2.9-.5 3.7-.9l.2 4c-1.4.4-2.9.6-4.9.6-6.1 0-9.2-4.2-9.2-9.8 0-5.4 3.2-9.7 9-9.7 2 0 3.4.2 4.7.6l-.3 3.9zm12.4 9.5l4.6-13.6h4.9l-7 18.5c-1.6 4.1-2.7 8.2-7.7 8.2-1.2 0-2.3-.2-3.4-.5l.3-3.6c.6.2 1.3.3 2.5.3 2 0 3.1-1.3 3.1-3.3l-7.1-19.6h5.4l4.4 13.6zm12.3-13.6h4.5v2.6h.1c1.5-2.3 3.7-3 5.5-3 2.6 0 4.4 1 5.5 3.3 1.1-2.2 3.5-3.3 5.8-3.3 4.6 0 5.9 3.2 5.9 7.3v11.8h-4.8v-11.1c0-1.7 0-4.2-2.8-4.2-3.2 0-3.6 3.8-3.6 6.3v9h-4.8v-11.1c0-1.7 0-4.2-2.8-4.2-3.2 0-3.6 3.8-3.6 6.3v9h-4.9v-18.7zm31.3 0h4.3v4.2h.1c.2-1.7 2.2-4.7 5.1-4.7.5 0 1 0 1.5.1v4.9c-.4-.3-1.3-.4-2.2-.4-3.9 0-3.9 4.9-3.9 7.6v6.8h-4.8l-.1-18.5zm31.2 18.7h-4.6V173h-.1c-1.5 1.8-3.6 3-6.1 3-4.4 0-6.3-3.1-6.3-7.3v-11.9h4.9v9.9c0 2.3 0 5.4 3.1 5.4 3.5 0 4.3-3.8 4.3-6.2v-9.1h4.8v18.7z" id="Radio_Cymru_65_x25_"/></g></svg>