<svg xmlns="http://www.w3.org/2000/svg" viewBox="0 0 32 32" enable-background="new 0 0 32 32"><style type="text/css">.st0{fill:#BA2026;}</style><path class="st0" d="M10.9 10.6l.3-.2c.1-.1.1-.3.1-.4 0-.2-.1-.4-.3-.6-.2-.2-.5-.3-.8-.3h-1v3.3h1.2c.4 0 .7-.1.9-.3.2-.2.3-.4.3-.6 0-.5-.3-.8-.7-.9zm-1.1-1h.4c.2 0 .4 0 .4.1.1.1.1.2.1.3 0 .2-.1.3-.2.3-.1.1-.3.1-.5.1h-.2v-.8zm1.1 2.1c-.1.1-.3.2-.5.2h-.6v-.9h.5c.2 0 .4.1.5.1.1.1.2.2.2.3 0 .1 0 .2-.1.3zM21.8 11.9c-.8 0-1.3-.5-1.3-1.2s.5-1.2 1.3-1.2c.4 0 .7.1 1.1.3h.1v-.5c-.5-.2-.9-.3-1.3-.3-.6 0-1 .2-1.4.5s-.5.7-.5 1.2c0 .3.1.8.5 1.1.3.3.8.6 1.4.6.5 0 .9-.1 1.2-.3v-.6h-.1c-.3.3-.7.4-1 .4zM16.5 10.6l.3-.2c.1-.1.1-.3.1-.4 0-.2-.1-.4-.3-.6-.2-.2-.5-.3-.8-.3h-1v3.3h1.2c.4 0 .7-.1.9-.3.2-.2.3-.4.3-.6 0-.5-.3-.8-.7-.9zm-1.1-1h.4c.2 0 .4 0 .4.1.1.1.1.2.1.3 0 .2-.1.3-.2.3-.1.1-.3.1-.5.1h-.3v-.8zm1.1 2.1c-.1.1-.3.2-.5.2h-.6v-.9h.5c.2 0 .4.1.5.1.1.1.2.2.2.3 0 .1 0 .2-.1.3zM16 0c-8.8 0-16 7.2-16 16s7.2 16 16 16 16-7.2 16-16-7.2-16-16-16zm3.1 8.4h4.9v4.6h-4.9v-4.6zm-5.6 0h4.9v4.6h-4.9v-4.6zm-5.6 0h4.9v4.6h-4.9v-4.6zm1.2 13h-.8l-4.1-4.7v4.7h-.8v-6.2h.7l4.2 4.8v-4.8h.8v6.2zm5.1 0h-3.6v-6.2h3.5v.8h-2.6v2h2.5v.8h-2.5v1.9h2.7v.7zm7.8.1h-.2l-2-5-2 5h-.2l-2.6-6.2h.9l1.7 4.2 1.7-4.2h.8l1.7 4.2 1.7-4.2h.9l-2.4 6.2zm4.7 0c-.6 0-1.2-.2-1.7-.6v-1.1c.5.6 1 .9 1.7.9.3 0 .5-.1.7-.2.2-.2.3-.3.3-.6 0-.4-.3-.7-.8-1.1l-.7-.4c-.4-.3-.7-.5-.9-.8-.2-.2-.3-.5-.3-.9 0-.5.2-.9.5-1.2.3-.3.8-.5 1.3-.5s1 .1 1.4.4v1c-.4-.4-.9-.6-1.4-.6-.3 0-.5.1-.7.2-.2.1-.3.3-.3.5s.1.4.2.5c.1.2.4.3.7.5l.7.4c.8.4 1.1 1 1.1 1.7 0 .5-.2.9-.5 1.2-.3.6-.8.7-1.3.7z"/></svg>