<?xml version="1.0" encoding="utf-8"?>
<!-- Generator: Adobe Illustrator 19.1.0, SVG Export Plug-In . SVG Version: 6.00 Build 0)  -->
<svg version="1.1" id="Layer_1" xmlns="http://www.w3.org/2000/svg" xmlns:xlink="http://www.w3.org/1999/xlink" x="0px" y="0px"
	 viewBox="-176 81 246.5 140" style="enable-background:new -176 81 246.5 140;" xml:space="preserve">
<style type="text/css">
	.st0{fill:#FFFFFF;}
</style>
<g id="Desktop_-_white">
	<g id="Radio_Cymru_65_x25_">
		<rect x="-176" y="119.3" class="st0" width="2.4" height="62.2"/>
		<path class="st0" d="M-158.1,131.3c0-2,0-2.8-0.1-4.1h2.3v3.5h0.1c0.8-2.1,2.4-4,4.7-4c0.5,0,1.2,0.1,1.6,0.2v2.4
			c-0.5-0.1-1.1-0.2-1.7-0.2c-3.6,0-4.6,4.1-4.6,7.4v9.1h-2.3C-158.1,145.6-158.1,131.3-158.1,131.3z"/>
		<path class="st0" d="M-135.4,142.7L-135.4,142.7c-1.1,2.2-3.7,3.4-5.9,3.4c-5.2,0-6.1-3.5-6.1-5.2c0-6.2,6.6-6.5,11.4-6.5h0.4
			v-0.9c0-3.1-1.1-4.7-4.2-4.7c-1.9,0-3.7,0.4-5.4,1.5V128c1.4-0.7,3.8-1.3,5.4-1.3c4.6,0,6.5,2.1,6.5,6.9v8.1c0,1.5,0,2.6,0.2,3.9
			h-2.2L-135.4,142.7L-135.4,142.7z M-135.6,136.3h-0.7c-3.9,0-8.6,0.4-8.6,4.5c0,2.4,1.7,3.3,3.8,3.3c5.4,0,5.5-4.7,5.5-6.7V136.3z
			"/>
		<path class="st0" d="M-113.3,145.6h-2.3v-2.9h-0.1c-1.2,2.4-3.1,3.4-5.8,3.4c-5.1,0-7.6-4.2-7.6-9.7c0-5.6,2.2-9.7,7.6-9.7
			c3.6,0,5.4,2.6,5.8,3.5h0.1v-11.7h2.3V145.6z M-121,144.1c4,0,5.5-4.3,5.5-7.7c0-3.4-1.5-7.7-5.5-7.7c-4.3,0-5.5,4.1-5.5,7.7
			C-126.5,140-125.4,144.1-121,144.1z"/>
		<path class="st0" d="M-105.5,122.3h-2.3v-3h2.3V122.3z M-107.8,127.2h2.3v18.5h-2.3V127.2z"/>
		<path class="st0" d="M-93.3,126.8c6,0,8.6,4.6,8.6,9.7c0,5-2.6,9.7-8.6,9.7s-8.6-4.6-8.6-9.7S-99.3,126.8-93.3,126.8z
			 M-93.3,144.1c4,0,6.1-3.4,6.1-7.7c0-4.3-2.1-7.7-6.1-7.7s-6.1,3.4-6.1,7.7C-99.4,140.7-97.3,144.1-93.3,144.1z"/>
		<path class="st0" d="M-147.7,160.9c-0.9-0.4-1.8-0.7-3.3-0.7c-3,0-4.9,2.4-4.9,5.9c0,3.4,1.6,6.1,5,6.1c1.4,0,2.9-0.5,3.7-0.9
			l0.2,4c-1.4,0.4-2.9,0.6-4.9,0.6c-6.1,0-9.2-4.2-9.2-9.8c0-5.4,3.2-9.7,9-9.7c2,0,3.4,0.2,4.7,0.6L-147.7,160.9z"/>
		<path class="st0" d="M-135.3,170.4L-135.3,170.4l4.6-13.6h4.9l-7,18.5c-1.6,4.1-2.7,8.2-7.7,8.2c-1.2,0-2.3-0.2-3.4-0.5l0.3-3.6
			c0.6,0.2,1.3,0.3,2.5,0.3c2,0,3.1-1.3,3.1-3.3l-7.1-19.6h5.4L-135.3,170.4z"/>
		<path class="st0" d="M-123,156.8h4.5v2.6h0.1c1.5-2.3,3.7-3,5.5-3c2.6,0,4.4,1,5.5,3.3c1.1-2.2,3.5-3.3,5.8-3.3
			c4.6,0,5.9,3.2,5.9,7.3v11.8h-4.8v-11.1c0-1.7,0-4.2-2.8-4.2c-3.2,0-3.6,3.8-3.6,6.3v9h-4.8v-11.1c0-1.7,0-4.2-2.8-4.2
			c-3.2,0-3.6,3.8-3.6,6.3v9h-4.9V156.8z"/>
		<path class="st0" d="M-91.7,156.8h4.3v4.2h0.1c0.2-1.7,2.2-4.7,5.1-4.7c0.5,0,1,0,1.5,0.1v4.9c-0.4-0.3-1.3-0.4-2.2-0.4
			c-3.9,0-3.9,4.9-3.9,7.6v6.8h-4.8L-91.7,156.8L-91.7,156.8z"/>
		<path class="st0" d="M-60.5,175.5h-4.6V173h-0.1c-1.5,1.8-3.6,3-6.1,3c-4.4,0-6.3-3.1-6.3-7.3v-11.9h4.9v9.9c0,2.3,0,5.4,3.1,5.4
			c3.5,0,4.3-3.8,4.3-6.2v-9.1h4.8C-60.5,156.8-60.5,175.5-60.5,175.5z"/>
	</g>
</g>
</svg>
