<?xml version="1.0" encoding="UTF-8" standalone="no"?>
<svg width="34px" height="34px" viewBox="0 0 34 34" version="1.1" xmlns="http://www.w3.org/2000/svg" xmlns:xlink="http://www.w3.org/1999/xlink">
    <!-- Generator: Sketch 3.6.1 (26313) - http://www.bohemiancoding.com/sketch -->
    <title>gel-icons-social</title>
    <desc>Created with Sketch.</desc>
    <defs></defs>
    <g id="Page-1" stroke="none" stroke-width="1" fill="none" fill-rule="evenodd">
        <g id="gel-icons-social">
            <g id="gel-icon-blog" transform="translate(1.000000, 0.000000)" fill="#000000">
                <g id="blog-Layer_2">
                    <path d="M7,19.6 L7,25.6 L13,25.6 L13.7,25 L7.7,19 L7,19.6 Z" id="Shape"></path>
                    <path d="M26,0.6 L9.3,17.4 L15.3,23.4 L26,12.6 L26,30.6 L2,30.6 L2,6.6 L14,6.6 L14,4.6 L0,4.6 L0,32.6 L28,32.6 L28,10.6 L32,6.6 L26,0.6 Z" id="Shape"></path>
                </g>
            </g>
            <g id="gel-icon-comments" transform="translate(1.000000, 1.000000)" fill="#000000">
                <path d="M0,0 L0,32 L8,24 L32,24 L32,0 L0,0 L0,0 Z M4,10 L22,10 L22,14 L4,14 L4,10 L4,10 Z M28,20 L4,20 L4,16 L28,16 L28,20 L28,20 Z M28,8 L4,8 L4,4 L28,4 L28,8 L28,8 Z" id="comments-Layer_2"></path>
            </g>
            <g id="gel-icon-digg" transform="translate(0.000000, 4.000000)">
                <g id="digg-Layer_2">
                    <path d="M4.1,10.4 L4.1,16.3 L6,16.3 C1,-3 6.4,16.3 6.4,15.9 L6.4,10 L4.5,10 C1,-3 4.1,10 4.1,10.4 L4.1,10.4 Z" id="Shape"></path>
                    <path d="M6.7,3.5 C1,-3 6.3,3.5 6.3,3.9 L6.3,7.6 L1.3,7.6 C8.4,-3 0.9,7.6 0.9,8 L0.9,18.7 L9.1,18.7 C22.4,-3 9.5,18.7 9.5,18.3 L9.5,3.5 L6.7,3.5 L6.7,3.5 Z M6.4,15.9 C6.4,16.3 6,16.3 6,16.3 L4.1,16.3 L4.1,10.4 C4.1,10 4.5,10 4.5,10 L6.4,10 L6.4,15.9 L6.4,15.9 Z" id="Shape" fill="#000000"></path>
                    <path d="M10.5,8 L10.5,18.7 L13.3,18.7 C22.4,-3 13.7,18.7 13.7,18.3 L13.7,7.6 L10.9,7.6 C1,-3 10.5,7.6 10.5,8 L10.5,8 Z" id="Shape" fill="#000000"></path>
                    <path d="M10.9,3.5 C1,-3 10.5,3.5 10.5,3.9 L10.5,5.9 L13.3,5.9 C5,-3 13.7,5.9 13.7,5.5 L13.7,3.5 L10.9,3.5 L10.9,3.5 Z" id="Shape" fill="#000000"></path>
                    <path d="M24.8,7.6 C1,-3 24.4,7.6 24.4,8 L24.4,18.7 L29.8,18.7 L29.8,20.1 L24.8,20.1 C3.8,-3 24.4,20.1 24.4,20.5 L24.4,22.5 L32.6,22.5 C5,-3 33,22.5 33,22.1 L33,7.6 L24.8,7.6 L24.8,7.6 Z M29.8,15.9 C29.8,16.3 29.4,16.3 29.4,16.3 L27.5,16.3 L27.5,10.4 C27.5,10 27.9,10 27.9,10 L29.8,10 L29.8,15.9 L29.8,15.9 Z" id="Shape" fill="#000000"></path>
                    <path d="M15.1,7.6 C1,-3 14.7,7.6 14.7,8 L14.7,18.7 L20.1,18.7 L20.1,20.1 L15.1,20.1 C3.8,-3 14.7,20.1 14.7,20.5 L14.7,22.5 L23,22.5 C1,-3 23.4,22.5 23.4,22.1 L23.4,7.6 L15.1,7.6 L15.1,7.6 Z M20.2,15.9 C20.2,16.3 19.8,16.3 19.8,16.3 L17.9,16.3 L17.9,10.4 C17.9,10 18.3,10 18.3,10 L20.2,10 L20.2,15.9 L20.2,15.9 Z" id="Shape" fill="#000000"></path>
                </g>
            </g>
            <g id="gel-icon-facebook" transform="translate(9.000000, 1.000000)"></g>
            <g id="gel-icon-favourites" transform="translate(1.000000, 4.000000)" fill="#000000">
                <g id="favourites-Layer_2">
                    <path d="M13,0 L32,0 L32,6 L13,6 L13,0 Z" id="Shape"></path>
                    <path d="M17,10 L32,10 L32,16 L17,16 L17,10 Z" id="Shape"></path>
                    <path d="M13,20 L32,20 L32,26 L13,26 L13,20 Z" id="Shape"></path>
                    <path d="M14,11 L9,11 L9,6 L5,6 L5,11 L0,11 L0,15 L5,15 L5,20 L9,20 L9,15 L14,15 L14,11 Z" id="Shape"></path>
                </g>
            </g>
            <g id="gel-icon-add" transform="translate(1.000000, 1.000000)" fill="#000000">
                <path d="M32,13 L19,13 L19,0 L13,0 L13,13 L0,13 L0,19 L13,19 L13,32 L19,32 L19,19 L32,19 L32,13 Z" id="Shape"></path>
            </g>
            <g id="gel-icon-feedback" transform="translate(1.000000, 3.000000)" fill="#000000">
                <g id="feedback-Layer_2">
                    <path d="M14,0 L14,6 L20,6 L20,14 L26,14 L32,20 L32,0 L14,0 L14,0 Z M30,12 L22,12 L22,10 L30,10 L30,12 L30,12 Z M30,8 L22,8 L22,6 L30,6 L30,8 L30,8 Z M30,4 L16,4 L16,2 L30,2 L30,4 L30,4 Z" id="Shape"></path>
                    <path d="M0,22 L0,28 L6,22 L18,22 L18,8 L0,8 L0,22 L0,22 Z M2,10 L16,10 L16,12 L2,12 L2,10 L2,10 Z M2,14 L12,14 L12,16 L2,16 L2,14 L2,14 Z M2,18 L14,18 L14,20 L2,20 L2,18 L2,18 Z" id="Shape"></path>
                </g>
            </g>
            <g id="gel-icon-google-plus" transform="translate(1.000000, 1.000000)" fill="#000000">
                <g id="google-plus-Layer_2">
                    <path d="M32,14.2 L27.8,14.2 L27.8,10 L25.6,10 L25.6,14.2 L21.4,14.2 L21.4,16.3 L25.6,16.3 L25.6,20.5 L27.8,20.5 L27.8,16.3 L32,16.3 L32,14.2 Z" id="Shape"></path>
                    <path d="M18.6,1.7 L16.1,1.7 C17,2.5 19,4 19,7.2 C19,10.3 17.2,11.8 15.4,13.2 C14.8,13.7 14.2,14.3 14.2,15.3 C14.2,16.2 14.8,16.7 15.3,17.1 L16.8,18.3 C18.7,19.9 20.4,21.3 20.4,24.2 C20.4,28.1 16.4,32.2 9,32.2 C2.9,32 1.77635684e-15,29.1 1.77635684e-15,26 C1.77635684e-15,24.5 0.8,22.4 3.3,20.9 C6,19.3 9.5,19.1 11.5,19 C10.9,18.2 10.2,17.5 10.2,16.2 C10.2,15.5 10.4,15.1 10.6,14.6 C10.1,14.6 9.7,14.7 9.2,14.7 C4.7,14.7 2.1,11.4 2.1,8.1 C2.1,6.2 2.7,3.9 4.5,2.3 C7,0.2 10.1,0 12.4,0 L21.3,0 L18.6,1.7 L18.6,1.7 Z M7.4,20.8 C6.5,21.1 3.7,22.1 3.7,25.1 C3.7,28.1 6.7,30.2 11.2,30.2 C15.3,30.2 17.5,28.3 17.5,25.7 C17.5,23.6 16.1,22.4 12.8,20.2 L11.8,20.2 C11.5,20.1 9.2,20.2 7.4,20.8 L7.4,20.8 Z M9.8,1.5 C8.7,1.5 7.5,1.9 6.8,2.8 C6.1,3.7 5.9,4.9 5.9,6 C5.9,8.8 7.6,13.5 11.2,13.5 C12.3,13.5 13.4,12.9 14.1,12.2 C15.1,11.2 15.2,10 15.2,9.2 C15.2,6.2 13.4,1.5 9.8,1.5 L9.8,1.5 Z" id="Shape"></path>
                </g>
            </g>
            <g id="gel-icon-linkedin" transform="translate(1.000000, 1.000000)" fill="#000000">
                <g id="linkedin-Layer_2">
                    <path d="M7.3,31.5 L7.3,10.6 L0.4,10.6 L0.4,31.5 L7.3,31.5 L7.3,31.5 Z M3.8,7.7 C6.2,7.7 7.7,6.1 7.7,4.1 C7.7,2.1 6.2,0.5 3.9,0.5 C1.5,0.5 0,2.1 0,4.1 C0,6.1 1.5,7.7 3.8,7.7 L3.8,7.7 Z" id="Shape"></path>
                    <path d="M11.1,31.5 L18,31.5 L18,19.8 C18,19.2 18,18.5 18.2,18.1 C18.7,16.9 19.8,15.6 21.7,15.6 C24.2,15.6 25.2,17.5 25.2,20.3 L25.2,31.5 L32,31.5 L32,19.5 C32,13.1 28.6,10.1 24.1,10.1 C20.4,10.1 18.8,12.2 17.9,13.6 L17.9,10.6 L11,10.6 C11.2,12.5 11.1,31.5 11.1,31.5 L11.1,31.5 Z" id="Shape"></path>
                </g>
            </g>
            <g id="gel-icon-my-radio" transform="translate(1.000000, 2.000000)" fill="#000000">
                <path d="M30,6 L30,0 L2,0 L2,6 L0,6 L0,30 L12,30 L14,25 L25,25 L27,30 L32,30 L32,6 L30,6 L30,6 Z M6,20 C4.9,20 4,19.1 4,18 C4,16.9 4.9,16 6,16 C7.1,16 8,16.9 8,18 C8,19.1 7.1,20 6,20 L6,20 Z M6,14 C4.9,14 4,13.1 4,12 C4,10.9 4.9,10 6,10 C7.1,10 8,10.9 8,12 C8,13.1 7.1,14 6,14 L6,14 Z M19.5,23 C15.9,23 13,20.1 13,16.5 C13,12.9 15.9,10 19.5,10 C23.1,10 26,12.9 26,16.5 C26,20.1 23.1,23 19.5,23 L19.5,23 Z M28,6 L4,6 L4,2 L28,2 L28,6 L28,6 Z" id="my-radio-Layer_2"></path>
            </g>
            <g id="gel-icon-pinterest" transform="translate(1.000000, 1.000000)" fill="#000000">
                <path d="M16,0 C7.2,0 0,7.2 0,16 C0,22.6 3.9,28.2 9.6,30.7 C9.6,29.6 9.6,28.2 9.9,27 C10.2,25.7 12,18.3 12,18.3 C12,18.3 11.5,17.3 11.5,15.8 C11.5,13.4 12.9,11.7 14.6,11.7 C16.1,11.7 16.8,12.8 16.8,14.1 C16.8,15.6 15.9,17.8 15.4,19.8 C15,21.5 16.3,22.9 17.9,22.9 C20.9,22.9 23,19 23,14.4 C23,10.9 20.6,8.3 16.3,8.3 C11.4,8.3 8.4,11.9 8.4,16 C8.4,17.4 8.8,18.4 9.5,19.1 C9.8,19.5 9.8,19.6 9.7,20 C9.6,20.3 9.4,21 9.4,21.3 C9.3,21.7 9,21.9 8.6,21.7 C6.4,20.8 5.3,18.3 5.3,15.6 C5.3,11.1 9.1,5.6 16.7,5.6 C22.8,5.6 26.8,10 26.8,14.8 C26.8,21.1 23.3,25.8 18.2,25.8 C16.5,25.8 14.8,24.9 14.3,23.8 C14.3,23.8 13.4,27.5 13.2,28.2 C12.9,29.4 12.2,30.7 11.6,31.6 C13,32 14.6,32.3 16.1,32.3 C24.9,32.3 32.1,25.1 32.1,16.3 C32.1,7.5 24.8,0 16,0 L16,0 Z" id="pinterest-Layer_2"></path>
            </g>
            <g id="gel-icon-recommend" transform="translate(1.000000, 1.000000)" fill="#000000">
                <path d="M16,28 C9.4,28 4,22.6 4,16 C4,9.4 9.4,4 16,4 C19.1,4 22,5.2 24.1,7.2 L15.4,17.6 L10,13.8 L7,17.3 L15.8,24.1 L26.8,11 L29.6,7.7 C26.8,3.1 21.8,0 16,0 C7.2,0 0,7.2 0,16 C0,24.8 7.2,32 16,32 C24.8,32 32,24.8 32,16 L28,16 C28,22.6 22.6,28 16,28" id="recommend-Layer_2"></path>
            </g>
            <g id="gel-icon-share" transform="translate(2.000000, 1.000000)" fill="#000000">
                <path d="M5.8,22.2 C7.4,22.2 8.8,21.5 9.8,20.4 L18.8,25.2 C18.7,25.6 18.6,26 18.6,26.5 C18.6,29.5 21.1,32 24.1,32 C27.1,32 29.6,29.6 29.6,26.5 C29.6,23.4 27.1,21 24.1,21 C22.5,21 21.1,21.7 20.1,22.8 L10.6,17.6 L10.5,14.8 L20.2,9.3 C21.2,10.3 22.5,10.8 24,10.8 C27,10.8 29.5,8.3 29.5,5.3 C29.5,2.3 27.2,0 24.2,0 C21.2,0 18.7,2.4 18.7,5.5 C18.7,6.1 18.8,6.6 18.9,7.1 L9.6,12.8 C8.6,11.9 7.3,11.3 5.8,11.3 C2.8,11.3 0.3,13.7 0.3,16.8 C0.4,19.7 2.8,22.2 5.8,22.2 L5.8,22.2 Z" id="share-Layer_2"></path>
            </g>
            <g id="gel-icon-sign-in" transform="translate(2.000000, 2.000000)" fill="#000000">
                <g id="sign-in-Layer_2">
                    <path d="M0,0 L0,30 L30,30 L30,0 L0,0 L0,0 Z M19.8,22.6 L18.5,20 L11.5,20 L10.1,22.6 C7.7,21 6,18.2 6,15 C6,10 10,6 15,6 C20,6 24,10 24,15 C24,18.2 22.3,21 19.8,22.6 L19.8,22.6 Z" id="Shape"></path>
                    <circle id="Oval" cx="15" cy="15" r="3.5"></circle>
                </g>
            </g>
            <g id="gel-icon-sign-out" transform="translate(2.000000, 2.000000)" fill="#000000">
                <path d="M0,0 L0,30 L30,30 L30,0 L0,0 L0,0 Z M21.1,21.6 L20.6,20.5 C22,19.1 22.9,17.1 22.9,14.9 C22.9,10.6 19.4,7 15,7 C10.6,7 7.1,10.7 7.1,15 C7.1,17.7 8.5,20.2 10.6,21.6 L11.4,20 L18.4,20 L19.7,22.6 C18.4,23.5 16.8,24 15,24 C10,24 6,20 6,15 C6,10 10,6 15,6 C20,6 24,10 24,15 C24,17.6 22.9,20 21.1,21.6 L21.1,21.6 Z M18.5,15 C18.5,16.9 16.9,18.5 15,18.5 C13.1,18.5 11.5,16.9 11.5,15 C11.5,13.1 13.1,11.5 15,11.5 C16.9,11.5 18.5,13.1 18.5,15 L18.5,15 Z" id="sign-out-Layer_2"></path>
            </g>
            <g id="gel-icon-stumble-upon" transform="translate(1.000000, 1.000000)" fill="#000000">
                <path d="M16,0 C7.2,0 0,7.2 0,16 C0,24.8 7.2,32 16,32 C24.8,32 32,24.8 32,16 C32,7.2 24.8,0 16,0 L16,0 Z M16,13 C15.2,13 14.5,13.7 14.4,14.5 L14.4,17.6 C14.3,19.8 12.5,21.5 10.3,21.5 C8.1,21.5 6.3,19.8 6.2,17.6 L6.2,16 L8.7,16 L8.7,17.6 C8.7,18.4 9.4,19.1 10.2,19.1 C11,19.1 11.7,18.5 11.7,17.6 L11.7,14.5 C11.8,12.3 13.6,10.6 15.8,10.6 C18,10.6 19.8,12.3 19.8,14.5 L18.3,14.9 L17.3,14.5 C17.5,13.6 16.8,13 16,13 L16,13 Z M25.7,17.6 C25.6,19.8 23.8,21.5 21.6,21.5 C19.4,21.5 17.6,19.8 17.5,17.6 L17.5,16 L18.5,16.4 L20,16 L20,17.6 C20,18.4 20.7,19.1 21.5,19.1 C22.3,19.1 23,18.5 23,17.6 L23,16 L25.5,16 L25.5,17.6 L25.7,17.6 Z" id="stumble-upon-Layer_2"></path>
            </g>
            <g id="gel-icon-subscribe-to-podcast" transform="translate(1.000000, 1.000000)" fill="#000000">
                <g id="subscribe-to-podcast-Layer_2">
                    <path d="M22,6 C24.2,6 26.2,6.9 27.7,8.3 L29.1,6.9 C27.3,5.1 24.8,4 22,4 C19.2,4 16.7,5.1 14.9,6.9 L16.3,8.3 C17.8,6.9 19.8,6 22,6" id="Shape"></path>
                    <path d="M22,2 C25.3,2 28.3,3.3 30.5,5.5 L32,4.1 C29.4,1.6 25.9,0 22,0 C18.1,0 14.6,1.6 12.1,4.1 L13.5,5.5 C15.7,3.3 18.7,2 22,2" id="Shape"></path>
                    <path d="M14,12 L9,12 L9,7 L5,7 L5,12 L0,12 L0,16 L5,16 L5,21 L9,21 L9,16 L14,16 L14,12 Z" id="Shape"></path>
                    <path d="M26,14 C26,16.2 24.2,18 22,18 C19.8,18 18,16.2 18,14 C18,11.8 19.8,10 22,10 C24.2,10 26,11.8 26,14" id="Shape"></path>
                    <path d="M16,19 L28,19 L25,32 L19,32 L16,19 Z" id="Shape"></path>
                </g>
            </g>
            <g id="gel-icon-terms-conditions" transform="translate(4.000000, 1.000000)" fill="#000000">
                <g id="terms-conditions-Layer_2">
                    <path d="M22,4 L22,7 L23,7 L23,29 L3,29 L3,7 L6,7 L6,9 L20,9 L20,3 L16,3 C16,1.3 14.7,0 13,0 C11.3,0 10,1.3 10,3 L6,3 L6,4 L0,4 L0,32 L26,32 L26,4 L22,4 L22,4 Z" id="Shape"></path>
                    <path d="M8.5,16.2 L6.5,18.5 L11.8,23 L19.3,14 L17,12.1 L11.5,18.7 L8.5,16.2 Z" id="Shape"></path>
                </g>
            </g>
            <g id="gel-icon-tumblr" transform="translate(8.000000, 1.000000)" fill="#000000">
                <path d="M11,0 L11,8.2 L17.3,8.2 L17.3,13 L10.9,13 L10.9,21.3 C10.9,23.2 11.1,24.1 11.3,24.6 C11.5,25.1 11.8,25.5 12.3,25.8 C12.8,26.1 13.3,26.2 14.1,26.2 C14.5,26.2 15.5,26.1 16.6,25.6 L18.1,30.2 C17.5,30.7 16.6,31.3 15.2,31.7 C14,31.9 13.2,32 12,32 C10.6,32 9.7,31.8 8.6,31.4 C7.5,31 6.8,30.5 6,29.8 C5.2,29.1 4.7,28.4 4.3,27.6 C3.8,26.8 3.3,25.4 3.2,23.8 L3.2,13 L-1.77635684e-15,13 L-1.77635684e-15,8.8 C1.2,8.4 2.1,7.8 3,7 C4.2,5.9 4.7,5 5.1,4.1 C5.6,3.1 6,1.6 6.2,1.77635684e-15 L11,1.77635684e-15 L11,0 Z" id="tumblr-Layer_2"></path>
            </g>
            <g id="gel-icon-twitter" transform="translate(0.000000, 4.000000)" fill="#000000">
                <path d="M33,3.1 C31.8,3.6 30.6,4 29.2,4.1 C30.6,3.3 31.6,2 32.1,0.5 C30.8,1.3 29.4,1.8 27.9,2.1 C26.7,0.8 25,0 23.2,0 C19.6,0 16.6,2.9 16.6,6.6 C16.6,7.1 16.7,7.6 16.8,8.1 C11.3,7.8 6.5,5.2 3.2,1.2 C2.6,2.2 2.3,3.3 2.3,4.5 C2.3,6.8 3.5,8.8 5.2,10 C4.1,10 3.1,9.7 2.2,9.2 L2.2,9.3 C2.2,12.5 4.5,15.1 7.5,15.7 C6.9,15.8 6.4,15.9 5.8,15.9 C5.4,15.9 5,15.9 4.6,15.8 C5.4,18.4 7.9,20.3 10.7,20.4 C8.5,22.2 5.6,23.2 2.5,23.2 C2,23.2 1.4,23.2 0.9,23.1 C3.9,24.9 7.4,26 11.1,26 C23.2,26 29.8,16 29.8,7.3 L29.8,6.4 C31,5.5 32.1,4.4 33,3.1 L33,3.1 Z" id="twitter-Layer_2"></path>
            </g>
        </g>
    </g>
</svg>