<svg width="34" height="34" viewBox="0 0 34 34" xmlns="http://www.w3.org/2000/svg"><title>gel-icons-social</title><g fill="none" fill-rule="evenodd"><g fill="#000"><path d="M8 19.6v6h6l.7-.6-6-6-.7.6z"/><path d="M27 .6L10.3 17.4l6 6L27 12.6v18H3v-24h12v-2H1v28h28v-22l4-4-6-6z"/></g><path d="M1 1v32l8-8h24V1H1zm4 10h18v4H5v-4zm24 10H5v-4h24v4zm0-12H5V5h24v4z" fill="#000"/><path d="M4.1 14.4v5.9H6c-5-19.3.4 0 .4-.4V14H4.5c-3.5-13-.4 0-.4.4z"/><path d="M6.7 7.5c-5.7-6.5-.4 0-.4.4v3.7h-5c7.1-10.6-.4 0-.4.4v10.7h8.2c13.3-21.7.4 0 .4-.4V7.5H6.7zm-.3 12.4c0 .4-.4.4-.4.4H4.1v-5.9c0-.4.4-.4.4-.4h1.9v5.9z" fill="#000"/><path d="M10.5 12v10.7h2.8c9.1-21.7.4 0 .4-.4V11.6h-2.8c-9.9-10.6-.4 0-.4.4z" fill="#000"/><path d="M10.9 7.5c-9.9-6.5-.4 0-.4.4v2h2.8c-8.3-8.9.4 0 .4-.4v-2h-2.8z" fill="#000"/><path d="M24.8 11.6c-23.8-10.6-.4 0-.4.4v10.7h5.4v1.4h-5c-21-23.1-.4 0-.4.4v2h8.2C5 1 33 26.5 33 26.1V11.6h-8.2zm5 8.3c0 .4-.4.4-.4.4h-1.9v-5.9c0-.4.4-.4.4-.4h1.9v5.9z" fill="#000"/><path d="M15.1 11.6c-14.1-10.6-.4 0-.4.4v10.7h5.4v1.4h-5c-11.3-23.1-.4 0-.4.4v2H23c-22-25.5.4 0 .4-.4V11.6h-8.3zm5.1 8.3c0 .4-.4.4-.4.4h-1.9v-5.9c0-.4.4-.4.4-.4h1.9v5.9z" fill="#000"/><path d="M14 4h19v6H14V4zm4 10h15v6H18v-6zm-4 10h19v6H14v-6zm1-9h-5v-5H6v5H1v4h5v5h4v-5h5v-4z" fill="#000"/><path d="M33 14H20V1h-6v13H1v6h13v13h6V20h13v-6z" fill="#000"/><g fill="#000"><path d="M15 3v6h6v8h6l6 6V3H15zm16 12h-8v-2h8v2zm0-4h-8V9h8v2zm0-4H17V5h14v2z"/><path d="M1 25v6l6-6h12V11H1v14zm2-12h14v2H3v-2zm0 4h10v2H3v-2zm0 4h12v2H3v-2z"/></g><path d="M33 15.2h-4.2V11h-2.2v4.2h-4.2v2.1h4.2v4.2h2.2v-4.2H33v-2.1zM19.6 2.7h-2.5C18 3.5 20 5 20 8.2c0 3.1-1.8 4.6-3.6 6-.6.5-1.2 1.1-1.2 2.1 0 .9.6 1.4 1.1 1.8l1.5 1.2c1.9 1.6 3.6 3 3.6 5.9 0 3.9-4 8-11.4 8-6.1-.2-9-3.1-9-6.2 0-1.5.8-3.6 3.3-5.1 2.7-1.6 6.2-1.8 8.2-1.9-.6-.8-1.3-1.5-1.3-2.8 0-.7.2-1.1.4-1.6-.5 0-.9.1-1.4.1-4.5 0-7.1-3.3-7.1-6.6 0-1.9.6-4.2 2.4-5.8C8 1.2 11.1 1 13.4 1h8.9l-2.7 1.7zM8.4 21.8c-.9.3-3.7 1.3-3.7 4.3s3 5.1 7.5 5.1c4.1 0 6.3-1.9 6.3-4.5 0-2.1-1.4-3.3-4.7-5.5h-1c-.3-.1-2.6 0-4.4.6zm2.4-19.3c-1.1 0-2.3.4-3 1.3-.7.9-.9 2.1-.9 3.2 0 2.8 1.7 7.5 5.3 7.5 1.1 0 2.2-.6 2.9-1.3 1-1 1.1-2.2 1.1-3 0-3-1.8-7.7-5.4-7.7z" fill="#000"/><path d="M8.3 32.5V11.6H1.4v20.9h6.9zM4.8 8.7c2.4 0 3.9-1.6 3.9-3.6S7.2 1.5 4.9 1.5C2.5 1.5 1 3.1 1 5.1s1.5 3.6 3.8 3.6zm7.3 23.8H19V20.8c0-.6 0-1.3.2-1.7.5-1.2 1.6-2.5 3.5-2.5 2.5 0 3.5 1.9 3.5 4.7v11.2H33v-12c0-6.4-3.4-9.4-7.9-9.4-3.7 0-5.3 2.1-6.2 3.5v-3H12c.2 1.9.1 20.9.1 20.9z" fill="#000"/><path d="M31 8V2H3v6H1v24h12l2-5h11l2 5h5V8h-2zM7 22c-1.1 0-2-.9-2-2s.9-2 2-2 2 .9 2 2-.9 2-2 2zm0-6c-1.1 0-2-.9-2-2s.9-2 2-2 2 .9 2 2-.9 2-2 2zm13.5 9c-3.6 0-6.5-2.9-6.5-6.5s2.9-6.5 6.5-6.5 6.5 2.9 6.5 6.5-2.9 6.5-6.5 6.5zM29 8H5V4h24v4z" fill="#000"/><path d="M17 1C8.2 1 1 8.2 1 17c0 6.6 3.9 12.2 9.6 14.7 0-1.1 0-2.5.3-3.7.3-1.3 2.1-8.7 2.1-8.7s-.5-1-.5-2.5c0-2.4 1.4-4.1 3.1-4.1 1.5 0 2.2 1.1 2.2 2.4 0 1.5-.9 3.7-1.4 5.7-.4 1.7.9 3.1 2.5 3.1 3 0 5.1-3.9 5.1-8.5 0-3.5-2.4-6.1-6.7-6.1-4.9 0-7.9 3.6-7.9 7.7 0 1.4.4 2.4 1.1 3.1.3.4.3.5.2.9-.1.3-.3 1-.3 1.3-.1.4-.4.6-.8.4-2.2-.9-3.3-3.4-3.3-6.1 0-4.5 3.8-10 11.4-10 6.1 0 10.1 4.4 10.1 9.2 0 6.3-3.5 11-8.6 11-1.7 0-3.4-.9-3.9-2 0 0-.9 3.7-1.1 4.4-.3 1.2-1 2.5-1.6 3.4 1.4.4 3 .7 4.5.7 8.8 0 16-7.2 16-16S25.8 1 17 1z" fill="#000"/><path d="M17 29c-6.6 0-12-5.4-12-12S10.4 5 17 5c3.1 0 6 1.2 8.1 3.2l-8.7 10.4-5.4-3.8-3 3.5 8.8 6.8 11-13.1 2.8-3.3C27.8 4.1 22.8 1 17 1 8.2 1 1 8.2 1 17s7.2 16 16 16 16-7.2 16-16h-4c0 6.6-5.4 12-12 12" fill="#000"/><path d="M7.8 23.2c1.6 0 3-.7 4-1.8l9 4.8c-.1.4-.2.8-.2 1.3 0 3 2.5 5.5 5.5 5.5s5.5-2.4 5.5-5.5-2.5-5.5-5.5-5.5c-1.6 0-3 .7-4 1.8l-9.5-5.2-.1-2.8 9.7-5.5c1 1 2.3 1.5 3.8 1.5 3 0 5.5-2.5 5.5-5.5S29.2 1 26.2 1s-5.5 2.4-5.5 5.5c0 .6.1 1.1.2 1.6l-9.3 5.7c-1-.9-2.3-1.5-3.8-1.5-3 0-5.5 2.4-5.5 5.5.1 2.9 2.5 5.4 5.5 5.4z" fill="#000"/><g transform="translate(2 2)" fill="#000"><path d="M0 0v30h30V0H0zm19.8 22.6L18.5 20h-7l-1.4 2.6C7.7 21 6 18.2 6 15c0-5 4-9 9-9s9 4 9 9c0 3.2-1.7 6-4.2 7.6z"/><circle cx="15" cy="15" r="3.5"/></g><path d="M2 2v30h30V2H2zm21.1 21.6l-.5-1.1c1.4-1.4 2.3-3.4 2.3-5.6 0-4.3-3.5-7.9-7.9-7.9s-7.9 3.7-7.9 8c0 2.7 1.4 5.2 3.5 6.6l.8-1.6h7l1.3 2.6c-1.3.9-2.9 1.4-4.7 1.4-5 0-9-4-9-9s4-9 9-9 9 4 9 9c0 2.6-1.1 5-2.9 6.6zM20.5 17c0 1.9-1.6 3.5-3.5 3.5s-3.5-1.6-3.5-3.5 1.6-3.5 3.5-3.5 3.5 1.6 3.5 3.5z" fill="#000"/><path d="M17 1C8.2 1 1 8.2 1 17s7.2 16 16 16 16-7.2 16-16S25.8 1 17 1zm0 13c-.8 0-1.5.7-1.6 1.5v3.1c-.1 2.2-1.9 3.9-4.1 3.9-2.2 0-4-1.7-4.1-3.9V17h2.5v1.6c0 .8.7 1.5 1.5 1.5s1.5-.6 1.5-1.5v-3.1c.1-2.2 1.9-3.9 4.1-3.9 2.2 0 4 1.7 4 3.9l-1.5.4-1-.4c.2-.9-.5-1.5-1.3-1.5zm9.7 4.6c-.1 2.2-1.9 3.9-4.1 3.9-2.2 0-4-1.7-4.1-3.9V17l1 .4L21 17v1.6c0 .8.7 1.5 1.5 1.5s1.5-.6 1.5-1.5V17h2.5v1.6h.2z" fill="#000"/><g fill="#000"><path d="M23 7c2.2 0 4.2.9 5.7 2.3l1.4-1.4C28.3 6.1 25.8 5 23 5s-5.3 1.1-7.1 2.9l1.4 1.4C18.8 7.9 20.8 7 23 7"/><path d="M23 3c3.3 0 6.3 1.3 8.5 3.5L33 5.1C30.4 2.6 26.9 1 23 1c-3.9 0-7.4 1.6-9.9 4.1l1.4 1.4C16.7 4.3 19.7 3 23 3m-8 10h-5V8H6v5H1v4h5v5h4v-5h5v-4zm12 2c0 2.2-1.8 4-4 4s-4-1.8-4-4 1.8-4 4-4 4 1.8 4 4m-10 5h12l-3 13h-6l-3-13z"/></g><g fill="#000"><path d="M26 5v3h1v22H7V8h3v2h14V4h-4c0-1.7-1.3-3-3-3s-3 1.3-3 3h-4v1H4v28h26V5h-4z"/><path d="M12.5 17.2l-2 2.3 5.3 4.5 7.5-9-2.3-1.9-5.5 6.6-3-2.5z"/></g><path d="M19 1v8.2h6.3V14h-6.4v8.3c0 1.9.2 2.8.4 3.3s.5.9 1 1.2c.5.3 1 .4 1.8.4.4 0 1.4-.1 2.5-.6l1.5 4.6c-.6.5-1.5 1.1-2.9 1.5-1.2.2-2 .3-3.2.3-1.4 0-2.3-.2-3.4-.6-1.1-.4-1.8-.9-2.6-1.6-.8-.7-1.3-1.4-1.7-2.2-.5-.8-1-2.2-1.1-3.8V14H8V9.8c1.2-.4 2.1-1 3-1.8 1.2-1.1 1.7-2 2.1-2.9.5-1 .9-2.5 1.1-4.1H19z" fill="#000"/><path d="M33 7.1c-1.2.5-2.4.9-3.8 1 1.4-.8 2.4-2.1 2.9-3.6-1.3.8-2.7 1.3-4.2 1.6C26.7 4.8 25 4 23.2 4c-3.6 0-6.6 2.9-6.6 6.6 0 .5.1 1 .2 1.5-5.5-.3-10.3-2.9-13.6-6.9-.6 1-.9 2.1-.9 3.3 0 2.3 1.2 4.3 2.9 5.5-1.1 0-2.1-.3-3-.8v.1c0 3.2 2.3 5.8 5.3 6.4-.6.1-1.1.2-1.7.2-.4 0-.8 0-1.2-.1.8 2.6 3.3 4.5 6.1 4.6-2.2 1.8-5.1 2.8-8.2 2.8-.5 0-1.1 0-1.6-.1 3 1.8 6.5 2.9 10.2 2.9 12.1 0 18.7-10 18.7-18.7v-.9c1.2-.9 2.3-2 3.2-3.3z" fill="#000"/></g></svg>