<svg width="57" height="34" viewBox="0 0 57 34" xmlns="http://www.w3.org/2000/svg"><title>icons-core</title><g fill="none" fill-rule="evenodd"><g fill="#000"><path d="M18 18.4V12h-2v7.6l6.6 3.8 1-1.8-5.6-3.2zM30.2 10c1.7-2.9.7-6.5-2.2-8.2-2.9-1.7-6.5-.7-8.2 2.2l10.4 6zM3.8 10C2.1 7.1 3.1 3.5 6 1.8 8.9.1 12.5 1.1 14.2 4L3.8 10z"/><path d="M30 18.5C30 11.3 24.2 5 17 5S4 11.3 4 18.5c0 3.4 1.3 6.7 3.4 9L5 30l2.8 2.9 2.7-2.7c1.9 1.1 4.1 1.7 6.5 1.7 2.3 0 4.5-.6 6.5-1.7l2.7 2.7 2.8-2.8-2.4-2.7c2.1-2.2 3.4-5.5 3.4-8.9zM7.5 19c0-2.5 1-5.2 2.8-7 1.8-1.8 4.2-3 6.7-3 5.2 0 9.5 4.5 9.5 9.8 0 5.3-4.3 9.6-9.5 9.6S7.5 24.2 7.5 19z"/></g><path d="M17 3L1 31h32L17 3zm2 25h-4v-4h4v4zm-4-6V12h4v10h-4z" fill="#000"/><path d="M3 1v32h3V1H3zm28 0L6 17l25 16v-8l-13.3-8L31 9V1z" fill="#000"/><g fill="#000"><path d="M25 14h4v4h-4v-4zM23 1h2v5h-2V1zM9 1h2v5H9V1zm11 13h4v4h-4v-4zm-5 0h4v4h-4v-4zm-5 0h4v4h-4v-4zm15 5h4v4h-4v-4zm-5 0h4v4h-4v-4zm-5 0h4v4h-4v-4zm-5 0h4v4h-4v-4zm-5 0h4v4H5v-4zm15 5h4v4h-4v-4zm-5 0h4v4h-4v-4zm-5 0h4v4h-4v-4zm-5 0h4v4H5v-4z"/><path d="M3 10h30V3h-7v4h-4V3H12v4H8V3H1v7h2zm28 2v19H3V12H1v21h32V12h-2z"/></g><path d="M9 1h24v8H9V1zm8 12h16v8H17v-8zM9 25h24v8H9v-8zm-8-1l12-7-12-7v14z" fill="#000"/><g fill="#000"><path d="M17.4 19.4V13h-2v7.6l6.6 3.8 1-1.8-5.6-3.2zm8.582-13.525l4.242 4.242-2.828 2.83-4.243-4.244 2.829-2.828z"/><path d="M16 7C8.8 7 3 12.8 3 20s5.8 13 13 13 13-5.8 13-13S23.2 7 16 7zm0 22.5c-5.2 0-9.5-4.3-9.5-9.5s4.3-9.5 9.5-9.5 9.5 4.3 9.5 9.5-4.3 9.5-9.5 9.5zM16 7c1.7 0 3-1.3 3-3s-1.3-3-3-3-3 1.3-3 3 1.3 3 3 3zm0-5c1.1 0 2 .9 2 2s-.9 2-2 2-2-.9-2-2 .9-2 2-2z"/></g><path d="M31 1h-9l2 2h7v28H3V3h7.2l8.6 8.6-8.4 8.4 7.8 9.5V20l8.2-8.1L15.5 1H1v32h32V1h-2z" fill="#000"/><path d="M17 30L33 4h-7.2L17 19.3 8.2 4H1l16 26z" fill="#000"/><path d="M29.2 13.2L20 22.4V1h-6v21.4l-9.2-9.2L1 17l14 14H3v-6H1v8h16l16-16-3.8-3.8zM31 31h-8l-2 2h12v-8h-2v6z" fill="#000"/><g fill="#000"><path d="M18 16.4V7h-2v10.6l8.8 5.1 1-1.8-7.8-4.5z"/><path d="M17 5c6.6 0 12 5.4 12 12s-5.4 12-12 12S5 23.6 5 17 10.4 5 17 5zm0-4C8.2 1 1 8.2 1 17s7.2 16 16 16 16-7.2 16-16S25.8 1 17 1z"/></g><path d="M17 20.4l16-15V4H1v26h32V9l-4 4v13H5V9.2l12 11.2zm0-2.8L6.8 8h20.4L17 17.6z" fill="#000"/><path d="M12 30v-7l-5-6 5-6V4L1 17l11 13zM26 4v7l5 6-5 6v7l11-13L26 4zM14 26h2l8-18h-2l-8 18z" fill="#000"/><path d="M11 28v-6l-4.5-5 4.5-5V6L1 17l10 11zM23 6v6l4.5 5-4.5 5v6l10-11L23 6zM13 25h2l6-16h-2l-6 16z" fill="#000"/><path d="M11 7.2V1L1 11l10 10v-6.2L7.2 11 11 7.2zm12 7.6V21l10-10L23 1v6.2l3.8 3.8-3.8 3.8zm-10.597-.617l7.78-7.778 1.413 1.414-7.778 7.777-1.415-1.413z" fill="#000"/><g fill="#000"><path d="M17 1c-.3 0-.7 0-1 .1v4c.3-.1.7-.1 1-.1 6.6 0 12 5.4 12 12s-5.4 12-12 12S5 23.6 5 17H1c0 8.8 7.2 16 16 16s16-7.2 16-16S25.8 1 17 1z"/><path d="M24.8 22.7l1-1.8-7.8-4.5V7h-2v10.6l8.8 5.1z"/></g><path d="M7 1v22.5l-6 6L4.5 33 23 14.5V22h5V6H12v5h7.5L9 21.5V3h22v22H16.8l-2 2H33V1H7z" fill="#000"/><path d="M13 1v5h11.5l-5 5H1v22h22V18.5l-2 2V31H3V13h14.5l-7.8 7.7 3.6 3.6L28 9.5V21h5V1H13z" fill="#000"/><path d="M1 1h8v8H1V1zm0 12h8v8H1v-8zm0 12h8v8H1v-8zM13 1h8v8h-8V1zm0 12h8v8h-8v-8zm0 12h8v8h-8v-8zM25 1h8v8h-8V1zm0 12h8v8h-8v-8zm0 12h8v8h-8v-8z" fill="#000"/><path d="M17 1C8.2 1 1 8.2 1 17s7.2 16 16 16 16-7.2 16-16S25.8 1 17 1zm2 26h-4v-4h4v4zm2.6-10c-1.2.9-2.6 1.6-2.6 3.2v.8h-4v-1c0-2.4 1.4-3.4 2.5-4.3 1.1-.8 2.5-1.5 2.5-2.9 0-1.7-1.4-2.4-2.8-2.4-2 0-3.7 1.6-3.7 3.6H10c.1-4 3.1-6.8 7-6.8 5.1 0 7.3 3.1 7.3 5.2 0 2.7-1.5 3.7-2.7 4.6z" fill="#000"/><g fill="#000"><path d="M17 6.4l-12 12v14.5h9V23h6v9.9h9V18.4l-12-12z"/><path d="M29 13V5h-4v4l-6.6-6.6L17 1l-1.4 1.4L1 17v2.8l16-16 16 16V17l-4-4z"/></g><path d="M17 1C8.2 1 1 8.2 1 17s7.2 16 16 16 16-7.2 16-16S25.8 1 17 1zm2 25h-4V14h4v12zm0-14h-4V8h4v4z" fill="#000"/><g fill="#000"><path d="M11 27H3v-6h2v-2H1v10h12v-6h-2v4zm12 0h8v-6h-2v-2h4v10H21v-6h2v4z"/><path d="M7 21h20V5H7v16zm16-4H11V9h12v8z"/></g><g fill="#000"><path d="M19.5 5.6l-1.7-1.7C14 0 7.7 0 3.9 3.9 0 7.7 0 14 3.9 17.8l3.4 3.4c3.8 3.8 10.1 3.8 13.9 0l-3.5-3.5c-1.9 1.9-5 1.9-7 0l-3.4-3.4c-1.9-1.9-1.9-5 0-7 1.9-1.9 5-1.9 7 0L16 9l3.5-3.4z"/><path d="M14.4 28.4l1.7 1.7c3.8 3.8 10.1 3.8 13.9 0 3.8-3.8 4-10 .1-13.8l-3.5-3.5c-3.7-3.8-10-3.8-13.8 0l3.5 3.5c1.9-1.9 5-1.9 7 0l3.4 3.4c1.9 1.9 1.9 5 0 7-1.9 1.9-5 1.9-7 0L18 25l-3.6 3.4z"/></g><path d="M1 1h8v8H1V1zm0 12h8v8H1v-8zm0 12h8v8H1v-8zM12 1v8h21V1H12zm0 17v3h21v-8H12v5zm0 12v3h21v-8H12v5z" fill="#000"/><path d="M1 1v8h32V1H1zm0 17v3h32v-8H1v5zm0 12v3h32v-8H1v5z" fill="#000"/><path d="M30.8 9l-3.5 2c1 1.8 1.6 3.8 1.6 6 0 6.6-5.4 12-12 12S5 23.6 5 17 10.4 5 17 5V1C8.2 1 1 8.2 1 17s7.2 16 16 16 16-7.2 16-16c0-2.9-.8-5.6-2.2-8z" fill="#000"/><path d="M17 1C8.2 1 1 8.2 1 17s7.2 16 16 16 16-7.2 16-16S25.8 1 17 1zm2 27.8V24h-4v4.8C10 28 6 24 5.2 19H10v-4H5.2C6 10 10 6 15 5.2V10h4V5.2c5 .8 9 4.8 9.8 9.8H24v4h4.8c-.8 5-4.8 9-9.8 9.8z" fill="#000"/><path d="M26 14.9V9.3C26 4.7 21.9 1 17 1S8 4.7 8 9.3v5.6H4v18h26v-18h-4zM13 9.3c0-2 1.8-3.7 4-3.7s4 1.6 4 3.7v5.6h-8V9.3z" fill="#000"/><path d="M1 13h8v8H1v-8zm12 0h8v8h-8v-8zm12 0h8v8h-8v-8z" fill="#000"/><path d="M13 1h8v8h-8V1zm0 12h8v8h-8v-8zm0 12h8v8h-8v-8z" fill="#000"/><path d="M1 1h56v32H1V1z" fill="#000"/><path d="M5 8.9h4.3l5.6 9.8V8.9h3.9v16h-4.3L9 14.9v10H5v-16zm16.2 0h11.4v3.3h-7.2V15h6.5v3.2h-6.5v3h7.4v3.6H21.2V8.9zm28.3 16h-3.8l-2-11-2 11h-3.9l-3.9-16h3.8l2.1 11.7 2.1-11.7h3.6l2.1 11.7 2.1-11.7h3.8l-4 16z" fill="#FFF"/><path d="M30 17L4 1v7.2L18.6 17 4 25.8V33l26-16z" fill="#000"/><path d="M33 4.5L29.5 1 17 13.5 4.5 1 1 4.5 13.5 17 1 29.5 4.5 33 17 20.5 29.5 33l3.5-3.5L20.5 17 33 4.5z" fill="#000"/><path d="M4 17l26 16v-7.2L15.4 17 30 8.2V1L4 17z" fill="#000"/><path d="M27 13V6l-5-5H7v12H1v12.1L6.9 31H7v2h20v-2h.1l5.9-5.9V13h-6zM9 13V3h12.2L25 6.8V19H9v-6zm0 18v-5h16v5H9z" fill="#000"/><path d="M1 18v15h15V18H8c.2-5.9 2.4-8.8 8-9.9V1C7.7 2.2 1.2 9.3 1 18zm32-9.9V1c-8.3 1.2-14.8 8.3-15 17v15h15V18h-8c.2-5.9 2.4-8.8 8-9.9z" fill="#000"/><path d="M33 1H21v12h4V8.1c2.4 2.2 4 5.4 4 8.9 0 6.6-5.4 12-12 12v4c8.8 0 16-7.2 16-16 0-4.8-2.1-9.1-5.4-12H33V1zM9 25.9c-2.4-2.2-4-5.4-4-8.9 0-6.6 5.4-12 12-12V1C8.2 1 1 8.2 1 17c0 4.8 2.1 9.1 5.4 12H1v4h12V21H9v4.9z" fill="#000"/><path d="M33 29.5l-8.2-8.2c3.4-5.1 2.9-12-1.6-16.4C20.7 2.3 17.3 1 14 1c-3.3 0-6.7 1.3-9.2 3.8-5.1 5.1-5.1 13.3 0 18.4C7.3 25.7 10.7 27 14 27c2.5 0 5.1-.7 7.3-2.2l8.2 8.2 3.5-3.5zM7.6 20.4C5.9 18.7 5 16.4 5 14c0-2.4.9-4.7 2.6-6.4C9.3 5.9 11.6 5 14 5c2.4 0 4.7.9 6.4 2.6 3.5 3.5 3.5 9.2 0 12.7-1.7 1.7-4 2.6-6.4 2.6-2.4 0-4.7-.8-6.4-2.5z" fill="#000"/><path d="M32.7 20.7l-3.6-1.5c.3-1.5.3-3 0-4.5l3.6-1.5c.3-.1.4-.4.3-.7l-1.6-3.8c-.1-.3-.4-.4-.7-.3L27.1 10c-.9-1.3-1.9-2.3-3.2-3.2l1.5-3.6c.1-.3 0-.6-.3-.7L21.4 1c-.3-.1-.6 0-.7.3l-1.5 3.6c-1.5-.3-3-.3-4.5 0l-1.5-3.6c-.1-.3-.4-.4-.7-.3L8.8 2.6c-.2.1-.4.4-.3.7L10 6.9c-1.2.8-2.3 1.9-3.1 3.1L3.3 8.5c-.3-.1-.6.1-.7.3L1 12.6c-.1.3 0 .6.3.7l3.6 1.5c-.3 1.5-.3 3 0 4.5l-3.6 1.5c-.3.1-.4.4-.3.7l1.6 3.8c.1.3.4.4.7.3L6.9 24c.9 1.3 1.9 2.3 3.2 3.2l-1.5 3.6c-.1.3 0 .6.3.7l3.8 1.6c.3.1.6 0 .7-.3l1.5-3.6c1.5.3 3 .3 4.5 0l1.5 3.6c.1.3.4.4.7.3l3.8-1.6c.3-.1.4-.4.3-.7L24 27.1c1.3-.9 2.3-1.9 3.2-3.2l3.6 1.5c.3.1.6 0 .7-.3l1.6-3.8c0-.2-.2-.5-.4-.6zm-14.2 0c-2 .8-4.4-.1-5.2-2.2-.8-2 .1-4.4 2.2-5.2 2-.8 4.4.1 5.2 2.2.8 2-.1 4.4-2.2 5.2z" fill="#000"/><g fill="#000"><path d="M1 27.9h32v3H1v-3z"/><path d="M17 27.9L1 2.9h8.2L17 16.1l7.8-13.2H33l-16 25z"/></g><g fill="#000"><path d="M1 2.9h32v3H1v-3z"/><path d="M17 5.9l16 25h-8.2L17 17.6 9.2 30.9H1l16-25z"/></g><g fill="#000"><path d="M26 17L1 33v-8l13-8L1 9.2V1l25 16z"/><path d="M22 1v2h9v28h-9v2h11V1H22z"/></g><path d="M24 1c-5 0-9 4.1-9 9v5H1v18h23V15h-4v-5c0-2.2 1.8-4 4-4s4 1.8 4 4v5h5v-5c0-4.9-4-9-9-9z" fill="#000"/><path d="M17 4L1 30h7.2L17 14.7 25.8 30H33L17 4z" fill="#000"/><path d="M1 1v18h12.7l1.2 2 2.5 4 2.5-4 1.2-2H33V1H1zm22 14H5v-4h18v4zm6-6H5V5h24v4zM1 27h32v6H1v-6z" fill="#000"/><path d="M13.8 29.9l19-22.6L29 4.1 13.2 22.9l-9-7.5L1 19.2l12.8 10.7z" fill="#000"/><g fill="#000"><path d="M16 21h-4v-5H7v-4h5V7h4v5h5v4h-5v5z"/><path d="M33 29.5l-8.2-8.2c3.4-5.1 2.9-12-1.6-16.4C20.7 2.3 17.3 1 14 1c-3.3 0-6.7 1.3-9.2 3.8-5.1 5.1-5.1 13.3 0 18.4C7.3 25.7 10.7 27 14 27c2.5 0 5.1-.7 7.3-2.2l8.2 8.2 3.5-3.5zM7.6 20.4C5.9 18.7 5 16.4 5 14c0-2.4.9-4.7 2.6-6.4C9.3 5.9 11.6 5 14 5c2.4 0 4.7.9 6.4 2.6 3.5 3.5 3.5 9.2 0 12.7-1.7 1.7-4 2.6-6.4 2.6-2.4.1-4.7-.8-6.4-2.5z"/></g><g fill="#000"><path d="M7 16v-4h14v4H7z"/><path d="M33 29.5l-8.2-8.2c3.4-5.1 2.9-12-1.6-16.4C20.7 2.3 17.3 1 14 1c-3.3 0-6.7 1.3-9.2 3.8-5.1 5.1-5.1 13.3 0 18.4C7.3 25.7 10.7 27 14 27c2.5 0 5.1-.7 7.3-2.2l8.2 8.2 3.5-3.5zM7.6 20.4C5.9 18.7 5 16.4 5 14c0-2.4.9-4.7 2.6-6.4C9.3 5.9 11.6 5 14 5c2.4 0 4.7.9 6.4 2.6 3.5 3.5 3.5 9.2 0 12.7-1.7 1.7-4 2.6-6.4 2.6-2.4.1-4.7-.8-6.4-2.5z"/></g><path d="M33 14H20V1h-6v13H1v6h13v13h6V20h13v-6z" fill="#000"/></g></svg>