<svg xmlns="http://www.w3.org/2000/svg" viewBox="0 0 91 22.6"><style>.st0{fill:#272724}</style><path class="st0" d="M17.6 0h3.1v22.3h-2.8L3 5.1v17.2H0V0h2.6l15 17.3V0m8.8 0h12.7v2.8h-9.5v6.8h9.2v2.9h-9.2v6.9h9.8v2.9h-13V0m46.8 0h3.2l-9.1 22.4h-.7L59.3 4.3 52 22.4h-.7L42.3 0h3.2l6.2 15.4L57.8 0h3.1l6.2 15.4L73.2 0M85 13l-2.4-1.5c-1.5-.9-2.6-1.8-3.2-2.7-.6-.9-1-1.9-1-3.1 0-1.8.6-3.2 1.8-4.3C81.4.3 83-.3 85-.3c1.9 0 3.6.5 5.1 1.6v3.6c-1.6-1.5-3.3-2.3-5.2-2.3-1 0-1.9.2-2.6.7-.7.5-1 1.1-1 1.9 0 .7.2 1.3.7 1.9.5.6 1.3 1.2 2.4 1.8l2.4 1.4c2.7 1.6 4.1 3.7 4.1 6.2 0 1.8-.6 3.2-1.8 4.4-1.2 1.1-2.8 1.7-4.7 1.7-2.2 0-4.2-.7-6-2v-4.1c1.7 2.2 3.7 3.3 6 3.3 1 0 1.8-.3 2.5-.8.7-.6 1-1.3 1-2.1.1-1.4-.9-2.7-2.9-3.9"/></svg>